<?xml version="1.0" standalone="no"?>
<!DOCTYPE svg PUBLIC "-//W3C//DTD SVG 1.1//EN" "http://www.w3.org/Graphics/SVG/1.1/DTD/svg11.dtd" >
<svg>
<metadata>
Created by FontForge 20120731 at Sat Aug  3 10:48:09 2019
 By ffonts
Typeface (c) (Sons of Baidlowi). 2019. All Rights Reserved
</metadata>
<defs>
<font id="MATROSKA" horiz-adv-x="1776" >
  <font-face 
    font-family="MATROSKA"
    font-weight="900"
    font-stretch="ultra-expanded"
    units-per-em="2048"
    panose-1="2 0 8 0 0 0 0 0 0 0"
    ascent="1638"
    descent="-410"
    x-height="1057"
    cap-height="1380"
    bbox="-13 -1474 7084 2786"
    underline-thickness="150"
    underline-position="-142"
    unicode-range="U+001D-F002"
  />
<missing-glyph horiz-adv-x="1024" 
 />
    <glyph glyph-name="uniE002" unicode="ff" horiz-adv-x="2715" 
d="M2310 1436q164 -4 255 -8v-244h-247q-64 0 -97 -16.5t-45 -45.5t-12 -65h401v-310h-401v-747h-559v747h-592v-747h-558v747h-305v310h305v78q0 91 40.5 147.5t121.5 85.5q63 20 195 24.5t274 1t235 -7.5q6 -1 12 -1v-243h-165q-96 0 -125.5 -15.5t-29.5 -69.5h592v121
q0 90 40.5 146.5t121.5 86.5q66 20 222 24.5t321 0.5z" />
    <glyph glyph-name="uniE003" unicode="fi" horiz-adv-x="2312" 
d="M1603 0v747h-591v-747h-559v747h-303v310h303v120q0 91 41 147.5t122 85.5q79 21 415 25.5t680.5 0.5t450.5 -9v-243h-996q-64 0 -97 -17t-45 -45.5t-12 -64.5h1150v-1057h-559z" />
    <glyph glyph-name="uniE004" unicode="ft" horiz-adv-x="2715" 
d="M618 1411q62 20 193.5 24.5t274 1t235.5 -8.5h11v-244h-165q-63 0 -96.5 -16.5t-45.5 -45.5t-12 -65h592v346h558v-346h403v-310h-403v-350q0 -114 122 -112q135 4 277 9h4v-315q-11 -1 -21 -1q-229 -13 -469 -13h-10q-100 -1 -184 5.5t-146 38t-96.5 102.5t-34.5 201
v435h-592v-747h-558v747h-305v310h305v121q0 90 40.5 146.5t122.5 86.5z" />
    <glyph glyph-name="uniE005" unicode="tt" horiz-adv-x="2715" 
d="M1134 285q51 1 80.5 2t66.5 3q21 0 51 1v-315q-31 -1 -58 -2q-94 -5 -166.5 -7t-182.5 -2h-10q-100 -1 -184 5.5t-146 38t-96.5 102.5t-34.5 201v435h-304v310h304v281h558v-281h592v346h559v-346h401v-310h-401v-350q0 -114 122 -112q127 4 262 8q9 1 17 1v-315
q-11 -1 -22 -1q-227 -13 -467 -13h-9q-100 -1 -184.5 5.5t-146.5 38t-96.5 102.5t-34.5 201v435h-592v-350q0 -114 122 -112z" />
    <glyph glyph-name="uniE006" unicode="ffi" horiz-adv-x="3462" 
d="M811 1393q131 4 273 0.5t236 -7.5q6 -1 12 -1v-243h-166q-95 0 -124.5 -15.5t-29.5 -68.5h592v120q0 90 40.5 146.5t122.5 86.5q79 20 415 24.5t680.5 0.5t449.5 -8v-244h-996q-63 0 -96.5 -16.5t-45.5 -45.5t-12 -64h1150v-1058h-558v747h-592v-747h-558v747h-592v-747
h-558v747h-304v311h304v77q0 91 41 147.5t122 85.5q62 20 194 25z" />
    <glyph glyph-name="uniE007" unicode="fl" horiz-adv-x="2313" 
d="M1167 1184q-63 0 -96.5 -17t-45.5 -45.5t-12 -64.5h319v-310h-319v-747h-559v747h-304v310h304v120q0 91 41 147.5t122 85.5q79 21 415.5 25.5t681 0.5t450.5 -9v-1427h-559v1184h-438z" />
    <glyph glyph-name="uniE008" unicode="tf" horiz-adv-x="2715" 
d="M1013 1058h591v120q0 90 40.5 146.5t122.5 86.5q65 20 221 24.5t320.5 0.5t256.5 -8v-244h-248q-64 0 -97 -16.5t-45 -45.5t-12 -64h402v-311h-402v-747h-559v747h-591v-349q0 -114 122 -113q49 2 78 3t65 2q22 1 54 2v-315q-31 -2 -58 -3q-94 -4 -166.5 -6t-182.5 -2h-9
q-100 -1 -184 5.5t-146.5 37.5t-96.5 102.5t-34 201.5v434h-305v311h305v345h558v-345z" />
    <glyph glyph-name="uniE009" unicode="ti" horiz-adv-x="2312" 
d="M2162 1058v-1058h-558v747h-592v-349q0 -114 122 -113q50 2 79 3t64 2q22 1 54 2v-315q-30 -2 -57 -3q-95 -4 -167 -6t-182 -2h-10q-100 -1 -184 5.5t-146 37.5t-96.5 102.5t-34.5 201.5v434h-304v311h304v345h558v-345h1150zM1604 1428h558v-272h-558v272z" />
    <glyph glyph-name="uniE00A" unicode="tj" horiz-adv-x="2313" 
d="M586 9q-63 31 -97.5 102.5t-34.5 201.5v434h-304v311h304v345h559v-345h1150v-1058q0 -128 -35 -197.5t-87 -103t-107 -52.5q-88 -27 -253.5 -26.5t-306.5 7.5q-26 1 -48 2v255h124q64 0 97 14t45 40t12 61v747h-591v-349q0 -114 121 -113q50 2 79 3t64 2q22 1 55 2v-315
q-31 -2 -58 -3q-94 -4 -166.5 -6t-182.5 -2h-9q-100 -1 -184 5.5t-146 37.5zM1604 1428h559v-272h-559v272z" />
    <glyph glyph-name="uniE00B" unicode="tti" horiz-adv-x="3462" 
d="M1213 288q29 1 64 2q22 1 54 2v-315q-30 -2 -57 -3q-94 -4 -166.5 -6t-182.5 -2h-10q-100 -1 -184 5.5t-146 37.5t-96.5 102.5t-34.5 201.5v434h-304v311h304v280h558v-280h592v345h558v-345h1150v-1058h-558v747h-592v-349q0 -114 122 -113q50 2 79 3t64 2q22 1 54 2
v-315q-30 -2 -57 -3q-95 -4 -167 -6t-182 -2h-10q-100 -1 -184 5.5t-146 37.5t-96.5 102.5t-34.5 201.5v434h-592v-349q0 -114 122 -113q50 2 79 3zM2754 1428h558v-272h-558v272z" />
    <glyph glyph-name="uniE00C" unicode="fft" horiz-adv-x="3864" 
d="M1605 747h-592v-747h-558v747h-305v311h305v77q0 91 40.5 147.5t121.5 85.5q62 20 194 24.5t274.5 1t235.5 -7.5q5 -1 11 -1v-243h-165q-95 0 -124.5 -15.5t-29.5 -68.5h592v120q0 90 40.5 146.5t121.5 86.5q62 20 194 24.5t274 1t235 -8.5h12v-244h-165q-64 0 -97 -16.5
t-45 -45.5t-12 -64h591v345h559v-345h401v-311h-401v-349q0 -114 121 -113q135 5 277 9q1 1 3 1v-316h-22q-227 -13 -467 -13h-10q-100 -1 -184 5.5t-146 37.5t-96.5 102.5t-34.5 201.5v434h-591v-747h-558v747z" />
    <glyph glyph-name="uniE00D" unicode="ffj" horiz-adv-x="3462" 
d="M1332 1142h-165q-96 0 -125 -15.5t-29 -68.5h591v120q0 90 40.5 146.5t122.5 86.5q79 20 415 24.5t680.5 0.5t449.5 -8v-244h-995q-64 0 -97.5 -16.5t-45.5 -45.5t-12 -64l578 7l572 -7v-1058q0 -128 -34.5 -197.5t-86.5 -103t-107 -52.5q-89 -27 -254.5 -26.5
t-305.5 7.5q-26 1 -49 2v255h125q64 0 97 14t45 40t12 61v747h-592v-747h-558v747h-591v-747h-559v747h-304v311h304v77q0 91 40.5 147.5t122.5 85.5q62 20 194 24.5t274 1t235 -7.5q6 -1 12 -1v-243z" />
    <glyph glyph-name="uniE00E" unicode="fj" horiz-adv-x="2313" 
d="M1605 0v747h-592v-747h-558v747h-305v311h305v120q0 90 40.5 146.5t121.5 86.5q79 20 415 24.5t681 0.5t450 -8v-244h-996q-64 0 -97 -16.5t-45 -45.5t-12 -64h1150v-1058q0 -96 -20 -158t-53.5 -99.5t-73.5 -59t-82 -36.5q-88 -27 -253.5 -27t-306.5 8q-26 1 -48 2v254
h124q64 0 97.5 14t45.5 40t12 62z" />
    <glyph glyph-name="uniE00F" unicode="fb" horiz-adv-x="3718" 
d="M1605 1184h-438q-64 0 -97 -17t-45 -45.5t-12 -64.5h319v-310h-319v-747h-559v747h-304v310h304v120q0 91 40.5 147.5t122.5 85.5q79 21 415 25.5t681 0.5t450 -9v-467q16 11 34 20q89 47 179.5 71t178.5 32.5t170 8.5q83 0 175.5 -5t192 -28.5t204.5 -78.5
q142 -77 206.5 -193t64.5 -259q0 -142 -64.5 -258.5t-206.5 -192.5q-105 -55 -204.5 -79t-192 -28.5t-175.5 -4.5q-82 0 -170 8t-178.5 32.5t-179.5 71.5q-33 17 -60 42v-119h-532v1184zM2163 528q0 -86 54.5 -136.5t150 -71.5t218.5 -21q53 0 123.5 7t135.5 30t108.5 69
t43.5 123q0 78 -43.5 124t-108.5 69t-135.5 30t-123.5 7q-123 0 -218.5 -21t-150 -71.5t-54.5 -137.5z" />
    <glyph glyph-name="uniE010" unicode="fh" horiz-adv-x="3613" 
d="M1013 0h-559v747h-304v310h304v120q0 91 41 147.5t122 85.5q79 21 415 25.5t681 0.5t451 -9v-470q109 65 266 100t272 35q101 0 207.5 -7.5t205 -31t177 -71.5t125 -128.5t46.5 -201.5v-652h-559v571q0 51 -23.5 85t-49.5 54q-51 36 -124 43t-126 5h-18
q-185 0 -292 -55.5t-107 -174.5v-528h-559v1184h-438q-63 0 -96.5 -17t-45.5 -45.5t-12 -64.5h319v-310h-319v-747z" />
    <glyph glyph-name="uniE011" unicode="fk" horiz-adv-x="3846" 
d="M1332 747h-319v-747h-559v747h-304v310h304v120q0 91 41 147.5t122 85.5q79 21 415 25.5t681 0.5t450 -9v-735l518 365h967l-719 -397l767 -660h-857l-392 395l-284 -157v-238h-559v1184h-437q-64 0 -97 -17t-45 -45.5t-12 -64.5h319v-310z" />
    <glyph glyph-name="uniE012" unicode="ffb" horiz-adv-x="4869" 
d="M454 0v747h-304v310h304v78q0 90 40.5 146.5t122.5 86.5q62 20 193.5 24.5t274 1t235.5 -8.5h12v-244h-166q-95 0 -124.5 -15t-29.5 -69h592v120q0 91 41 147.5t122 85.5q79 21 415 25.5t680.5 0.5t450.5 -9v-467q16 11 34 20q89 47 179.5 71t178.5 32.5t171 8.5
q82 0 174.5 -5t192 -28.5t204.5 -78.5q141 -77 206.5 -193t65.5 -259q0 -142 -65.5 -258.5t-206.5 -192.5q-105 -55 -204.5 -79t-192 -28.5t-174.5 -4.5q-83 0 -171 8t-178.5 32.5t-179.5 71.5q-33 17 -61 42v-119h-532v1184h-437q-64 0 -97 -17t-45.5 -45.5t-12.5 -64.5
h320v-310h-320v-747h-558v747h-592v-747h-558zM3313 528q0 -86 54.5 -136.5t149.5 -71.5t219 -21q53 0 123.5 7t135.5 30t108.5 69t43.5 123q0 78 -43.5 124t-108.5 69t-135.5 30t-123.5 7q-124 0 -219 -21t-149.5 -71.5t-54.5 -137.5z" />
    <glyph glyph-name="uniE013" unicode="ffh" horiz-adv-x="4763" 
d="M1167 1141q-95 0 -124.5 -15t-29.5 -69h591v120q0 91 41 147.5t122 85.5q79 21 415 25.5t681 0.5t451 -9v-470q109 65 265.5 100t272.5 35q101 0 207.5 -7.5t205 -31t177 -71.5t125 -128.5t46.5 -201.5v-652h-559v571q0 51 -23.5 85t-49.5 54q-51 36 -124 43t-126 5h-19
q-184 0 -291 -55.5t-107 -174.5v-528h-559v1184h-438q-63 0 -96.5 -17t-45.5 -45.5t-12 -64.5h319v-310h-319v-747h-559v747h-591v-747h-559v747h-304v310h304v78q0 90 40.5 146.5t122.5 86.5q62 20 194 24.5t274.5 1t235.5 -8.5h11v-244h-165z" />
    <glyph glyph-name="uniE014" unicode="ffk" horiz-adv-x="4997" 
d="M2755 1184h-438q-63 0 -96.5 -17t-45.5 -45.5t-12 -64.5h319v-310h-319v-747h-558v747h-592v-747h-558v747h-305v310h305v78q0 90 40.5 146.5t121.5 86.5q62 20 194 24.5t274.5 1t235.5 -8.5h11v-244h-165q-95 0 -124.5 -15t-29.5 -69h592v120q0 91 40.5 147.5
t121.5 85.5q80 21 416 25.5t680.5 0.5t450.5 -9v-735l518 365h967l-719 -397l767 -660h-858l-391 395l-284 -157v-238h-559v1184z" />
    <glyph glyph-name="uniE015" unicode="ffl" horiz-adv-x="3463" 
d="M1012 747v-747h-558v747h-304v310h304v78q0 90 40.5 146.5t122.5 86.5q62 20 193.5 24.5t274 1t235.5 -8.5h12v-244h-166q-95 0 -124.5 -15t-29.5 -69h592v120q0 91 41 147.5t122 85.5q79 21 415 25.5t680.5 0.5t450.5 -9v-1427h-559v1184h-437q-64 0 -97 -17
t-45.5 -45.5t-12.5 -64.5h320v-310h-320v-747h-558v747h-592z" />
    <glyph glyph-name="uniE016" unicode="Th" horiz-adv-x="4219" 
d="M3516 1085q106 -8 204.5 -31.5t177 -71.5t125 -128.5t46.5 -201.5v-652h-558v571q0 51 -23.5 85t-50.5 54q-50 36 -123.5 43t-126.5 5h-18q-185 0 -292 -55.5t-107 -174.5v-528h-559v958h-741v-958h-558v958h-762v422h2620v-423q109 65 266 100t272 35q101 0 208 -7z" />
    <glyph glyph-name="uniE017" unicode="fv" horiz-adv-x="3434" 
d="M1332 1185h-165q-95 0 -124.5 -36.5t-29.5 -90.5h902l364 -682l363 682h642l-668 -1058h-674l-471 747h-458v-747h-558v747h-305v311h305v120q0 181 162 233q62 21 194 25.5t274.5 0.5t235.5 -8q6 0 11 -1v-243z" />
    <glyph glyph-name="uniE018" unicode="tv" horiz-adv-x="3433" 
d="M1278 290q22 1 54 2v-315q-31 -2 -58 -3q-94 -4 -166 -6t-182 -2h-10q-134 -3 -237.5 13t-163.5 88t-60 246v434h-305v311h305v346h558v-346h903l363 -682l363 682h641l-668 -1058h-673l-472 747h-457v-349q0 -114 122 -113q50 2 78.5 3t64.5 2z" />
    <glyph glyph-name="uniE019" unicode="ffv" horiz-adv-x="4583" 
d="M1013 0h-558v747h-305v311h305v78q0 181 162 232q62 21 194 25.5t274.5 0.5t235.5 -8h11v-244h-165q-95 0 -124.5 -15t-29.5 -69h592v120q0 181 162 233q63 21 195 25.5t274 0.5t235 -8q6 0 12 -1v-243h-165q-96 0 -125.5 -36.5t-29.5 -90.5h903l363 -682l364 682h640
l-667 -1058h-674l-471 747h-458v-747h-558v747h-592v-747z" />
    <glyph glyph-name="uniE01A" unicode="ttv" horiz-adv-x="4584" 
d="M2258 -32q-72 -2 -182 -2h-10q-134 -3 -237.5 13t-163.5 88t-60 246v434h-592v-349q0 -114 122 -113q49 2 78 3t64 2q23 1 55 2v-315q-31 -2 -58 -3q-94 -4 -166.5 -6t-182.5 -2h-9q-134 -3 -238 13t-164 88t-60 246v434h-304v311h304v280h559v-280h592v346h558v-346h902
l364 -682l363 682h642l-668 -1058h-674l-471 747h-458v-349q0 -114 122 -113q50 2 78.5 3t64.5 2q22 1 54 2v-315q-31 -2 -58 -3q-94 -4 -166 -6z" />
    <glyph glyph-name="uniE01B" unicode="ftv" horiz-adv-x="4584" 
d="M1014 1058h591v346h559v-346h902l364 -682l363 682h641l-668 -1058h-673l-472 747h-457v-349q0 -114 122 -113q49 2 78 3t65 2q22 1 54 2v-315q-31 -2 -58 -3q-94 -4 -166.5 -6t-181.5 -2h-10q-134 -3 -238 13t-164 88t-60 246v434h-591v-747h-559v747h-305v311h305v78
q0 181 162 232q63 21 195 25.5t274 0.5t235 -8h12v-244h-165q-96 0 -125 -15t-29 -69z" />
    <glyph glyph-name="uniE01C" unicode="fw" horiz-adv-x="4269" 
d="M1332 1428v-243h-165q-96 0 -125.5 -36.5t-29.5 -90.5h910l278 -639l277 639h472l277 -639l278 639h615l-553 -1058h-602l-251 580l-250 -580h-602l-391 747h-458v-747h-558v747h-304v311h304v120q0 181 163 233q62 21 194 25.5t274 0.5t235 -8q6 0 12 -1z" />
    <glyph glyph-name="uniE01D" unicode="tw" horiz-adv-x="4269" 
d="M1274 -26q-95 -4 -167 -6t-182 -2h-9q-134 -3 -238 13t-164 88t-60 246v434h-304v311h304v346h559v-346h910l277 -639l277 639h473l277 -639l277 639h615l-553 -1058h-602l-251 580l-250 -580h-602l-391 747h-457v-349q0 -114 121 -113q49 2 77.5 3t61.5 2q24 1 59 2
v-315q-31 -2 -58 -3z" />
    <glyph glyph-name="uniE01E" unicode="ffw" horiz-adv-x="5420" 
d="M1042 1127q-29 -15 -29 -69h591v120q0 181 163 233q62 21 194 25.5t274.5 0.5t235.5 -8q6 0 11 -1v-243h-165q-95 0 -124.5 -36.5t-29.5 -90.5h910l278 -639l276 639h473l277 -639l278 639h614l-553 -1058h-601l-252 580l-250 -580h-602l-391 747h-457v-747h-559v747
h-591v-747h-559v747h-304v311h304v78q0 181 163 232q62 21 194 25.5t274.5 0.5t235.5 -8h11v-244h-166q-95 0 -124 -15z" />
    <glyph glyph-name="uniE01F" unicode="ttw" horiz-adv-x="5419" 
d="M1278 290q22 1 54 2v-315q-31 -2 -58 -3q-94 -4 -166.5 -6t-182.5 -2h-10q-133 -3 -237 13t-164 88t-60 246v434h-304v311h304v280h559v-280h592v346h558v-346h910l278 -639l276 639h473l277 -639l278 639h614l-553 -1058h-601l-252 580l-250 -580h-602l-391 747h-457
v-349q0 -114 122 -113q50 2 78.5 3t64.5 2q22 1 54 2v-315q-30 -2 -57 -3q-95 -4 -167 -6t-183 -2h-9q-134 -3 -237.5 13t-163.5 88t-60 246v434h-592v-349q0 -114 122 -113q49 2 78 3t65 2z" />
    <glyph glyph-name="uniE020" unicode="ftw" horiz-adv-x="5420" 
d="M1605 313v434h-592v-747h-558v747h-305v311h305v78q0 181 162 232q62 21 194 25.5t274.5 0.5t235.5 -8h11v-244h-165q-95 0 -124.5 -15t-29.5 -69h592v346h559v-346h909l278 -639l277 639h472l277 -639l278 639h615l-554 -1058h-601l-251 580l-251 -580h-601l-391 747
h-457v-349q0 -114 121 -113q50 2 79 3t64 2q22 1 55 2v-315q-31 -2 -58 -3q-94 -4 -166.5 -6t-182.5 -2h-9q-134 -3 -238 13t-164 88t-60 246z" />
    <glyph glyph-name="uniE021" unicode="fy" horiz-adv-x="3368" 
d="M1772 -104q17 4 37.5 16t38.5 42l79 113l-456 680h-458v-747h-558v747h-305v311h305v120q0 181 163 233q62 21 194 25.5t274 0.5t235 -8q6 0 11 -1v-243h-164q-96 0 -125.5 -36.5t-29.5 -90.5h846l381 -628l382 628h596l-819 -1261q-63 -93 -177.5 -132t-262.5 -43
q-96 -4 -206.5 -1t-198.5 7q-23 1 -42 2v254h136q29 0 62.5 1.5t59.5 9.5q1 0 2 1z" />
    <glyph glyph-name="uniE022" unicode="ty" horiz-adv-x="3367" 
d="M679 -21q-104 16 -164 88t-60 246v434h-305v311h305v346h558v-346h846l381 -628l382 628h596l-819 -1261q-63 -93 -177.5 -132t-261.5 -43q-97 -4 -207.5 -1t-198.5 7q-23 1 -42 2v254h136q29 0 62.5 1.5t58.5 9.5h3q16 5 37 17t39 42l79 113l-456 680h-458v-349
q0 -114 122 -113q50 2 79 3t64 2q22 1 55 2v-315q-31 -2 -58 -3q-95 -4 -167 -6t-182 -2h-10q-134 -3 -237 13z" />
    <glyph glyph-name="uniE023" unicode="ffy" horiz-adv-x="4518" 
d="M1605 0v747h-592v-747h-559v747h-304v311h304v78q0 181 162 232q63 21 195 25.5t274 0.5t235 -8h12v-244h-165q-96 0 -125 -15t-29 -69h592v120q0 181 162 233q62 21 194 25.5t274.5 0.5t235.5 -8q6 0 11 -1v-243h-165q-95 0 -124.5 -36.5t-29.5 -90.5h845l382 -628
l382 628h596l-820 -1261q-63 -93 -177 -132t-262 -43q-96 -4 -206.5 -1t-198.5 7q-23 1 -43 2v254h137q29 0 62 1.5t59 9.5h2q17 5 38 17t39 42l78 113l-456 680h-457v-747h-558z" />
    <glyph glyph-name="uniE024" unicode="tty" horiz-adv-x="4517" 
d="M1277 290q22 1 55 2v-315q-31 -2 -58 -3q-94 -4 -166.5 -6t-182.5 -2h-9q-134 -3 -238 13t-164 88t-60 246v434h-304v311h304v280h559v-280h592v346h558v-346h845l382 -628l382 628h596l-820 -1261q-63 -93 -177 -132t-262 -43q-96 -4 -207 -1t-198 7q-23 1 -42 2v254
h136q29 0 62.5 1.5t58.5 9.5q2 0 3 1q16 4 37 16t39 42l78 113l-455 680h-458v-349q0 -114 122 -113q49 2 78 3t65 2q22 1 54 2v-315q-31 -2 -58 -3q-94 -4 -166 -6t-182 -2h-10q-134 -3 -237.5 13t-163.5 88t-60 246v434h-592v-349q0 -114 121 -113q50 2 79 3t64 2z" />
    <glyph glyph-name="uniE025" unicode="fty" horiz-adv-x="4518" 
d="M2164 1404v-346h845l382 -628l381 628h596l-819 -1261q-63 -93 -177.5 -132t-261.5 -43q-96 -4 -206.5 -1t-198.5 7q-23 1 -43 2v254h136q29 0 62.5 1.5t59.5 9.5h2q16 5 37 17t40 42l78 113l-456 680h-457v-349q0 -114 122 -113q49 2 78 3t65 2q22 1 54 2v-315
q-31 -2 -58 -3q-94 -4 -166.5 -6t-182.5 -2h-9q-134 -3 -238 13t-164 88t-60 246v434h-592v-747h-558v747h-305v311h305v78q0 181 162 232q63 21 195 25.5t274 0.5t235 -8h12v-244h-165q-96 0 -125.5 -15t-29.5 -69h592v346h559z" />
    <glyph glyph-name=".notdef" horiz-adv-x="1024" 
 />
    <glyph glyph-name="uni0000" horiz-adv-x="0" 
 />
    <glyph glyph-name="uni0000" horiz-adv-x="0" 
 />
    <glyph glyph-name="nonmarkingreturn" horiz-adv-x="508" 
 />
    <glyph glyph-name="space" unicode=" " horiz-adv-x="1000" 
 />
    <glyph glyph-name="space" unicode="&#xa0;" horiz-adv-x="1000" 
 />
    <glyph glyph-name="exclam" unicode="!" horiz-adv-x="873" 
d="M212 520l-62 860h573l-62 -860h-449zM696 422v-422h-518v422h518z" />
    <glyph glyph-name="quotedbl" unicode="&#x22;" horiz-adv-x="1287" 
d="M748 1378h389v-850h-389v850zM539 1378v-850h-389v850h389z" />
    <glyph glyph-name="numbersign" unicode="#" horiz-adv-x="1809" 
d="M1139 0h-340l89 290h-199l-87 -290h-341l88 290h-199v269h281l68 224h-199v269h281l88 291h340l-88 -291h198l89 291h340l-89 -291h200v-269h-282l-67 -224h199v-269h-281zM771 559h199l67 224h-198z" />
    <glyph glyph-name="dollar" unicode="$" horiz-adv-x="2147" 
d="M805 919q98 -16 437 -44q254 -19 421.5 -51t250.5 -114t83 -262q0 -116 -50.5 -197.5t-126 -135t-153.5 -83.5q-220 -76 -472 -78v-243h-243v242q-176 0 -371.5 47t-335.5 197q-44 48 -69.5 103t-25.5 143h627q0 -71 82.5 -93.5t212.5 -22.5q141 0 237.5 15.5t96.5 69.5
q0 32 -44 44q-68 17 -467 48q-335 17 -510 74q-218 95 -218 326q0 171 116 275q214 194 669 199v243h243v-246q213 -13 391 -75q172 -67 259.5 -171.5t93.5 -185.5h-613q0 34 -88 48t-198 14q-126 0 -210.5 -6t-84.5 -39q0 -28 60 -41z" />
    <glyph glyph-name="percent" unicode="%" horiz-adv-x="2909" 
d="M875 1366q112 -14 195 -62q161 -107 161 -293q0 -188 -161 -294q-83 -48 -195 -61.5t-184 -13.5t-184 13.5t-196 61.5q-161 106 -161 294q0 186 161 293q84 48 196 62t184 14t184 -14zM1678 345q0 187 161 294q84 48 195.5 61.5t184.5 13.5q72 0 183.5 -13.5t195.5 -61.5
q161 -107 161 -294t-161 -293q-84 -48 -195.5 -62t-183.5 -14q-73 0 -184.5 14t-195.5 62q-161 106 -161 293zM2262 1380l-1342 -1428h-295l1343 1428h294zM1990 275q16 -35 49 -57q39 -23 93 -30t87 -7t87 7t92 30q33 22 50 56.5t17 70.5t-17 70.5t-50 56.5
q-38 23 -92 30.5t-87 7.5t-87 -7.5t-93 -30.5q-33 -22 -49.5 -56.5t-16.5 -70.5t17 -70zM870 884q33 22 50 56.5t17 70.5q0 35 -17 69.5t-50 57.5q-39 22 -93 29.5t-86 7.5q-33 0 -87 -7.5t-92 -29.5q-34 -23 -51 -57.5t-17 -69.5q0 -36 17 -70.5t51 -56.5q38 -23 92 -30.5
t87 -7.5q32 0 86 7.5t93 30.5z" />
    <glyph glyph-name="ampersand" unicode="&#x26;" horiz-adv-x="2734" 
d="M2074 337l510 -338h-862l-120 83q-136 -60 -309 -95t-375 -35q-121 0 -254.5 15t-248.5 60t-187.5 132t-77.5 229q0 112 44.5 188t111 123.5t134 72.5t112.5 36q-28 18 -64 49t-65 75t-34 101q-5 123 64 201t185 120.5t251 58.5t262 15q126 0 256 -16.5t241.5 -57.5
t182.5 -113.5t81 -183.5q7 -143 -86.5 -236t-273.5 -138l177 -118q196 135 324 269l340 -225q-148 -158 -319 -272zM802 354q21 -34 69 -53.5t123 -19.5q79 0 145 13t111 31l-334 232q-36 -8 -79.5 -35t-52.5 -91q-4 -43 18 -77zM1249 980q35 25 35 68q0 27 -33.5 45
t-99.5 18q-67 0 -104 -17t-37 -37q0 -17 31 -39.5t105 -66.5l12 -8q55 11 91 37z" />
    <glyph glyph-name="quotesingle" unicode="'" horiz-adv-x="689" 
d="M150 1378h389v-850h-389v850z" />
    <glyph glyph-name="parenleft" unicode="(" horiz-adv-x="1038" 
d="M150 500q0 295 86 479.5t267 400.5h385q-90 -233 -135 -429t-45 -451q0 -256 45 -452t135 -428h-385q-181 216 -267 400.5t-86 479.5z" />
    <glyph glyph-name="parenright" unicode=")" horiz-adv-x="1037" 
d="M150 -380q89 232 134 428t45 452q0 255 -45 451t-134 429h385q180 -216 266 -400.5t86 -479.5t-86 -479.5t-266 -400.5h-385z" />
    <glyph glyph-name="asterisk" unicode="*" horiz-adv-x="1283" 
d="M773 1142l-19 -74l65 41l219 94l95 -292l-233 -52l-76 -5l59 -49l157 -180l-248 -180l-123 205l-28 71l-28 -71l-122 -205l-248 180l158 180l58 49l-76 5l-233 52l95 292l219 -94l65 -41l-19 74l-22 238h306z" />
    <glyph glyph-name="plus" unicode="+" horiz-adv-x="1306" 
d="M501 1006h304v-351h351v-304h-351v-351h-304v351h-351v304h351v351z" />
    <glyph glyph-name="comma" unicode="," horiz-adv-x="818" 
d="M150 422h518v-422q0 -137 -70.5 -225.5t-188 -131t-259.5 -42.5v140q137 11 186 71t49 188h-235v422z" />
    <glyph glyph-name="hyphen" unicode="-" horiz-adv-x="1139" 
d="M150 758h839v-376h-839v376z" />
    <glyph glyph-name="hyphen" unicode="&#xad;" horiz-adv-x="1139" 
d="M150 758h839v-376h-839v376z" />
    <glyph glyph-name="period" unicode="." horiz-adv-x="818" 
d="M668 422v-422h-518v422h518z" />
    <glyph glyph-name="slash" unicode="/" horiz-adv-x="1419" 
d="M150 -48l729 1476h390l-728 -1476h-391z" />
    <glyph glyph-name="zero" unicode="0" horiz-adv-x="2461" 
d="M1603 -22q-176 -26 -372 -26q-197 0 -373 26q-240 35 -386 124q-160 101 -241 251t-81 337t81 336.5t241 250.5q146 89 386 125q177 26 373 26q195 0 372 -26q240 -36 386 -125q160 -101 241 -250.5t81 -336.5t-81 -337t-241 -251q-146 -89 -386 -124zM1689 549
q34 69 34 141t-34 140q-60 123 -216 161q-113 27 -242 27q-44 0 -110 -5.5t-132.5 -21.5t-116.5 -47q-67 -45 -100.5 -113.5t-33.5 -140.5t33.5 -141t100.5 -113q50 -31 116.5 -47t132.5 -22t110 -6q128 0 242 28q156 38 216 160z" />
    <glyph glyph-name="one" unicode="1" horiz-adv-x="1488" 
d="M593 1199q215 54 252 181h493v-1381h-560v908h-628v248q267 0 443 44z" />
    <glyph glyph-name="two" unicode="2" horiz-adv-x="2425" 
d="M1580 929q19 18 19 39q0 9 -3 17q-18 75 -317 75q-148 0 -229 -17.5t-116.5 -54.5t-42.5 -92h-658q0 82 46.5 171t138.5 165q239 196 861 196q163 0 327 -16q281 -28 471 -128q77 -41 130 -104q68 -82 68 -213q0 -102 -56.5 -183.5t-200.5 -130.5q-119 -42 -300.5 -73
t-488.5 -67q-313 -36 -386 -101l-7 -8h1413v-404h-2099q36 200 59 288q28 104 83 192t158 159q214 146 705 200q202 22 299.5 43.5t125.5 46.5z" />
    <glyph glyph-name="three" unicode="3" horiz-adv-x="2460" 
d="M1578 950q0 45 -34 69t-108.5 33t-195.5 9q-110 0 -181 -7.5t-109 -26t-47 -52.5h-697q0 48 18 97q37 98 121 175q97 91 303 134q228 47 592 47q157 0 305 -10q319 -21 496 -106q195 -95 195 -280l-1 -11q-6 -119 -97 -198q-61 -53 -126 -80l11 -3q93 -18 168 -68
q115 -76 119 -236v-2q0 -296 -335 -404q-187 -60 -472 -72q-131 -6 -263 -6q-314 0 -513 28q-258 37 -398 135q-115 81 -162 236q-15 51 -17 107h699q-1 -6 -1 -13q0 -50 45.5 -77t132.5 -38t214 -11q126 0 213.5 11t132.5 38t45 77q0 34 -17 54.5t-60.5 31t-119.5 13.5
t-194 3h-348v313h348q94 0 159 2.5t104.5 11t57 27t17.5 49.5z" />
    <glyph glyph-name="four" unicode="4" horiz-adv-x="2418" 
d="M2111 1380v-771h157v-405h-157v-205h-559v205h-1402v472l1139 704h822zM1552 609v444l-706 -444h706z" />
    <glyph glyph-name="five" unicode="5" horiz-adv-x="2442" 
d="M1768 848q103 -17 196.5 -46.5t167.5 -75t117 -111.5t43 -156q0 -67 -31.5 -134t-83.5 -120q-90 -89 -212 -141t-257 -76t-263.5 -30t-225.5 -6q-98 0 -226 6t-263 30t-257.5 76t-211.5 141q-52 54 -81.5 121.5t-29.5 115.5h672q8 -76 108.5 -100t288.5 -23
q199 0 297.5 31t98.5 109q0 77 -98.5 108t-297.5 31q-123 0 -233.5 -15.5t-140.5 -46.5h-648l203 845h1773v-405h-1376l-34 -141q191 47 456 47q64 0 153.5 -1.5t191 -9t204.5 -23.5z" />
    <glyph glyph-name="six" unicode="6" horiz-adv-x="2431" 
d="M1065 -45q-229 5 -414 58q-104 31 -194 84q-307 194 -307 593q0 259 132 435q68 90 175 157q220 133 608 143q96 3 165 3q70 0 167 -2.5t205 -16t214 -43.5t195 -84q88 -55 140 -116t77.5 -118.5t31.5 -103.5h-667q-17 50 -83 75.5t-146 33t-134 7.5q-233 0 -341 -77
q-85 -59 -100 -177q96 44 208 63t282 19h24q88 0 198 -3q308 -10 509 -89q255 -101 271 -337v-21q0 -249 -248 -365q-208 -97 -543 -114q-143 -7 -260 -7q-69 0 -165 3zM1077 325q90 -6 168 -6q125 0 209 10q89 9 133.5 35.5t44.5 78.5q0 51 -44.5 77.5t-133.5 36t-224 9.5
q-134 0 -223 -10.5t-133.5 -37t-44.5 -75.5q0 -64 77 -91q81 -22 171 -27z" />
    <glyph glyph-name="seven" unicode="7" horiz-adv-x="2267" 
d="M553 263q58 125 169 242.5t292.5 233t452.5 236.5h-1317v405h1967v-491q-278 -139 -444.5 -264.5t-253 -237t-123 -207t-52.5 -172.5l-2 -9h-772q25 139 83 264z" />
    <glyph glyph-name="eight" unicode="8" horiz-adv-x="2441" 
d="M957 -43q-131 6 -251 23t-221.5 50t-177 86.5t-116.5 131.5t-41 186v2q4 159 119 236q74 50 168 68l11 3q-65 27 -127 80q-90 79 -97 198v10q0 95 50 165t145 115.5t221.5 71t274.5 35.5t305 10q158 0 306 -10q320 -21 496 -106q194 -95 194 -280v-11q-6 -119 -96 -198
q-63 -54 -128 -80l12 -3q93 -18 168 -68q115 -77 119 -236v-2q0 -296 -335 -404q-187 -60 -472 -72q-131 -6 -264 -6q-132 0 -263 5zM855 501q-26 -23 -26 -64q0 -40 25.5 -63.5t75.5 -35.5t123 -15.5t168 -3.5q94 0 167 3.5t123 15.5t75.5 35.5t25.5 63.5q0 41 -25.5 64
t-75.5 34t-123 14t-167 3q-95 0 -168 -3t-123 -14t-75 -34zM881 952q0 -35 19 -54.5t59.5 -28.5t105 -11t156.5 -2q91 0 155.5 2t105 11t59 28.5t18.5 54.5q0 46 -33.5 69.5t-108 31.5t-196.5 8t-197 -8t-109 -31.5t-34 -69.5z" />
    <glyph glyph-name="nine" unicode="9" horiz-adv-x="2431" 
d="M829 -30q-108 13 -214 43.5t-195 83.5q-88 56 -140 116.5t-77.5 118.5t-31.5 104h668q17 -51 82.5 -76.5t145.5 -33t134 -7.5q231 0 341 78q85 58 100 177q-96 -45 -207.5 -64t-281.5 -19h-44q-81 0 -179 3q-308 10 -508 89q-257 101 -272 339v20q0 248 248 365
q206 97 542 114q144 7 261 7q69 0 165 -2.5t202.5 -16t211.5 -43.5t194 -84q107 -67 175 -157t100 -200t32 -235q0 -259 -132 -435q-68 -90 -175 -158q-222 -133 -608 -142q-96 -3 -165 -3q-70 0 -167 2.5t-205 15.5zM1558 861q44 27 44 76q0 64 -77 90q-81 22 -171 27.5
t-168 5.5q-125 0 -209 -10q-89 -9 -133 -35.5t-44 -77.5q0 -52 44 -78.5t130.5 -36t211.5 -9.5h29q125 0 209 10q89 11 134 38z" />
    <glyph glyph-name="colon" unicode=":" horiz-adv-x="818" 
d="M150 1057h518v-422h-518v422zM150 422h518v-422h-518v422z" />
    <glyph glyph-name="semicolon" unicode=";" horiz-adv-x="818" 
d="M668 422v-422q0 -137 -70.5 -225.5t-188 -131t-259.5 -42.5v140q137 11 186 71t49 188h-235v422h518zM668 635h-518v422h518v-422z" />
    <glyph glyph-name="semicolon" unicode="&#x37e;" horiz-adv-x="818" 
d="M668 422v-422q0 -137 -70.5 -225.5t-188 -131t-259.5 -42.5v140q137 11 186 71t49 188h-235v422h518zM668 635h-518v422h518v-422z" />
    <glyph glyph-name="less" unicode="&#x3c;" horiz-adv-x="885" 
d="M150 423v303l585 345v-304l-340 -192l340 -194v-303z" />
    <glyph glyph-name="equal" unicode="=" horiz-adv-x="1274" 
d="M150 107v304h974v-304h-974zM1124 867v-303h-974v303h974z" />
    <glyph glyph-name="greater" unicode="&#x3e;" horiz-adv-x="885" 
d="M150 767v304l585 -345v-303l-585 -345v303l340 194z" />
    <glyph glyph-name="question" unicode="?" horiz-adv-x="2008" 
d="M1261 569q-30 -15 -40.5 -26.5t-12.5 -22.5h-429q0 31 12 78t62.5 95.5t161.5 85.5q117 39 172 67.5t69 56t14 64.5q0 62 -47 88t-110 31.5t-109 5.5q-128 0 -197.5 -53t-69.5 -185h-587q0 177 71.5 292.5t193.5 176.5q199 105 589 105q195 0 356.5 -27t276.5 -83
q95 -49 142.5 -100t63 -108t15.5 -124q0 -107 -39.5 -164.5t-114 -91.5t-180.5 -66q-4 -1 -9 -3q-103 -33 -164 -55.5t-90 -36.5zM1263 0h-518v422h518v-422z" />
    <glyph glyph-name="at" unicode="@" horiz-adv-x="2069" 
d="M869 186q92 -5 166 -5q63 0 139.5 2.5t152.5 16.5t138 45h328q-45 -65 -113 -127q-93 -82 -209 -117t-228 -42.5t-192 -6.5h-32q-81 -1 -193 6.5t-228 42.5t-209 117q-94 86 -146 178t-72.5 190.5t-20.5 203.5t20.5 203t72.5 190.5t146 178.5q93 82 209.5 117t228.5 42.5
t193 6.5h30q80 1 192 -6.5t228.5 -42.5t209.5 -117q94 -86 146 -178.5t72.5 -190.5t20.5 -203q0 -175 -90.5 -273t-271.5 -101q-109 -3 -201.5 26t-132.5 107q-21 -39 -45 -59q-58 -46 -116 -60t-112 -14q-173 0 -279.5 100.5t-106.5 275.5q0 177 106.5 274.5t279.5 97.5
q54 0 112 -14t116 -60q14 -12 26 -28v79h258v-386q0 -54 13.5 -79t38 -32t59.5 -7q56 0 86.5 34t30.5 119q2 124 -34.5 220.5t-130.5 182.5q-59 52 -145 74.5t-178.5 27t-166.5 4.5t-166.5 -4.5t-179 -27t-145.5 -74.5q-94 -86 -129.5 -182t-35.5 -221t35.5 -221t129.5 -182
q59 -52 145.5 -74.5t179.5 -26.5zM865 589q31 -33 73 -42.5t73 -9.5q79 0 130 33t51 120q0 86 -51 119t-130 33q-31 0 -73 -9.5t-73 -42t-31 -100.5q0 -69 31 -101z" />
    <glyph glyph-name="A" unicode="A" horiz-adv-x="2685" 
d="M150 0l838 1381h710l837 -1381h-679l-93 177h-840l-94 -177h-679zM1550 582l-207 393l-207 -393h414z" />
    <glyph glyph-name="B" unicode="B" horiz-adv-x="2425" 
d="M1718 0h-1568v1380h1505q161 0 280 -24.5t185 -95t66 -212.5q0 -82 -34 -154t-131 -121q251 -69 254 -336v-18q0 -179 -113 -288q-137 -131 -444 -131zM1670 478q0 13 -5 30.5t-29.5 30.5t-84.5 13h-842v-147h842q60 0 84.5 13t29.5 30t5 30zM709 856h791q48 0 68.5 10.5
t24.5 24.5t4 25q0 10 -4 24q-10 36 -93 36h-791v-120z" />
    <glyph glyph-name="C" unicode="C" horiz-adv-x="2602" 
d="M1424 1015q-82 4 -118 4q-331 0 -454 -81q-43 -30 -66 -74q-40 -76 -40 -174q0 -37 8.5 -83.5t31.5 -90t66 -74.5q57 -38 149.5 -55t180.5 -21t124 -4q310 0 432 80q63 48 86 119h628q-45 -303 -319 -463q-225 -125 -582 -140q-145 -6 -245 -6t-246 6q-356 15 -582 140
q-328 193 -328 592t328 592q226 125 582 140q146 6 246 6t245 -6q357 -15 582 -140q274 -160 319 -463h-628q-23 72 -86 119q-57 38 -144.5 55t-169.5 22z" />
    <glyph glyph-name="D" unicode="D" horiz-adv-x="2414" 
d="M1495 0l-2 -5l-1343 5v1380h1345q153 0 300 -49.5t239 -133.5q230 -213 230 -507t-230 -507q-92 -84 -239 -133.5t-300 -49.5zM1704 690q0 151 -92 218q-70 50 -162 50h-741v-536h741q92 0 162 51q92 67 92 217z" />
    <glyph glyph-name="E" unicode="E" horiz-adv-x="2266" 
d="M709 405h1407v-405h-1966v1380h1950v-404h-1391v-130h1315v-304h-1315v-137z" />
    <glyph glyph-name="F" unicode="F" horiz-adv-x="2266" 
d="M150 1380h1966v-422h-1407v-241h1315v-405h-1315v-312h-559v1380z" />
    <glyph glyph-name="G" unicode="G" horiz-adv-x="2560" 
d="M1851 1385q153 -31 282 -103q118 -71 187 -173t82 -192h-659q-37 58 -191 83q-108 19 -246 19q-331 0 -455 -81q-42 -30 -65 -74q-40 -76 -40 -174q0 -37 8.5 -83.5t31.5 -90t65 -74.5q58 -38 150.5 -55t180.5 -21t124 -4q396 0 493 116h-362v304h973v-782h-358l-62 164
q-165 -126 -383 -177q-152 -35 -301 -35q-100 0 -246 6q-356 15 -582 140q-328 193 -328 592t328 592q226 125 582 140q146 6 246 6q99 0 245 -6t300 -37z" />
    <glyph glyph-name="H" unicode="H" horiz-adv-x="2358" 
d="M1649 905v475h559v-1380h-559v483h-940v-483h-559v1380h559v-475h940z" />
    <glyph glyph-name="I" unicode="I" horiz-adv-x="859" 
d="M150 1380h559v-1380h-559v1380z" />
    <glyph glyph-name="J" unicode="J" horiz-adv-x="2139" 
d="M1599 6q-117 -33 -252 -43.5t-278 -10.5q-142 0 -277 10.5t-251.5 43.5t-204 99.5t-137 177t-49.5 277.5h603q0 -140 97 -187q72 -35 230 -35q71 0 134.5 8t112 36t76 85t28.5 153v760h558v-820q0 -167 -49.5 -277.5t-137 -177t-203.5 -99.5z" />
    <glyph glyph-name="K" unicode="K" horiz-adv-x="2587" 
d="M709 234v-234h-559v1380h559v-564l768 564h903l-891 -611l948 -769h-883l-514 461z" />
    <glyph glyph-name="L" unicode="L" horiz-adv-x="2181" 
d="M709 422h1322v-422h-1881v1380h559v-958z" />
    <glyph glyph-name="M" unicode="M" horiz-adv-x="2741" 
d="M736 764l-27 76v-840h-559v1380h799l422 -857l422 857h798v-1380h-559v840l-27 -76l-377 -764h-516z" />
    <glyph glyph-name="N" unicode="N" horiz-adv-x="2358" 
d="M841 1380l808 -814v814h559v-1380h-692l-807 815v-815h-559v1380h691z" />
    <glyph glyph-name="O" unicode="O" horiz-adv-x="2612" 
d="M1551 1422q357 -15 582 -140q329 -193 329 -592t-329 -592q-225 -125 -582 -140q-145 -6 -245 -6q-99 0 -245 6q-357 15 -582 140q-329 193 -329 592t329 592q225 125 582 140q146 6 245 6q100 0 245 -6zM1306 1019q-330 0 -454 -81q-43 -30 -66 -74q-40 -76 -40 -174
q0 -37 8.5 -83.5t31.5 -90t66 -74.5q57 -38 149.5 -55t180.5 -21t124 -4q331 0 455 80q42 31 65 74q40 76 40 174q0 37 -8.5 83.5t-31.5 90.5t-65 74q-58 38 -150.5 55t-180.5 21.5t-124 4.5z" />
    <glyph glyph-name="P" unicode="P" horiz-adv-x="2347" 
d="M2197 838q0 -112 -23 -197q-39 -143 -162 -233q-153 -113 -441 -113h-862v-295h-559v1380h1421q288 0 441 -113q123 -90 162 -233q23 -85 23 -196zM709 717h733q130 0 171 44q24 27 24 77q0 49 -24 76q-41 44 -171 44h-733v-241z" />
    <glyph glyph-name="Q" unicode="Q" horiz-adv-x="2612" 
d="M1551 1422q357 -15 582 -140q329 -193 329 -592q0 -365 -277 -559l271 -271h-573l-119 120q-183 -28 -458 -28q-100 0 -246 6q-356 15 -582 140q-328 193 -328 592t328 592q226 125 582 140q146 6 246 6t245 -6zM1430 1015q-88 4 -124 4q-330 0 -455 -81q-42 -30 -65 -74
q-40 -76 -40 -174q0 -37 8.5 -83.5t31.5 -90t65 -74.5q58 -38 150.5 -55t180.5 -21t124 -4l74 1l-256 256h572l120 -119q49 80 49 190q0 37 -8.5 83.5t-31.5 90.5t-65 74q-58 38 -150 55t-180 22z" />
    <glyph glyph-name="R" unicode="R" horiz-adv-x="2427" 
d="M2185 1088q15 -70 15 -127q0 -239 -225 -346q195 -78 201 -259t32.5 -254.5t68.5 -101.5h-642q-29 24 -36.5 68t-7.5 95.5t-8 100.5q-12 71 -71 89t-170 18h-633v-371h-559v1380h1487q343 0 474 -154q58 -69 74 -138zM1613 939q-41 37 -170 37h-734v-200h734
q78 0 120.5 17.5t58 41t15.5 41.5q0 41 -24 63z" />
    <glyph glyph-name="S" unicode="S" horiz-adv-x="2470" 
d="M868 1412q164 16 328 16q163 0 319.5 -19t297.5 -63q201 -70 297.5 -178t102.5 -192h-659q0 42 -105 63.5t-253 21.5q-149 0 -233.5 -14t-84.5 -54t85 -46q186 -19 383 -33q291 -19 530 -52q149 -22 247.5 -65t147.5 -122t49 -211q0 -90 -35 -159.5t-92 -121.5
t-125 -88.5t-136 -60.5q-157 -53 -349.5 -67.5t-349.5 -14.5q-99 0 -229 6t-266.5 30t-260.5 75.5t-215 141.5q-52 50 -82 106.5t-30 146.5h659q0 -78 109 -108.5t315 -30.5q149 0 235 13t122 35t36 47q0 42 -77.5 59.5t-302.5 32.5q-6 1 -12 1q-266 20 -468 41.5t-310 56.5
q-286 102 -254 384q20 141 123 231t237 131q142 44 306 61z" />
    <glyph glyph-name="T" unicode="T" horiz-adv-x="2383" 
d="M150 958v422h2083v-422h-762v-958h-559v958h-762z" />
    <glyph glyph-name="U" unicode="U" horiz-adv-x="2358" 
d="M1746 6q-213 -54 -567 -54q-143 0 -289 10q-327 23 -515 143q-225 145 -225 455v820h559v-759q0 -200 221 -243q86 -16 249 -16q57 0 122 2.5t126.5 14t111.5 39t80 76.5t30 126v760h559v-820q0 -439 -462 -554z" />
    <glyph glyph-name="V" unicode="V" horiz-adv-x="2685" 
d="M1343 405l513 975h679l-837 -1380h-710l-838 1380h679z" />
    <glyph glyph-name="W" unicode="W" horiz-adv-x="3224" 
d="M1612 789l-233 -789h-669l-560 1380h609l309 -886l271 886h546l271 -886l308 886h610l-561 -1380h-669z" />
    <glyph glyph-name="X" unicode="X" horiz-adv-x="2729" 
d="M1723 1380h792l-770 -663l834 -717h-836l-378 359l-379 -359h-836l834 717l-769 663h791l359 -334z" />
    <glyph glyph-name="Y" unicode="Y" horiz-adv-x="2844" 
d="M1143 0v448l-993 932h762l510 -506l510 506h762l-993 -932v-448h-558z" />
    <glyph glyph-name="Z" unicode="Z" horiz-adv-x="2313" 
d="M150 422l1053 536h-1033v422h1967v-422l-1053 -536h1079v-422h-2013v422z" />
    <glyph glyph-name="bracketleft" unicode="[" horiz-adv-x="1276" 
d="M150 -380v1760h976v-309h-417v-1143h417v-308h-976z" />
    <glyph glyph-name="backslash" unicode="\" horiz-adv-x="1420" 
d="M150 1428h391l729 -1476h-391z" />
    <glyph glyph-name="bracketright" unicode="]" horiz-adv-x="1275" 
d="M567 -72v1143h-417v309h975v-1760h-975v308h417z" />
    <glyph glyph-name="asciicircum" unicode="^" horiz-adv-x="1467" 
d="M465 610h-315l414 744h339l414 -744h-315l-268 482z" />
    <glyph glyph-name="underscore" unicode="_" horiz-adv-x="1594" 
d="M1444 -130v-111h-1294v111h1294z" />
    <glyph glyph-name="grave" unicode="`" horiz-adv-x="1185" 
d="M788 1456l247 -276h-511l-374 276h638z" />
    <glyph glyph-name="a" unicode="a" horiz-adv-x="2247" 
d="M1209 6q-173 -41 -359 -41q-118 0 -224 6t-193 23.5t-150.5 53t-98 93.5t-34.5 144q0 94 37 150.5t110 88t179.5 47t265.5 26.5q360 26 509 45q214 28 214 71q0 59 -266 63h-80q-61 0 -126 -3q-154 -8 -174 -60h-587q9 69 61 131.5t133 111.5q224 136 688 136
q249 0 432 -25q512 -69 512 -354v-594q0 -38 12.5 -70.5t26.5 -48.5h-574q-23 39 -23 88v38q-118 -79 -291 -120zM1500 457q-46 -26 -434 -58q-235 -19 -276 -37q-38 -16 -38 -47q0 -25 24 -38q44 -23 139 -23h14q253 0 418 58q153 55 153 145z" />
    <glyph glyph-name="b" unicode="b" horiz-adv-x="2264" 
d="M1100 1084q88 8 171 8q82 0 175 -5q212 -11 396 -107q272 -147 272 -452q0 -304 -272 -451q-184 -97 -396 -107q-93 -5 -175 -5q-83 0 -171 8t-178 32.5t-180 71.5q-33 17 -60 42v-119h-532v1427h558v-468q17 12 34 21q90 47 180 71t178 33zM1514 425q28 41 28 103
q0 114 -103 171q-109 59 -308 59q-123 0 -218.5 -21t-150 -71.5t-54.5 -137.5t54.5 -137t150 -71t218.5 -21q296 0 383 126z" />
    <glyph glyph-name="c" unicode="c" horiz-adv-x="2243" 
d="M1424 326q63 29 83 93h586q-8 -103 -71.5 -192t-178.5 -150q-107 -55 -240 -79t-260.5 -28.5t-209.5 -4.5q-83 0 -210 5q-314 11 -501 107q-272 147 -272 451q0 305 272 452q187 95 501 107q127 5 210 5q82 0 209.5 -5t260.5 -28.5t240 -78.5q115 -62 178.5 -151
t71.5 -191h-586q-20 64 -83.5 93.5t-144 37t-146.5 7.5q-147 0 -223 -17q-189 -41 -189 -231q0 -73 25.5 -119.5t68 -73t95.5 -38t111 -14t112 -2.5q66 0 146.5 7.5t144.5 37.5z" />
    <glyph glyph-name="d" unicode="d" horiz-adv-x="2264" 
d="M1343 6q-91 -25 -179.5 -33t-170.5 -8t-175 5q-212 10 -396 107q-272 147 -272 451q0 305 272 452q184 96 396 107q93 5 175 5t170.5 -8.5t179 -32.5t179.5 -71q18 -9 33 -21v468h559v-1427h-532v119q-27 -25 -60 -42q-89 -47 -179 -71zM1352 737q-96 21 -219 21
q-200 0 -308 -59q-104 -57 -104 -171q0 -62 29 -103q87 -126 383 -126q123 0 218.5 21t149.5 71t54 137t-54 137.5t-149 71.5z" />
    <glyph glyph-name="e" unicode="e" horiz-adv-x="2267" 
d="M1605 -2q-134 -24 -261.5 -28.5t-210.5 -4.5q-82 0 -209 5q-315 11 -502 106q-272 147 -272 452q0 304 272 451q184 95 494 107q126 5 217 5q92 0 218 -5q460 -18 642 -216q99 -109 116 -280q8 -80 8 -169h-1375q31 -68 94.5 -101t143 -42.5t153.5 -9.5q78 0 173.5 15
t146.5 52h631q-59 -160 -239 -259q-107 -54 -240 -78zM1287 778q-79 10 -154 10q-74 0 -153 -10q-183 -21 -238 -143h783q-55 122 -238 143z" />
    <glyph glyph-name="f" unicode="f" horiz-adv-x="1565" 
d="M1167 1183q-64 0 -97 -16q-57 -29 -57 -110h402v-310h-402v-747h-559v747h-304v310h304v120q0 91 41 147.5t121 85.5q66 21 222 25q85 3 173 3q159 0 404 -11v-244h-248z" />
    <glyph glyph-name="g" unicode="g" horiz-adv-x="2264" 
d="M1164 1084q88 -8 178.5 -30.5t179.5 -66.5q33 -17 60 -39v109h532v-910q0 -126 -42 -223t-116 -151q-245 -173 -776 -173q-138 0 -320.5 14t-302.5 46q-144 43 -248.5 129t-119.5 190h629q14 -36 76.5 -52t132 -18.5t120.5 -2.5h64q49 0 101 2q64 3 119 17.5t89.5 48
t34.5 94.5v90q-15 -10 -33 -19q-89 -45 -179.5 -67.5t-179 -30.5t-170.5 -8t-174 5q-216 11 -397 101q-272 137 -272 424q0 286 272 424q185 91 397 100q92 4 174 4t171 -7zM1358 764q-71 13 -186 13l-142 -2q-129 -5 -209 -45q-99 -50 -99 -167q0 -163 200 -201
q74 -14 211 -14h39q37 0 85 2t102 12t98.5 32.5t71 63t26.5 105.5q0 64 -27 105q-49 73 -170 96z" />
    <glyph glyph-name="h" unicode="h" horiz-adv-x="2158" 
d="M1837 982q78 -48 124.5 -128.5t46.5 -201.5v-652h-559v571q0 80 -73 139q-50 36 -124 43q-60 5 -106 5q-160 0 -251 -25q-186 -51 -186 -205v-528h-559v1427h559v-470q109 65 266 99.5t272 34.5q100 0 207 -6.5t205.5 -30.5t177.5 -72z" />
    <glyph glyph-name="i" unicode="i" horiz-adv-x="858" 
d="M150 0v1057h558v-1057h-558zM708 1427v-271h-558v271h558z" />
    <glyph glyph-name="j" unicode="j" horiz-adv-x="1138" 
d="M514 -380h-89q-126 0 -275 9v255h125q117 0 141 54q12 26 12 62v1057h560v-1057q0 -176 -74 -259q-54 -59 -155 -95q-87 -26 -245 -26zM987 1427v-271h-559v271h559z" />
    <glyph glyph-name="k" unicode="k" horiz-adv-x="2391" 
d="M708 238v-238h-558v1427h558v-735l518 365h967l-718 -397l766 -660h-857l-392 395z" />
    <glyph glyph-name="l" unicode="l" horiz-adv-x="858" 
d="M150 1427h558v-1427h-558v1427z" />
    <glyph glyph-name="m" unicode="m" horiz-adv-x="3149" 
d="M1099 755q-36 3 -66 3q-123 0 -194 -24.5t-101 -75.5t-30 -130v-528h-558v1057h532v-119q100 74 233.5 113.5t257.5 39.5q224 0 356 -31q177 -41 259 -159q18 20 39 37q100 74 234 113.5t257 39.5q101 0 199.5 -7t185 -31t153 -72t105 -128t38.5 -202v-651h-558v571
q0 51 -19.5 84.5t-46.5 54.5t-61 31t-70 13.5t-65 3.5q-123 0 -194 -24.5t-101 -75.5t-30 -130v-528h-558v571q0 51 -19.5 84.5t-47 54.5t-61.5 31t-69 14z" />
    <glyph glyph-name="n" unicode="n" horiz-adv-x="2157" 
d="M1836 982q78 -48 124.5 -128.5t46.5 -201.5v-652h-558v571q0 79 -73 139q-51 36 -125 43q-60 5 -106 5q-160 0 -251 -25q-186 -51 -186 -205v-528h-558v1057h532v-119q2 2 21 16l5 3q110 65 266.5 99.5t272.5 34.5q100 0 207 -6.5t205 -30.5t177 -72z" />
    <glyph glyph-name="o" unicode="o" horiz-adv-x="2266" 
d="M1133 -35q-83 0 -210 5q-314 11 -501 107q-272 147 -272 451t272 452q187 95 501 107q127 5 210 5q82 0 209 -5q315 -12 502 -107q272 -148 272 -452t-272 -451q-187 -96 -502 -107q-127 -5 -209 -5zM1519 409q25 46 25 119q0 190 -189 231q-75 17 -222 17
q-54 0 -111.5 -2.5t-111 -14t-96 -38t-68 -73t-25.5 -120.5q0 -190 189 -231q76 -16 223 -16q54 0 111.5 2.5t110.5 14t95.5 38t68.5 73.5z" />
    <glyph glyph-name="p" unicode="p" horiz-adv-x="2264" 
d="M922 6q-90 24 -180 71q-18 8 -33 21v-479h-559v1438h532v-119q27 24 60 42q90 47 180 71t178.5 32.5t170.5 8.5t175 -5q212 -11 396 -107q272 -147 272 -452q0 -304 -272 -451q-184 -97 -396 -107q-93 -5 -175 -5t-170.5 8t-178.5 33zM1132 758q-124 0 -219 -21
t-149.5 -71.5t-54.5 -137.5t54.5 -137t149.5 -71t219 -21q198 0 307 59q104 57 104 170q0 62 -29 104q-87 126 -382 126z" />
    <glyph glyph-name="q" unicode="q" horiz-adv-x="2264" 
d="M1343 6q-91 -25 -179.5 -33t-170.5 -8t-175 5q-212 10 -396 107q-272 147 -272 451q0 305 272 452q184 96 396 107q93 5 175 5t170.5 -8.5t179 -32.5t179.5 -71q33 -18 60 -42v119h532v-1438h-559v479q-15 -13 -33 -21q-89 -47 -179 -71zM1351 737q-95 21 -218 21
q-296 0 -383 -126q-29 -42 -29 -104q0 -113 104 -170q108 -59 308 -59q123 0 218 21t149.5 71t54.5 137t-54.5 137.5t-149.5 71.5z" />
    <glyph glyph-name="r" unicode="r" horiz-adv-x="1595" 
d="M709 0h-559v1057h532v-184q123 127 337 185q129 34 253 34q95 0 173 -5v-391q-161 16 -362 16q-181 0 -264 -33q-110 -46 -110 -179v-500z" />
    <glyph glyph-name="s" unicode="s" horiz-adv-x="2147" 
d="M1040 1091q326 0 547 -62q171 -54 258.5 -136t94.5 -146h-613q0 17 -41.5 28t-107 16t-138.5 5q-84 0 -151 -1.5t-105.5 -9.5t-38.5 -25q0 -23 60 -32q97 -13 436 -35q191 -12 333 -27.5t236.5 -47.5t140.5 -94t46 -168q0 -126 -107 -214q-88 -72 -223 -115
q-160 -48 -400 -58q-106 -4 -195 -4q-84 0 -193 3.5t-224.5 21t-222 57.5t-187.5 111q-44 38 -69.5 81.5t-25.5 111.5h627q0 -36 37.5 -55.5t104 -27t153.5 -7.5q94 0 170 4.5t120.5 19t44.5 43.5q0 24 -44 35q-73 13 -466 37q-165 9 -295.5 21.5t-215.5 37.5
q-218 69 -218 261q0 97 60 163q91 100 266 150q209 58 546 58z" />
    <glyph glyph-name="t" unicode="t" horiz-adv-x="1565" 
d="M1393 -22q-294 -13 -467 -13h-32q-87 0 -166.5 6t-142 37t-96.5 102.5t-34 201.5v435h-305v310h305v345h558v-345h402v-310h-402v-350q0 -112 117 -112q37 0 285 9v-315z" />
    <glyph glyph-name="u" unicode="u" horiz-adv-x="2157" 
d="M1462 109l-13 -9q-109 -65 -266 -100t-272 -35q-101 0 -208 7q-239 16 -382 103q-171 105 -171 330v652h559v-572q0 -60 39 -106q57 -66 159 -75q56 -6 101 -6q164 0 255 25q186 51 186 205v529h558v-1057h-532v119q-4 -5 -13 -10z" />
    <glyph glyph-name="v" unicode="v" horiz-adv-x="2309" 
d="M1155 375l363 682h641l-667 -1057h-674l-668 1057h641z" />
    <glyph glyph-name="w" unicode="w" horiz-adv-x="3111" 
d="M1556 579l-251 -579h-601l-554 1057h615l278 -639l276 639h473l276 -639l278 639h615l-553 -1057h-602z" />
    <glyph glyph-name="x" unicode="x" horiz-adv-x="2391" 
d="M1466 1057h722l-564 -510l617 -547h-775l-270 304l-271 -304h-775l617 547l-563 510h721l271 -295z" />
    <glyph glyph-name="y" unicode="y" horiz-adv-x="2255" 
d="M1128 429l382 628h595l-819 -1261q-63 -93 -177.5 -132t-261.5 -44q-48 -1 -99 -1q-111 0 -305 8l-44 2v255q131 0 137 -1q85 0 121 11q1 0 2 1q49 13 77 58l78 113l-664 991h596z" />
    <glyph glyph-name="z" unicode="z" horiz-adv-x="1955" 
d="M150 300l786 414h-737v343h1593v-301l-785 -413h798v-343h-1655v300z" />
    <glyph glyph-name="braceleft" unicode="{" horiz-adv-x="1326" 
d="M891 265v-240q0 -49 34 -83t83 -34h168v-288h-535q-128 0 -218.5 90t-90.5 218v220q-3 208 -182 208v288q182 8 182 208v219q0 128 90.5 218.5t218.5 90.5h535v-288h-168q-49 0 -83 -34.5t-34 -83.5v-239q0 -83 -40 -133.5t-91 -73.5t-83 -23v-11q32 0 83 -23t91 -73.5
t40 -132.5z" />
    <glyph glyph-name="bar" unicode="|" horiz-adv-x="670" 
d="M150 1428h370v-1476h-370v1476z" />
    <glyph glyph-name="braceright" unicode="}" horiz-adv-x="1326" 
d="M650 505q-33 0 -83.5 23t-90.5 73.5t-40 133.5v239q0 49 -34.5 83.5t-83.5 34.5h-168v288h535q128 0 218.5 -90.5t90.5 -218.5v-219q0 -200 182 -208v-288q-179 0 -182 -208v-220q0 -128 -90.5 -218t-218.5 -90h-535v288h168q49 0 83.5 34t34.5 83v240q0 82 40 132.5
t90.5 73.5t83.5 23v11z" />
    <glyph glyph-name="asciitilde" unicode="~" horiz-adv-x="1481" 
d="M150 748q60 159 237 185t415 -100q136 -76 254 -61.5t177 162.5l98 -252q-61 -159 -238 -185.5t-414 100.5q-136 76 -254 61.5t-177 -163.5z" />
    <glyph glyph-name="exclamdown" unicode="&#xa1;" horiz-adv-x="873" 
d="M661 527l62 -860h-573l62 860h449zM177 625v422h518v-422h-518z" />
    <glyph glyph-name="cent" unicode="&#xa2;" horiz-adv-x="2243" 
d="M1255 -241h-244v207q-138 1 -299 23.5t-290 87.5q-142 77 -207 193t-65 258q0 143 65 259t207 193q129 65 290 87.5t299 23.5v207h244v-207q137 -1 298 -23.5t291 -87.5q230 -131 249 -342h-586q-20 64 -83.5 93.5t-144 37t-147.5 7.5q-89 0 -184.5 -11t-161 -62.5
t-65.5 -174.5q0 -122 65.5 -173.5t161 -62.5t184.5 -11q67 0 147.5 7.5t144 37t83.5 93.5h586q-19 -211 -249 -342q-130 -65 -291 -87.5t-298 -23.5v-207z" />
    <glyph glyph-name="sterling" unicode="&#xa3;" horiz-adv-x="2086" 
d="M724 1401q162 27 357 27q390 0 589 -105q122 -61 193.5 -176.5t71.5 -292.5h-588q0 132 -69.5 185t-196.5 53q-47 0 -109.5 -5.5t-109.5 -31.5t-47 -88q0 -35 13 -67t26 -58q8 -14 13 -25q0 -2 1 -3q3 -6 5 -13h401v-243h-438q-64 -90 -169 -152l7 -16q76 36 176 47.5
t189 -7.5q18 -5 37 -9q130 -42 309.5 -38.5t424.5 161.5l126 -443q-173 -79 -316.5 -113.5t-265.5 -34.5q-109 0 -222 21t-244 58q-120 38 -257.5 34t-316.5 -108l-152 346q11 11 23 24q42 42 86.5 100.5t63.5 129.5h-185v243h123q-18 37 -31.5 78t-13.5 88q0 54 14.5 117
t62.5 123.5t143 110.5q114 56 276 83z" />
    <glyph glyph-name="currency" unicode="&#xa4;" horiz-adv-x="1477" 
d="M739 150q-154 0 -281 80l-136 -136l-172 172l136 137q-79 125 -79 280q0 154 79 280l-136 136l172 172l136 -136q127 80 281 80t280 -80l136 136l172 -172l-136 -136q80 -126 80 -280q0 -155 -80 -280l136 -137l-172 -172l-136 136q-126 -80 -280 -80zM739 935
q-105 0 -178.5 -74t-73.5 -178t73.5 -178t178.5 -74q104 0 178 74t74 178t-74 178t-178 74z" />
    <glyph glyph-name="yen" unicode="&#xa5;" horiz-adv-x="2520" 
d="M1790 779h308v-244h-559v-130h559v-243h-559v-162h-558v162h-560v243h560v130h-560v244h309l-580 564h737l373 -564l373 564h737z" />
    <glyph glyph-name="brokenbar" unicode="&#xa6;" horiz-adv-x="672" 
d="M150 807v621h372v-621h-372zM522 573v-621h-372v621h372z" />
    <glyph glyph-name="section" unicode="&#xa7;" horiz-adv-x="2495" 
d="M1224 1428q154 0 300.5 -17t278.5 -56q188 -62 278.5 -157t96.5 -170h-617q0 37 -99 56t-238 19q-298 -1 -298 -58q0 -8 10 -18t40 -17q67 -14 361 -35q79 -6 152 -11q389 -18 588 -74q268 -93 237 -344q-27 -159 -170 -243q107 -73 107 -251q0 -105 -56 -179.5
t-138.5 -123t-168.5 -76.5q-148 -46 -328.5 -59t-327.5 -13q-124 0 -295 11.5t-335.5 59t-280.5 151.5q-49 45 -77 95t-28 130h655q0 -51 83.5 -87t277.5 -36q153 0 272.5 18t119.5 67q0 40 -69 52t-243 23q-32 2 -69 5q-180 13 -385.5 32t-323.5 37q-193 32 -288.5 120
t-95.5 226q0 97 31 159t77.5 98t96.5 53q-83 76 -63 226q19 124 116 203t222 116q133 39 287 53.5t307 14.5zM693 648q-15 -18 -15 -45q0 -52 58 -79.5t227 -42.5l74 -6q357 -33 714 -61q30 15 42 34.5t12 38.5q0 81 -278 105q-81 8 -160 15q-337 32 -641 66q-19 -8 -33 -25
z" />
    <glyph glyph-name="dieresis" unicode="&#xa8;" horiz-adv-x="1545" 
d="M1395 1438v-239h-518v239h518zM668 1438v-239h-518v239h518z" />
    <glyph glyph-name="copyright" unicode="&#xa9;" horiz-adv-x="1775" 
d="M366 168q-216 216 -216 522q0 305 216 521.5t522 216.5q305 0 521 -216.5t216 -521.5q0 -306 -216 -522t-521 -216q-306 0 -522 216zM1253 325q151 151 151 365t-151.5 365.5t-364.5 151.5q-215 0 -366.5 -151.5t-151.5 -365.5t151.5 -365.5t366.5 -151.5q213 0 365 152z
M708 962q81 30 177 30q126 0 230.5 -54.5t129.5 -194.5h-257q-25 81 -103 81q-59 0 -85.5 -37.5t-26.5 -96.5t26.5 -96.5t85.5 -37.5q78 0 103 81h257q-25 -140 -129.5 -194.5t-230.5 -54.5q-96 0 -177 30t-130 96.5t-49 175.5t49 175.5t130 96.5z" />
    <glyph glyph-name="ordfeminine" unicode="&#xaa;" horiz-adv-x="1647" 
d="M997 1375q474 -29 474 -257v-411q0 -48 26 -83h-397q-15 28 -15 62v25q-82 -54 -201.5 -82.5t-248.5 -28.5q-237 0 -345 36q-140 47 -140 186q0 86 45.5 128.5t134 60t216.5 25.5l20 2q130 9 242 19t182 24.5t70 36.5q0 44 -204 44q-64 0 -122 -3q-106 -5 -121 -41h-406
q11 72 83 131.5t172 89.5q147 41 355 41q88 0 180 -5zM828 808q77 6 151 33q106 37 106 100q-10 -6 -48 -12q-94 -17 -263 -29q-149 -12 -181 -25q-26 -13 -26 -33q0 -42 123 -42q60 0 128 8h10z" />
    <glyph glyph-name="guillemotleft" unicode="&#xab;" horiz-adv-x="1545" 
d="M1395 78l-586 345v303l586 345v-304l-341 -192l341 -194v-303zM395 575l340 -194v-303l-585 345v303l585 345v-304z" />
    <glyph glyph-name="logicalnot" unicode="&#xac;" horiz-adv-x="1536" 
d="M1082 585h-932v303h1236v-657h-304v354z" />
    <glyph glyph-name="registered" unicode="&#xae;" horiz-adv-x="1116" 
d="M847 684q-120 -120 -289 -120t-288.5 119.5t-119.5 288.5t119.5 288.5t288.5 119.5t288.5 -119.5t119.5 -288.5t-119 -288zM844 972q0 118 -83.5 202t-202.5 84q-118 0 -202 -84t-84 -202t84 -202t202 -84q119 0 202.5 84t83.5 202zM621 816q-7 5 -8.5 15t-1.5 21
q0 12 -2 23q-3 17 -17 21t-43 4h-27v-84h-127v312h226q57 0 85 -16.5t36 -40.5t6 -47q-2 -44 -50 -69q43 -17 45 -59q2 -41 7.5 -57.5t15.5 -22.5h-145zM522 1037v-46h55q27 0 35.5 8.5t8.5 14.5q0 4 -1.5 9.5t-11 9.5t-31.5 4h-55z" />
    <glyph glyph-name="macron" unicode="&#xaf;" horiz-adv-x="1545" 
d="M1395 1438v-239h-1245v239h1245z" />
    <glyph glyph-name="degree" unicode="&#xb0;" horiz-adv-x="1038" 
d="M837 1249q51 -69 51 -182t-51 -182t-135 -100.5t-183 -31.5q-100 0 -184 31.5t-134.5 100.5t-50.5 182t50.5 182t134.5 100t184 31q99 0 183 -31t135 -100zM667 1067q0 65 -43.5 97.5t-104.5 32.5t-105 -32.5t-44 -97.5q0 -66 44 -98.5t105 -32.5t104.5 32.5t43.5 98.5z
" />
    <glyph glyph-name="plusminus" unicode="&#xb1;" horiz-adv-x="1306" 
d="M805 503v-159h-304v159h-351v304h351v159h304v-159h351v-304h-351zM1156 0h-1006v304h1006v-304z" />
    <glyph glyph-name="twosuperior" unicode="&#xb2;" horiz-adv-x="1251" 
d="M648 1507q-98 0 -133 -18t-38 -55h-290q0 55 46 112.5t135 88.5q62 19 135 26.5t145 7.5t144.5 -7.5t135.5 -26.5q59 -17 104 -50t55 -95q14 -122 -112 -163q-53 -19 -133 -32.5t-216 -29.5q-132 -14 -170 -45q-2 -1 -3 -4h623v-178h-926q3 15 5 29q12 87 42 156
t119 116.5t277 69.5q89 10 132.5 19.5t55.5 20.5t7 25q-9 33 -140 33z" />
    <glyph glyph-name="threesuperior" unicode="&#xb3;" horiz-adv-x="1253" 
d="M478 1280v138h153q84 0 117 6t33 34q0 30 -34.5 39.5t-115.5 9.5q-72 0 -107.5 -8t-40.5 -30h-308q0 42 29.5 83.5t67.5 62.5q63 32 158 43t201 11q116 0 217.5 -13.5t162.5 -53t60 -113.5q-3 -39 -23 -64.5t-42.5 -39.5t-33.5 -19q2 0 5 -1q17 -3 46 -14.5t54 -39.5
t27 -80q-1 -72 -40.5 -115t-107.5 -64.5t-152.5 -28t-172.5 -6.5q-97 0 -190 8.5t-162.5 36.5t-101.5 85q-25 45 -27 94h308v-6q0 -33 45 -44.5t128 -11.5q84 0 128.5 11.5t44.5 44.5q0 30 -34.5 37.5t-138.5 7.5h-153z" />
    <glyph glyph-name="acute" unicode="&#xb4;" horiz-adv-x="1185" 
d="M150 1180l247 276h638l-374 -276h-511z" />
    <glyph glyph-name="mu" unicode="&#xb5;" horiz-adv-x="2157" 
d="M1476 0v119q-89 -68 -190.5 -111t-213.5 -43q-117 0 -211 20t-153 93v-458h-558v1437h558v-571q0 -51 23.5 -85.5t49.5 -53.5q51 -36 125 -43t127 -5h17q185 0 292 55.5t107 173.5v529h558v-1057h-531z" />
    <glyph glyph-name="paragraph" unicode="&#xb6;" horiz-adv-x="1617" 
d="M619 1380h848v-1779h-330v1549h-187v-1549h-331v983q-127 0 -233.5 33.5t-171 119.5t-64.5 245t64.5 245t171 119.5t233.5 33.5z" />
    <glyph glyph-name="periodcentered" unicode="&#xb7;" horiz-adv-x="817" 
d="M150 901h517v-422h-517v422z" />
    <glyph glyph-name="periodcentered" unicode="&#x2219;" horiz-adv-x="817" 
d="M150 901h517v-422h-517v422z" />
    <glyph glyph-name="cedilla" unicode="&#xb8;" horiz-adv-x="958" 
d="M643 -419q-56 -13 -192.5 -10.5t-300.5 42.5l47 109q84 -17 150.5 -22t95.5 5q37 13 37 48t-32 46q-22 8 -62.5 6t-80.5 -12l-70 66l138 141h135l-97 -98q47 10 106.5 12.5t99.5 0.5q103 -4 147 -49t44 -118q0 -64 -51 -108.5t-114 -58.5z" />
    <glyph glyph-name="onesuperior" unicode="&#xb9;" horiz-adv-x="824" 
d="M457 1648q-31 -100 -307 -100v-109h278v-401h246v610h-217z" />
    <glyph glyph-name="ordmasculine" unicode="&#xba;" horiz-adv-x="1525" 
d="M1301 1217q74 -86 74 -227t-74 -227t-211.5 -124.5t-326.5 -38.5q-190 0 -327.5 38.5t-211.5 124.5t-74 227t74 226.5t211.5 124.5t327.5 39q189 0 326.5 -39t211.5 -124zM902 1141q-49 22 -139 22q-91 0 -140 -22t-67.5 -61.5t-18.5 -89.5q0 -51 18.5 -90t67.5 -61.5
t140 -22.5q90 0 139 22.5t67.5 61.5t18.5 90q0 50 -18.5 89.5t-67.5 61.5z" />
    <glyph glyph-name="guillemotright" unicode="&#xbb;" horiz-adv-x="1545" 
d="M150 381l341 194l-341 192v304l586 -345v-303l-586 -345v303zM810 767v304l585 -345v-303l-585 -345v303l340 194z" />
    <glyph glyph-name="onequarter" unicode="&#xbc;" horiz-adv-x="2410" 
d="M1902 0v102h-702v236l570 353h411v-386h79v-203h-79v-102h-279zM1623 1380h295l-1343 -1428h-295zM150 1120v123q313 0 348 113h246v-691h-279v455h-315zM1902 305v222l-353 -222h353z" />
    <glyph glyph-name="onehalf" unicode="&#xbd;" horiz-adv-x="2538" 
d="M1315 34q14 98 48 176t134.5 131.5t314.5 78.5q101 11 150 21.5t62.5 23t8.5 28.5q-11 38 -159 38q-111 0 -151 -20.5t-43 -62.5h-329q0 62 52 127.5t153 100.5q71 22 153.5 30t164.5 8q81 0 163.5 -8t153.5 -30q66 -19 117.5 -56.5t62.5 -107.5q17 -138 -127 -186
q-60 -20 -150.5 -35.5t-244.5 -33.5q-150 -16 -193 -51l-4 -4h707v-202h-1050zM1623 1380h294l-1342 -1428h-295zM464 665v455h-314v123q313 0 348 113h246v-691h-280z" />
    <glyph glyph-name="threequarters" unicode="&#xbe;" horiz-adv-x="2757" 
d="M573 1187q-40 -9 -46 -34h-349q0 48 33.5 95t76.5 70q72 36 179.5 49t227.5 13q131 0 246 -15.5t184 -59.5t68 -129q-3 -44 -25 -73t-48 -45t-39 -21q3 0 6 -1q18 -3 51.5 -16.5t61.5 -45t30 -90.5q-1 -108 -78.5 -160t-200.5 -67t-256 -15q-110 0 -215 9.5t-184 41
t-115 95.5q-29 52 -31 107h349v-7q0 -37 50.5 -50t145.5 -13t145.5 13t50.5 50q0 34 -39 42.5t-157 8.5h-174v157h174q95 0 132.5 7t37.5 38q0 33 -39 44t-131 11q-82 0 -122 -9zM1548 338l570 353h411v-386h79v-203h-79v-102h-280v102h-701v236zM1971 1380h296l-1343 -1428
h-296zM1896 305h353v222z" />
    <glyph glyph-name="questiondown" unicode="&#xbf;" horiz-adv-x="2008" 
d="M1004 -45q127 0 196.5 53t69.5 185h588q0 -177 -71.5 -293t-193.5 -176q-199 -104 -589 -104q-195 0 -357 26.5t-276 83.5q-95 48 -143 99t-63 108t-15 124q0 107 39 164.5t113 91t180 65.5q5 2 10 3q103 34 164 56.5t91 37t40 26t12 22.5h430q0 -32 -12.5 -78.5t-63 -95
t-161.5 -86.5q-117 -38 -171.5 -66.5t-68.5 -56t-14 -64.5q0 -62 47 -88t109.5 -31.5t109.5 -5.5zM1263 625h-518v422h518v-422z" />
    <glyph glyph-name="Agrave" unicode="&#xc0;" horiz-adv-x="2684" 
d="M923 177l-94 -177h-679l837 1380h710l837 -1380h-678l-94 177h-839zM1648 1533h-511l-375 276h639zM1342 975l-207 -393h414z" />
    <glyph glyph-name="Aacute" unicode="&#xc1;" horiz-adv-x="2685" 
d="M2535 0h-679l-94 177h-839l-94 -177h-679l838 1380h709zM1037 1533l247 276h638l-374 -276h-511zM1342 975l-207 -393h414z" />
    <glyph glyph-name="Acircumflex" unicode="&#xc2;" horiz-adv-x="2684" 
d="M1762 177h-840l-94 -177h-678l837 1380h710l837 -1380h-679zM930 1809h824l374 -276h-596l-191 190l-190 -190h-596zM1135 582h413l-207 393z" />
    <glyph glyph-name="Atilde" unicode="&#xc3;" horiz-adv-x="2684" 
d="M2534 0h-678l-94 177h-840l-93 -177h-679l837 1380h710zM1570 1751q141 -36 179 83h239q-6 -18 -11 -35q-27 -93 -56.5 -158.5t-82.5 -107.5q-137 -93 -330 -37l-394 96q-141 36 -179 -83h-239q6 18 11 35q27 93 56.5 159t82.5 107q137 94 330 37zM1549 582l-207 393
l-207 -393h414z" />
    <glyph glyph-name="Adieresis" unicode="&#xc4;" horiz-adv-x="2684" 
d="M2534 0h-679l-93 177h-840l-94 -177h-678l837 1380h710zM1965 1552h-518v239h518v-239zM719 1552v239h518v-239h-518zM1548 582l-206 393l-207 -393h413z" />
    <glyph glyph-name="Aring" unicode="&#xc5;" horiz-adv-x="2684" 
d="M2534 0h-679l-93 177h-840l-93 -177h-679l837 1380h710zM1560 1934q92 -60 92 -203q0 -142 -92.5 -202.5t-217.5 -60.5t-217.5 60.5t-92.5 202.5q0 143 92.5 203t217.5 60t218 -60zM1549 582l-207 393l-207 -393h414zM1435 1640q41 25 41 91t-41.5 91.5t-92.5 25.5
t-92.5 -25.5t-41.5 -91.5t41.5 -91.5t92.5 -25.5t93 26z" />
    <glyph glyph-name="AE" unicode="&#xc6;" horiz-adv-x="2946" 
d="M2796 404v-404h-1345v224h-505l-118 -224h-678l837 1380h1792v-405h-770v-129h694v-304h-694v-138h787zM1451 582v393h-109l-207 -393h316z" />
    <glyph glyph-name="Ccedilla" unicode="&#xc7;" horiz-adv-x="2600" 
d="M1001 993q-92 -17 -150 -55q-63 -48 -84 -120t-21 -128t21 -128.5t84 -120.5q58 -37 150 -54t180 -21t124 -4t118 4t169 21t145 54q63 49 86 120h627q-40 -293 -318 -463q-129 -71 -282.5 -102.5t-299.5 -37.5t-245 -6l-22 1l-50 -51q46 10 106 12.5t99 0.5
q103 -4 147 -49t44 -118q0 -64 -50.5 -108.5t-114.5 -58.5q-56 -13 -192 -10.5t-301 42.5l47 109q85 -17 151 -22t95 5q38 13 38 48t-32 46q-23 8 -63.5 6t-79.5 -12l-71 66l94 95q-158 2 -339 31.5t-333 112.5q-171 101 -249.5 253t-78.5 339t78.5 339t249.5 252
q129 72 282.5 103t299 37.5t245.5 6.5q99 0 245 -6.5t299.5 -37.5t282.5 -103q278 -169 318 -462h-627q-23 71 -86 119q-58 38 -145 55t-169 21t-118 4t-124 -4t-180 -21z" />
    <glyph glyph-name="Egrave" unicode="&#xc8;" horiz-adv-x="2266" 
d="M709 404h1407v-404h-1966v1380h1950v-405h-1391v-129h1315v-304h-1315v-138zM1389 1533h-511l-375 276h638z" />
    <glyph glyph-name="Eacute" unicode="&#xc9;" horiz-adv-x="2266" 
d="M2023 542h-1315v-138h1408v-404h-1966v1380h1950v-405h-1392v-129h1315v-304zM878 1533l246 276h639l-375 -276h-510z" />
    <glyph glyph-name="Ecircumflex" unicode="&#xca;" horiz-adv-x="2266" 
d="M2024 542h-1315v-138h1407v-404h-1966v1380h1950v-405h-1391v-129h1315v-304zM721 1809h824l375 -276h-596l-190 190l-191 -190h-596z" />
    <glyph glyph-name="Edieresis" unicode="&#xcb;" horiz-adv-x="2266" 
d="M2024 542h-1316v-138h1408v-404h-1966v1380h1950v-405h-1392v-129h1316v-304zM510 1791h518v-239h-518v239zM1756 1552h-518v239h518v-239z" />
    <glyph glyph-name="Igrave" unicode="&#xcc;" horiz-adv-x="1205" 
d="M497 0v1378h558v-1378h-558zM1034 1531h-510l-374 276h637z" />
    <glyph glyph-name="Iacute" unicode="&#xcd;" horiz-adv-x="1206" 
d="M708 1378v-1378h-558v1378h558zM418 1807h638l-374 -276h-510z" />
    <glyph glyph-name="Icircumflex" unicode="&#xce;" horiz-adv-x="1873" 
d="M1215 0h-558v1380h558v-1380zM150 1533l374 276h824l375 -276h-596l-190 190l-191 -190h-596z" />
    <glyph glyph-name="Idieresis" unicode="&#xcf;" horiz-adv-x="1543" 
d="M493 1378h557v-1378h-557v1378zM876 1789h517v-239h-517v239zM667 1550h-517v239h517v-239z" />
    <glyph glyph-name="Eth" unicode="&#xd0;" horiz-adv-x="2692" 
d="M2074 1330q147 -50 239 -134q229 -212 229 -506t-229 -507q-92 -84 -239 -133.5t-299 -49.5l-3 -5l-1342 5v584h-280v244h280v552h1345q152 0 299 -50zM1836 938q-60 20 -107 20h-741v-130h533v-244h-533v-162h741q47 0 106.5 20.5t103.5 78.5t44 169t-44 169t-103 79z
" />
    <glyph glyph-name="Ntilde" unicode="&#xd1;" horiz-adv-x="2358" 
d="M2208 0h-692l-807 815v-815h-559v1380h691l808 -814v814h559v-1380zM1674 1533q-136 -93 -329 -37l-394 96q-141 36 -179 -83h-239q6 18 11 35q27 93 56 159t83 107q136 94 330 37l394 -96q140 -36 179 83h239q-6 -18 -11 -35q-27 -93 -56.5 -158.5t-83.5 -107.5z" />
    <glyph glyph-name="Ograve" unicode="&#xd2;" horiz-adv-x="2607" 
d="M1848 1382q153 -31 282 -102q170 -101 248.5 -252.5t78.5 -338.5t-78.5 -339t-248.5 -252q-129 -72 -282.5 -103t-299 -37t-244.5 -6q-100 0 -245.5 6t-298.5 37t-282 103q-171 100 -249.5 252t-78.5 339t78.5 338.5t249.5 252.5q129 71 282 102t298.5 37t245.5 6
q99 0 244.5 -6t299.5 -37zM1757 441q63 48 84 120t21 128q0 55 -21 127.5t-84 120.5q-57 37 -149.5 54t-180.5 21.5t-123 4.5q-36 0 -124 -4.5t-180 -21.5t-150 -54q-63 -48 -84 -120.5t-21 -127.5q0 -56 21 -128t84 -120q58 -37 150 -54.5t180 -21.5t124 -4q35 0 123 4
t180.5 21.5t149.5 54.5zM1586 1531h-510l-374 276h637z" />
    <glyph glyph-name="Oacute" unicode="&#xd3;" horiz-adv-x="2608" 
d="M1848 1382q153 -31 282 -102q171 -101 249.5 -252.5t78.5 -338.5t-78.5 -339t-249.5 -252q-129 -72 -282 -103t-298.5 -37t-245.5 -6q-99 0 -244.5 6t-299 37t-282.5 103q-171 100 -249.5 252t-78.5 339t78.5 338.5t249.5 252.5q129 71 282.5 102t299 37t244.5 6
q100 0 245.5 -6t298.5 -37zM1428 1013q-88 4 -124 4q-35 0 -123 -4.5t-180.5 -21.5t-150.5 -54q-62 -48 -83 -120.5t-21 -127.5q0 -56 21 -128t83 -120q58 -37 150.5 -54.5t180.5 -21.5t123 -4q36 0 123.5 4t180 21.5t150.5 54.5q63 48 84 120t21 128q0 55 -21 127.5
t-84 120.5q-58 37 -150.5 54t-179.5 22zM1532 1531h-510l247 276h637z" />
    <glyph glyph-name="Ocircumflex" unicode="&#xd4;" horiz-adv-x="2608" 
d="M1549 -42q-146 -6 -245 -6q-100 0 -245.5 6t-298.5 37t-282 103q-171 100 -249.5 252t-78.5 339t78.5 338.5t249.5 252.5q129 71 282 102t298.5 37t245.5 6q99 0 245 -6t299 -37t282 -102q171 -101 249.5 -252.5t78.5 -338.5t-78.5 -339t-249.5 -252q-129 -72 -282 -103
t-299 -37zM1428 1013q-88 4 -124 4t-123.5 -4.5t-180 -21.5t-149.5 -54q-63 -48 -84 -120.5t-21 -127.5q0 -56 21 -128t84 -120q57 -37 149.5 -54.5t180 -21.5t123.5 -4t123.5 4t180 21.5t149.5 54.5q63 48 84 120t21 128q0 55 -21 127.5t-84 120.5q-57 37 -149.5 54
t-179.5 22zM1495 1533l-191 190l-191 -190h-596l375 276h824l375 -276h-596z" />
    <glyph glyph-name="Otilde" unicode="&#xd5;" horiz-adv-x="2608" 
d="M1059 -42q-146 6 -299 37t-282 103q-171 100 -249.5 252t-78.5 339t78.5 338.5t249.5 252.5q129 71 282 102t298.5 37t245.5 6q99 0 245 -6t299 -37t282 -102q171 -101 249.5 -252.5t78.5 -338.5t-78.5 -339t-249.5 -252q-129 -72 -282 -103t-299 -37t-245 -6
q-100 0 -245 6zM851 937q-63 -48 -84 -120.5t-21 -127.5q0 -56 21 -128t84 -120q57 -37 149.5 -54.5t180 -21.5t123.5 -4t123.5 4t180 21.5t149.5 54.5q63 48 84 120t21 128q0 55 -21 127.5t-84 120.5q-57 37 -149.5 54t-180 21.5t-123.5 4.5t-123.5 -4.5t-180 -21.5
t-149.5 -54zM1138 1847l394 -96q140 -36 179 83h239q-6 -18 -11 -35q-27 -93 -56.5 -158.5t-82.5 -107.5q-137 -93 -330 -37l-394 96q-141 36 -179 -83h-239q6 18 11 35q27 93 56.5 159t82.5 107q136 94 330 37z" />
    <glyph glyph-name="Odieresis" unicode="&#xd6;" horiz-adv-x="2608" 
d="M1549 -42q-146 -6 -245 -6q-100 0 -245.5 6t-298.5 37t-282 103q-171 100 -249.5 252t-78.5 339t78.5 338.5t249.5 252.5q129 71 282 102t298.5 37t245.5 6q99 0 245 -6t299 -37t282 -102q171 -101 249.5 -252.5t78.5 -338.5t-78.5 -339t-249.5 -252q-129 -72 -282 -103
t-299 -37zM1428 1013q-88 4 -124 4t-123.5 -4.5t-180 -21.5t-149.5 -54q-63 -48 -84 -120.5t-21 -127.5q0 -56 21 -128t84 -120q57 -37 149.5 -54.5t180 -21.5t123.5 -4t123.5 4t180 21.5t149.5 54.5q63 48 84 120t21 128q0 55 -21 127.5t-84 120.5q-57 37 -149.5 54
t-179.5 22zM1199 1789v-239h-517v239h517zM1409 1789h517v-239h-517v239z" />
    <glyph glyph-name="multiply" unicode="&#xd7;" horiz-adv-x="1306" 
d="M653 289l-288 -289l-215 215l288 288l-288 288l215 215l288 -288l288 288l215 -215l-289 -288l289 -288l-215 -215z" />
    <glyph glyph-name="Oslash" unicode="&#xd8;" horiz-adv-x="2695" 
d="M1874 1388q149 -28 277 -94l272 158l122 -211l-189 -110q147 -187 147 -441q0 -187 -78.5 -339t-250.5 -253q-129 -71 -282 -102.5t-299 -37.5t-245 -6q-97 0 -237 5.5t-289 34t-278 93.5l-272 -157l-122 211l189 110q-146 187 -146 441q0 187 78.5 339t249.5 252
q129 72 282 103t299 37.5t246 6.5q96 0 236.5 -6t289.5 -34zM1886 562q21 72 21 128q0 35 -7.5 78t-26.5 85l-812 -469q89 -15 171 -18.5t116 -3.5q35 0 123 4t180.5 21t150.5 54q62 48 84 121zM1634 996q-89 15 -170.5 18.5t-115.5 3.5q-36 0 -124 -4t-180.5 -21
t-149.5 -55q-63 -48 -84 -120t-21 -128q0 -35 7 -78t26 -85z" />
    <glyph glyph-name="Ugrave" unicode="&#xd9;" horiz-adv-x="2355" 
d="M1537 -30q-182 -18 -359 -18q-178 0 -360 17.5t-332 77.5q-336 134 -336 512v819h558v-759q0 -236 316 -254q82 -4 154 -4q71 0 152.5 4.5t153.5 27.5q162 53 162 226v759h559v-819q0 -525 -668 -589zM1213 1807l247 -276h-511l-374 276h638z" />
    <glyph glyph-name="Uacute" unicode="&#xda;" horiz-adv-x="2354" 
d="M1646 1378h558v-819q0 -208 -92.5 -330t-243 -182t-332 -77.5t-359.5 -17.5t-359.5 17.5t-332 77.5t-243 182t-92.5 330v819h557v-759q0 -97 46 -150t117.5 -76t153 -27.5t153.5 -4.5t153.5 4.5t153 27.5t117 76t45.5 150v759zM1404 1531h-509l246 276h638z" />
    <glyph glyph-name="Ucircumflex" unicode="&#xdb;" horiz-adv-x="2358" 
d="M1539 418q50 27 80 76t30 126v760h559v-820q0 -439 -462 -554q-213 -54 -567 -54q-143 0 -289 10q-327 23 -515 143q-225 145 -225 455v820h559v-759q0 -200 221 -243q86 -16 249 -16q57 0 122 2.5t126.5 14t111.5 39.5zM1966 1533h-596l-191 190l-190 -190h-596l374 276
h824z" />
    <glyph glyph-name="Udieresis" unicode="&#xdc;" horiz-adv-x="2354" 
d="M1177 -48q-178 0 -359.5 17.5t-332 77.5t-243 182t-92.5 330v819h557v-759q0 -97 46 -150t117.5 -76t153 -27.5t153.5 -4.5q71 0 153 4.5t153.5 27.5t117 76t45.5 150v759h558v-819q0 -208 -92.5 -330t-243 -182t-332.5 -77.5t-359 -17.5zM555 1550v239h517v-239h-517z
M1282 1789h517v-239h-517v239z" />
    <glyph glyph-name="Yacute" unicode="&#xdd;" horiz-adv-x="2844" 
d="M1143 0v448l-993 933h762l510 -506l510 506h762l-993 -933v-448h-558zM1622 1535h-511l247 276h638z" />
    <glyph glyph-name="Thorn" unicode="&#xde;" horiz-adv-x="2347" 
d="M2197 698q0 -184 -79 -307q-135 -214 -547 -214h-863v-177h-558v1380h558v-139h863q411 0 547 -224q79 -129 79 -319zM1628 743q-9 23 -47.5 39t-127.5 16h-745v-199h745q89 0 127.5 16t47.5 39t9 44t-9 45z" />
    <glyph glyph-name="germandbls" unicode="&#xdf;" horiz-adv-x="2461" 
d="M1575 966q0 12 -7 25q-32 44 -139 57t-256 13q-98 0 -206 -7t-183 -32.5t-75 -80.5v-942h-559v989q0 267 363 375q251 65 661 65q468 0 679 -61q199 -58 308 -169q68 -69 75 -173q-2 -185 -149 -266q106 -34 165 -114.5t59 -199.5l-1 -24q-22 -292 -343 -397
q-220 -72 -554 -72q-160 0 -311 16t-265 31v374q180 -24 308.5 -39t223.5 -15q263 0 263 128q0 107 -148 114l-304 15v256q80 2 166.5 15t137.5 34q91 41 91 85z" />
    <glyph glyph-name="agrave" unicode="&#xe0;" horiz-adv-x="2246" 
d="M2096 0h-573q-24 40 -24 88v38q-117 -79 -290 -120t-359 -41q-197 0 -355.5 20t-251.5 88t-93 213q0 124 66 185.5t193.5 87t312.5 36.5q16 1 31 2q287 19 499.5 43.5t212.5 72.5q0 31 -62 44t-141.5 16t-140.5 3h-7q-84 0 -179 -10.5t-116 -52.5h-587
q16 104 120.5 190.5t248.5 128.5q235 59 513 59q158 0 324 -13t306 -52t227 -114t87 -199v-594q0 -37 12 -70t26 -49zM1435 1198h-511l-374 276h638zM1425 348q74 40 74 109q-14 -8 -68 -17.5t-182 -23.5q-96 -10 -191 -18q-96 -8 -168 -16q-73 -8 -100 -20q-38 -19 -38 -47
q0 -41 64.5 -52.5t149.5 -8t154 10.5q5 0 9 1q47 3 134 22t162 60z" />
    <glyph glyph-name="aacute" unicode="&#xe1;" horiz-adv-x="2246" 
d="M2096 0h-574q-23 40 -23 88v38q-117 -79 -290 -120t-359 -41q-198 0 -356.5 20t-251 88t-92.5 213q0 124 66 185.5t193.5 87t312.5 36.5q16 1 31 2q287 19 499.5 43.5t212.5 72.5q0 31 -62.5 44t-142 16t-139.5 3h-8q-83 0 -178.5 -10.5t-115.5 -52.5h-587
q16 104 120 190.5t249 128.5q235 59 512 59q158 0 324 -13t306 -52t227.5 -114t87.5 -199v-594q0 -37 12 -70t26 -49zM1435 1198h-511l247 276h639zM1249 416q-96 -10 -191 -18q-96 -8 -168 -16q-73 -8 -101 -20q-37 -19 -37 -47q0 -41 64.5 -52.5t149.5 -8t154 10.5
q4 0 9 1q47 3 134 22t161.5 59.5t74.5 109.5q-14 -8 -68 -17.5t-182 -23.5z" />
    <glyph glyph-name="acircumflex" unicode="&#xe2;" horiz-adv-x="2246" 
d="M819 713h-587q15 104 119.5 190.5t248.5 128.5q236 59 513 59q158 0 324.5 -13t306 -52t227 -114t87.5 -199v-594q0 -37 12 -70t26 -49h-574q-23 40 -23 88v38q-117 -79 -290 -120t-359 -41q-198 0 -356.5 20t-251 88t-92.5 213q0 124 66 185.5t193 87t313 36.5l32 2
q286 20 498.5 44t212.5 72q0 31 -62 44t-142 16t-140 3h-8q-83 0 -178.5 -10.5t-115.5 -52.5zM1580 1474l375 -276h-596l-191 189l-191 -189h-596l375 276h824zM966 255q85 3 154 10q4 0 9 1q47 3 134 22t161.5 59.5t74.5 109.5q-14 -8 -68 -17.5t-182 -23.5
q-96 -10 -192 -18q-95 -8 -168 -16q-72 -8 -100 -20q-37 -19 -37 -47q0 -41 64.5 -52.5t149.5 -7.5z" />
    <glyph glyph-name="atilde" unicode="&#xe3;" horiz-adv-x="2245" 
d="M2057 119q0 -37 12 -70t26 -49h-574q-22 40 -22 88v38q-118 -79 -291 -120t-359 -41q-198 0 -356 20t-250.5 88t-92.5 213q0 124 65.5 185.5t193 87t313.5 36.5l32 2q286 20 498 44t212 72q0 31 -62 44t-141.5 16t-139.5 3h-8q-83 0 -178.5 -10.5t-115.5 -52.5h-587
q15 104 119 190.5t249 128.5q236 59 513 59q158 0 324 -13t306 -52t227 -114t87 -199v-594zM940 1256q-141 36 -180 -83h-238q5 18 11 36q27 93 56 158.5t82 107.5q137 93 331 36l393 -96q141 -36 180 83h239q-6 -18 -11 -35q-28 -93 -57 -158.5t-82 -107.5
q-137 -93 -331 -37zM816 263q65 -12 149.5 -8.5t153.5 10.5q5 0 9 1q48 3 134.5 22t161.5 59.5t75 109.5q-14 -8 -68.5 -17.5t-181.5 -23.5q-96 -10 -191 -18q-97 -8 -169 -16t-101 -20q-37 -19 -37 -47q0 -41 65 -52z" />
    <glyph glyph-name="adieresis" unicode="&#xe4;" horiz-adv-x="2245" 
d="M1252 641q212 24 212 72q0 31 -62 44t-141.5 16t-139.5 3h-8q-83 0 -178.5 -10.5t-115.5 -52.5h-587q15 104 119.5 190.5t248.5 128.5q236 59 513 59q158 0 324 -13t306 -52t227 -114t87 -199v-594q0 -37 12.5 -70t25.5 -49h-573q-23 40 -23 88v38q-118 -79 -291 -120
t-358 -41q-198 0 -356.5 20t-251 88t-92.5 213q0 124 65.5 185.5t193 87t313.5 36.5q15 1 31 2q286 19 499 44zM1790 1455v-238h-518v238h518zM545 1455h518v-238h-518v238zM789 362q-38 -19 -38 -47q0 -41 65 -52.5t150 -8t153 10.5q5 0 10 1q47 3 133.5 22t161.5 59.5
t75 109.5q-14 -8 -68.5 -17.5t-181.5 -23.5q-96 -10 -191 -18q-96 -8 -169 -16q-72 -8 -100 -20z" />
    <glyph glyph-name="aring" unicode="&#xe5;" horiz-adv-x="2245" 
d="M2095 0h-573q-23 40 -23 88v38q-118 -79 -291 -120t-358 -41q-198 0 -356.5 20t-251 88t-92.5 213q0 124 65.5 185.5t193 87t312.5 36.5q16 1 31 2q287 19 499.5 43.5t212.5 72.5q0 31 -62 44t-141.5 16t-139.5 3h-8q-84 0 -179 -10.5t-115 -52.5h-587
q15 104 119.5 190.5t248.5 128.5q235 59 513 59q158 0 324 -13t306 -52t227 -114t87 -199v-594q0 -37 12.5 -70t25.5 -49zM950 1193q-92 60 -92 202q0 143 92 203t218 60q125 0 217.5 -60t92.5 -203q0 -142 -92.5 -202.5t-217.5 -60.5q-126 0 -218 61zM889 382
q-73 -8 -100 -20q-37 -19 -37 -47q0 -41 64.5 -52.5t149.5 -8t154 10.5q4 0 9 1q47 3 133.5 22t161.5 59.5t75 109.5q-15 -8 -69 -17.5t-181 -23.5q-96 -10 -191 -18q-96 -8 -169 -16zM1034 1395q0 -66 41 -91.5t93 -25.5q51 0 92 25.5t41 91.5t-41 91.5t-92 25.5
q-52 0 -93 -25.5t-41 -91.5z" />
    <glyph glyph-name="ae" unicode="&#xe6;" horiz-adv-x="3009" 
d="M851 -35q-199 0 -357 20t-251 88t-93 213q0 187 126.5 241.5t402.5 68.5q282 19 396.5 44t114.5 73q0 54 -62.5 65t-145.5 11t-137 -16t-68 -60h-545q22 158 144 240.5t294 110.5t335 28q185 0 328 -19t232 -78q127 70 253 83.5t224 13.5q102 0 277.5 -15.5t313.5 -96.5
q205 -134 221 -390q5 -62 5 -110l-1 -59h-1120q30 -89 115.5 -120.5t188.5 -31.5t160.5 15t94.5 51h534q-48 -159 -198 -258q-138 -81 -313.5 -96.5t-277.5 -15.5q-103 0 -235.5 15.5t-265.5 96.5q-19 12 -36 26q-18 -14 -37 -26q-133 -81 -266 -96.5t-235 -15.5h-116z
M1738 636h607q-30 90 -115 121.5t-188 31.5t-188.5 -31.5t-115.5 -121.5zM882 387l-35 -5q-75 -7 -106.5 -16t-31.5 -41q0 -28 50 -41q52 -15 129 -15q64 0 124 9q213 21 213 180q-97 -47 -343 -71z" />
    <glyph glyph-name="ccedilla" unicode="&#xe7;" horiz-adv-x="2243" 
d="M792 -387l47 109q118 -24 191 -24q93 0 93 55q0 52 -80 52q-47 0 -95 -12l-70 66l105 108q-355 5 -561 110q-272 147 -272 451q0 305 272 452q188 96 501 108l209 4q83 0 211 -4q312 -12 500 -108q231 -131 250 -342h-586q-20 64 -83.5 93.5t-144.5 37t-147 7.5
q-90 0 -185 -11t-160.5 -62.5t-65.5 -174.5q0 -122 65.5 -173.5t160.5 -62.5t185 -11q66 0 147 7.5t144.5 37t83.5 93.5h586q-19 -211 -250 -342q-188 -96 -500 -107q-128 -5 -226 -5l-63 -63q63 14 170 14l35 -1q191 -7 191 -167q0 -64 -50.5 -108.5t-113.5 -58.5
q-49 -11 -158 -11q-17 0 -94 1.5t-242 41.5z" />
    <glyph glyph-name="egrave" unicode="&#xe8;" horiz-adv-x="2268" 
d="M1351 1086q460 -18 642 -216q99 -109 116 -280q8 -80 8 -169h-1375q31 -68 94.5 -101t143 -42.5t153.5 -9.5q78 0 173.5 15t146.5 52h631q-59 -160 -239 -259q-107 -54 -240.5 -78t-261 -28.5t-210.5 -4.5q-82 0 -209 5q-315 11 -502 106q-272 147 -272 452
q0 304 272 451q184 95 494 107q126 5 217 5q92 0 218 -5zM1353 1198h-511l-374 276h638zM1287 778q-79 10 -154 10q-74 0 -153 -10q-183 -21 -238 -143h783q-55 122 -238 143z" />
    <glyph glyph-name="eacute" unicode="&#xe9;" horiz-adv-x="2268" 
d="M1133 -35q-82 0 -209 5q-315 11 -502 106q-272 147 -272 452q0 304 272 451q184 95 494 107q126 5 217 5q92 0 218 -5q460 -18 642 -216q99 -109 116 -280q8 -80 8 -169h-1375q31 -68 94.5 -101t143 -42.5t153.5 -9.5q78 0 173.5 15t146.5 52h631q-59 -160 -239 -259
q-107 -54 -240.5 -78t-261 -28.5t-210.5 -4.5zM1353 1198h-511l247 276h639zM1133 788q-74 0 -153 -10q-183 -21 -238 -143h783q-55 122 -238 143q-79 10 -154 10z" />
    <glyph glyph-name="ecircumflex" unicode="&#xea;" horiz-adv-x="2268" 
d="M1452 335h631q-59 -160 -239 -259q-107 -54 -240.5 -78t-261 -28.5t-210.5 -4.5q-82 0 -209 5q-315 11 -502 106q-272 147 -272 452q0 304 272 451q184 95 494 107q126 5 217 5q92 0 218 -5q460 -18 642 -216q99 -109 116 -280q8 -80 8 -169h-1375q31 -68 94.5 -101
t143 -42.5t153.5 -9.5q78 0 173.5 15t146.5 52zM1323 1198l-191 189l-190 -189h-596l374 276h824l375 -276h-596zM1524 635q-55 122 -238 143q-79 10 -154 10q-74 0 -153 -10q-183 -21 -238 -143h783z" />
    <glyph glyph-name="edieresis" unicode="&#xeb;" horiz-adv-x="2268" 
d="M1351 1086q460 -18 642 -216q99 -109 116 -280q8 -80 8 -169h-1375q31 -68 94.5 -101t143 -42.5t153.5 -9.5q78 0 173.5 15t146.5 52h631q-59 -160 -239 -259q-107 -54 -240.5 -78t-261 -28.5t-210.5 -4.5q-82 0 -209 5q-315 11 -502 106q-272 147 -272 452
q0 304 272 451q184 95 494 107q126 5 217 5q92 0 218 -5zM1238 1217v238h518v-238h-518zM510 1217v238h518v-238h-518zM1287 778q-79 10 -154 10q-74 0 -153 -10q-183 -21 -238 -143h783q-55 122 -238 143z" />
    <glyph glyph-name="igrave" unicode="&#xec;" horiz-adv-x="1205" 
d="M1055 1056v-1056h-558v1056h558zM524 1196l-374 276h637l246 -276h-509z" />
    <glyph glyph-name="iacute" unicode="&#xed;" horiz-adv-x="1205" 
d="M150 0v1056h558v-1056h-558zM418 1472h637l-373 -276h-510z" />
    <glyph glyph-name="icircumflex" unicode="&#xee;" horiz-adv-x="1874" 
d="M1216 0h-558v1057h558v-1057zM525 1474h824l375 -276h-596l-191 189l-190 -189h-597z" />
    <glyph glyph-name="idieresis" unicode="&#xef;" horiz-adv-x="1544" 
d="M1051 0h-558v1056h558v-1056zM877 1453h517v-239h-517v239zM667 1214h-517v239h517v-239z" />
    <glyph glyph-name="eth" unicode="&#xf0;" horiz-adv-x="2263" 
d="M646 -17q-136 21 -235 65q-145 68 -203 173t-58 247q0 143 58 247.5t203 173.5q212 95 554 95q258 0 453 -68q-92 93 -313 200q-71 35 -163 70l-328 -141l-132 128l213 91q-125 35 -248 58l257 249q169 -28 436 -116l272 116l167 -112l-213 -92q49 -22 93 -45
q175 -91 260 -142q326 -193 378 -505q16 -98 16 -207q0 -142 -58 -247t-203 -173q-213 -95 -720 -95q-85 0 -218 5t-268 25zM785 567q-59 -32 -59 -99q0 -66 59 -97.5t152.5 -41t194.5 -9.5t194 9.5t152.5 41t59.5 97.5q0 67 -59.5 98.5t-152.5 41t-194 9.5t-194.5 -9.5
t-152.5 -40.5z" />
    <glyph glyph-name="ntilde" unicode="&#xf1;" horiz-adv-x="2157" 
d="M1449 0v571q0 79 -73 139q-51 36 -125 43q-60 5 -106 5q-160 0 -251 -25q-186 -51 -186 -205v-528h-558v1057h532v-119l26 19q110 65 266.5 99.5t272.5 34.5q100 0 207 -6.5t205 -30.5t176.5 -72t125 -128.5t46.5 -201.5v-652h-558zM1485 1498h239q-31 -113 -67 -193
q-29 -66 -83 -108q-85 -58 -192 -58q-65 0 -138 21l-394 96q-33 8 -60 8q-90 0 -119 -91h-239q39 130 68 195t82 107q84 58 191 58q66 0 140 -22l393 -96q33 -8 60 -8q90 0 119 91z" />
    <glyph glyph-name="ograve" unicode="&#xf2;" horiz-adv-x="2262" 
d="M922 1086q127 4 209 4t209 -4.5t260.5 -28.5t240.5 -78q142 -77 206.5 -193t64.5 -258q0 -143 -64.5 -259t-206.5 -193q-107 -54 -240.5 -78t-260.5 -28.5t-209 -4.5t-209.5 4.5t-260.5 28.5t-240 78q-142 77 -206.5 193t-64.5 259q0 142 64.5 258t206.5 193
q107 54 240 78t261 29zM992 285q72 -5 139 -5t139 5t133.5 27.5t100 73t38.5 142.5q0 91 -38.5 142t-100 73t-133.5 27t-139 5t-139.5 -5t-133.5 -27t-99.5 -73t-38.5 -142q0 -92 38.5 -142.5t99.5 -73t134 -27.5zM533 1472h638l246 -276h-509z" />
    <glyph glyph-name="oacute" unicode="&#xf3;" horiz-adv-x="2263" 
d="M1602 1057q133 -24 240 -78q141 -77 206 -193t65 -258q0 -143 -65 -259t-206 -193q-107 -54 -240.5 -78t-260.5 -28.5t-210 -4.5q-82 0 -209 4.5t-260 28.5t-241 78q-141 77 -206 193t-65 259q0 142 65 258t206 193q108 54 241 78t260 28.5t209 4.5q83 0 210 -4.5
t261 -28.5zM992 285q72 -5 139 -5q68 0 140 5t133 27.5t99.5 73t38.5 142.5q0 91 -38.5 142t-99.5 73t-133 27t-140 5q-67 0 -139 -5t-133 -27t-99.5 -73t-38.5 -142q0 -92 38.5 -142.5t99.5 -73t133 -27.5zM1092 1472h637l-374 -276h-510z" />
    <glyph glyph-name="ocircumflex" unicode="&#xf4;" horiz-adv-x="2263" 
d="M1341 -31q-127 -4 -210 -4q-82 0 -209 4.5t-260 28.5t-241 78q-141 77 -206 193t-65 259q0 142 65 258t206 193q108 54 241 78t260 28.5t209 4.5q83 0 210 -4.5t260.5 -28.5t240.5 -78q141 -77 206 -193t65 -258q0 -143 -65 -259t-206 -193q-107 -54 -240.5 -78
t-260.5 -29zM1271 770q-72 5 -140 5q-67 0 -139 -5t-133 -27t-99.5 -73t-38.5 -142q0 -92 38.5 -142.5t99.5 -73t133 -27.5t139 -5q68 0 140 5t133 27.5t99.5 73t38.5 142.5q0 91 -38.5 142t-99.5 73t-133 27zM1322 1198l-191 189l-190 -189h-596l374 276h824l375 -276h-596
z" />
    <glyph glyph-name="otilde" unicode="&#xf5;" horiz-adv-x="2263" 
d="M1341 1086q127 -5 260.5 -29t240.5 -78q141 -77 206 -193t65 -258q0 -143 -65 -259t-206 -193q-107 -54 -240.5 -78t-260.5 -28.5t-210 -4.5q-82 0 -209 4.5t-260 28.5t-241 78q-141 77 -206 193t-65 259q0 142 65 258t206 193q108 54 241 78t260 28.5t209 4.5
q83 0 210 -4zM859 313q61 -23 133 -28t139 -5q68 0 140 5t133 27.5t99.5 73t38.5 142.5q0 91 -38.5 142t-99.5 73t-133 27t-140 5q-67 0 -139 -5t-133 -27t-99.5 -73t-38.5 -142q0 -92 38.5 -142.5t99.5 -72.5zM1359 1415q141 -36 180 83h238q-5 -18 -11 -35
q-27 -93 -56 -158.5t-82 -107.5q-137 -93 -331 -37l-393 96q-141 36 -180 -83h-239q6 18 11 36q28 93 57 158.5t82 107.5q137 93 331 36z" />
    <glyph glyph-name="odieresis" unicode="&#xf6;" horiz-adv-x="2263" 
d="M1601 1057q133 -24 241 -78q141 -77 206 -193t65 -258q0 -143 -65 -259t-206 -193q-108 -54 -241 -78t-260 -28.5t-209 -4.5q-83 0 -210 4.5t-260.5 28.5t-240.5 78q-141 77 -206 193t-65 259q0 142 65 258t206 193q107 54 240.5 78t260.5 28.5t210 4.5q82 0 209 -4.5
t260 -28.5zM1405 743q-62 22 -134 27t-139 5q-68 0 -140 -5t-133 -27t-99.5 -73t-38.5 -142q0 -92 38.5 -142.5t99.5 -73t133 -27.5t140 -5q67 0 139 5t133.5 27.5t99.5 73t38 142.5q0 91 -38 142t-99 73zM510 1214v239h517v-239h-517zM1753 1214h-517v239h517v-239z" />
    <glyph glyph-name="divide" unicode="&#xf7;" horiz-adv-x="1306" 
d="M150 351v304h1006v-304h-1006zM870 932q0 -99 -64.5 -141.5t-152.5 -42.5t-152.5 42.5t-64.5 141.5q0 101 64.5 143t152.5 42t152.5 -42t64.5 -143zM870 73q0 -100 -64.5 -142t-152.5 -42t-152.5 42t-64.5 142t64.5 142.5t152.5 42.5t152.5 -42.5t64.5 -142.5z" />
    <glyph glyph-name="oslash" unicode="&#xf8;" horiz-adv-x="2265" 
d="M1133 -35q-110 0 -292.5 11t-345.5 68l-200 -116l-101 176l105 60q-77 73 -113 165.5t-36 198.5q0 143 65 259t207 193q107 55 240 79t260.5 28.5t210.5 4.5q110 0 292 -11t345 -68l200 116l101 -176l-104 -60q76 -73 112 -165.5t36 -199.5q0 -142 -65 -258t-207 -193
q-107 -55 -240.5 -79t-260.5 -28.5t-209 -4.5zM1544 528q0 66 -21 109l-595 -343q106 -13 205 -13q90 0 185 11t160.5 62.5t65.5 173.5zM1133 776q-90 0 -185.5 -11t-161 -62.5t-65.5 -174.5q0 -64 21 -108l594 343q-105 13 -203 13z" />
    <glyph glyph-name="ugrave" unicode="&#xf9;" horiz-adv-x="2156" 
d="M1341 354q107 55 107 174v528h558v-1056h-531v118q-2 -1 -7 -4.5t-10 -6.5q-4 -3 -7 -5l-3 -2q-109 -66 -266 -100.5t-272 -34.5q-126 0 -259 12.5t-246 55.5t-184 131.5t-71 240.5v651h559v-571q0 -51 23 -85t49 -54q51 -36 124 -43t127 -5h18q184 0 291 56zM1365 1196
h-510l-375 276h638z" />
    <glyph glyph-name="uacute" unicode="&#xfa;" horiz-adv-x="2155" 
d="M1447 528v528h558v-1056h-531v118q-1 0 -5 -3t-9 -6.5t-9 -5.5l-4 -3q-109 -66 -265.5 -100.5t-272.5 -34.5q-125 0 -258.5 12.5t-246.5 55.5t-183.5 131.5t-70.5 240.5v651h557v-571q0 -51 23.5 -85t50.5 -54q50 -36 123.5 -43t125.5 -5h19q184 0 291 55.5t107 174.5z
M791 1196l246 276h638l-374 -276h-510z" />
    <glyph glyph-name="ucircumflex" unicode="&#xfb;" horiz-adv-x="2158" 
d="M1476 0v119q-5 -5 -14 -10l-12 -9q-110 -65 -266.5 -100t-272.5 -35q-101 0 -207 7q-240 16 -382 103q-172 105 -172 330v652h559v-572q0 -60 39 -106q57 -66 159 -75q56 -6 101 -6q164 0 255 25q187 51 187 205v529h558v-1057h-532zM1269 1198l-190 189l-191 -189h-596
l375 276h824l374 -276h-596z" />
    <glyph glyph-name="udieresis" unicode="&#xfc;" horiz-adv-x="2156" 
d="M2006 1056v-1056h-532v118q-1 0 -5 -3t-9 -6.5t-8.5 -6t-4.5 -2.5q-109 -66 -265.5 -100.5t-271.5 -34.5q-126 0 -259.5 12.5t-246.5 55.5t-183.5 131.5t-70.5 240.5v651h558v-571q0 -51 23.5 -85t49.5 -54q51 -36 124 -43t126 -5h18q185 0 291.5 55.5t106.5 174.5v528
h559zM456 1453h517v-239h-517v239zM1183 1214v239h517v-239h-517z" />
    <glyph glyph-name="yacute" unicode="&#xfd;" horiz-adv-x="2255" 
d="M1109 -336q-115 -39 -263 -43q-95 -4 -206 -0.5t-199 6.5q-22 1 -42 2v255h136q29 -1 62.5 0.5t59.5 9.5q16 4 37.5 16t40.5 43l79 113l-664 991h596l381 -628l382 628h596l-819 -1261q-63 -93 -177 -132zM1060 1474h639l-375 -276h-510z" />
    <glyph glyph-name="thorn" unicode="&#xfe;" horiz-adv-x="2263" 
d="M1539 -19q-145 -16 -268 -16q-124 0 -259.5 21t-269.5 91q-18 9 -34 21v-478h-558v1808h558v-469q16 12 34 21q134 70 269.5 91t259.5 21q123 0 268 -16t303 -96q141 -77 206 -193t65 -259q0 -142 -65 -258t-206 -193q-158 -80 -303 -96zM1131 758q-185 0 -304 -49.5
t-119 -180.5q0 -130 119 -179.5t304 -49.5q53 0 123.5 7t136 30t108.5 69t43 123q0 78 -43 124t-108.5 69t-136 30t-123.5 7z" />
    <glyph glyph-name="ydieresis" unicode="&#xff;" horiz-adv-x="2252" 
d="M1508 1056h594l-818 -1260q-62 -93 -176.5 -131.5t-261.5 -43.5q-96 -3 -206 0t-198 7q-23 1 -43 2v254h136q29 -1 62 0.5t59 9.5q17 4 38.5 16t40.5 43l78 113l-663 990h595l382 -627zM504 1453h518v-239h-518v239zM1748 1453v-239h-517v239h517z" />
    <glyph glyph-name="dotlessi" unicode="&#x131;" horiz-adv-x="858" 
d="M150 1057h558v-1057h-558v1057z" />
    <glyph glyph-name="circumflex" unicode="&#x2c6;" horiz-adv-x="1872" 
d="M1348 1456l375 -276h-596l-190 190l-191 -190h-596l374 276h824z" />
    <glyph glyph-name="caron" unicode="&#x2c7;" horiz-adv-x="1873" 
d="M524 1180l-374 276h596l191 -190l190 190h596l-375 -276h-824z" />
    <glyph glyph-name="uni02C9" unicode="&#x2c9;" horiz-adv-x="1544" 
d="M150 1438h1244v-240h-1244v240z" />
    <glyph glyph-name="breve" unicode="&#x2d8;" horiz-adv-x="1427" 
d="M520 1408q38 -19 88.5 -23.5t105.5 -4.5q54 0 104.5 4.5t89.5 23.5q26 16 44 40.5t18 45.5h307q0 -152 -106 -244q-75 -60 -179.5 -84t-277.5 -24q-175 0 -279 24t-179 84q-106 92 -106 244h307q0 -21 17.5 -45.5t45.5 -40.5z" />
    <glyph glyph-name="dotaccent" unicode="&#x2d9;" horiz-adv-x="818" 
d="M150 1438h518v-239h-518v239z" />
    <glyph glyph-name="ring" unicode="&#x2da;" horiz-adv-x="920" 
d="M614 1141q-71 -27 -154 -27q-84 0 -154.5 26.5t-113 84.5t-42.5 153t42.5 152.5t113 84t154.5 26.5q83 0 153.5 -26.5t113.5 -84t43 -152.5t-43 -153t-113 -84zM593 1378q0 66 -41 91.5t-92 25.5t-92.5 -25.5t-41.5 -91.5t41.5 -92t92.5 -26t92 26t41 92z" />
    <glyph glyph-name="ogonek" unicode="&#x2db;" horiz-adv-x="912" 
d="M502 -286q28 -17 59 -12q26 4 62 11t104 22l35 -113q-71 -25 -193.5 -42.5t-244.5 1.5q-71 12 -122.5 50.5t-51.5 116.5q0 55 43.5 103t101.5 85.5t106 63.5h249q-12 0 -54 -39t-82.5 -93.5t-40.5 -96.5q0 -39 29 -57z" />
    <glyph glyph-name="tilde" unicode="&#x2dc;" horiz-adv-x="1592" 
d="M961 1142l-220 55l-173 42q-141 36 -179 -83h-239q6 18 11 35q27 93 56 158.5t83 107.5q136 94 330 37l393 -97q141 -35 180 84h239q-6 -18 -11 -35q-28 -93 -57 -158.5t-82 -107.5q-137 -94 -331 -38z" />
    <glyph glyph-name="hungarumlaut" unicode="&#x2dd;" horiz-adv-x="1942" 
d="M908 1180l247 276h637l-374 -276h-510zM1034 1456l-374 -276h-510l247 276h637z" />
    <glyph glyph-name="endash" unicode="&#x2013;" horiz-adv-x="1670" 
d="M150 741h1370v-342h-1370v342z" />
    <glyph glyph-name="emdash" unicode="&#x2014;" horiz-adv-x="3979" 
d="M150 741h3679v-342h-3679v342z" />
    <glyph glyph-name="quoteleft" unicode="&#x2018;" horiz-adv-x="818" 
d="M150 559v422q0 137 70 225.5t187.5 131t260.5 42.5v-140q-137 -11 -186 -71t-49 -188h235v-422h-518z" />
    <glyph glyph-name="quoteright" unicode="&#x2019;" horiz-adv-x="818" 
d="M150 1380h518v-422q0 -137 -70.5 -225t-188 -131t-259.5 -43v140q136 11 185.5 71t49.5 188h-235v422z" />
    <glyph glyph-name="quotesinglbase" unicode="&#x201a;" horiz-adv-x="818" 
d="M150 422h518v-422q0 -137 -70.5 -225.5t-188 -131t-259.5 -42.5v140q137 11 186 71t49 188h-235v422z" />
    <glyph glyph-name="quotedblleft" unicode="&#x201c;" horiz-adv-x="985" 
d="M1395 1380v-140q-137 -12 -186 -72t-49 -187h235v-422h-518v422q0 136 70 224.5t188 131.5t260 43zM220 1206q70 88 187.5 131t260.5 43v-140q-137 -12 -186.5 -72t-49.5 -187h236v-422h-518v422q0 136 70 225z" />
    <glyph glyph-name="quotedblright" unicode="&#x201d;" horiz-adv-x="1545" 
d="M150 1380h518v-422q0 -136 -70 -224.5t-188 -131.5t-260 -43v140q137 12 186 72t49 187h-235v422zM877 559v140q137 12 186.5 72t49.5 187h-236v422h518v-422q0 -136 -70 -224.5t-187.5 -131.5t-260.5 -43z" />
    <glyph glyph-name="quotedblbase" unicode="&#x201e;" horiz-adv-x="1545" 
d="M150 422h518v-422q0 -136 -70 -224.5t-188 -131.5t-260 -43v140q137 12 186 72t49 187h-235v422zM877 -399v140q137 12 186.5 72t49.5 187h-236v422h518v-422q0 -136 -70 -224.5t-187.5 -131.5t-260.5 -43z" />
    <glyph glyph-name="dagger" unicode="&#x2020;" horiz-adv-x="1854" 
d="M648 667h-498v315h498v398h558v-398h498v-315h-498v-1047h-558v1047z" />
    <glyph glyph-name="daggerdbl" unicode="&#x2021;" horiz-adv-x="1854" 
d="M1206 0v-380h-558v380h-498v299h498v402h-498v299h498v380h558v-380h498v-299h-498v-402h498v-299h-498z" />
    <glyph glyph-name="bullet" unicode="&#x2022;" horiz-adv-x="1011" 
d="M505 388q-96 0 -177 30t-129.5 96.5t-48.5 175.5t48.5 175.5t129.5 96.5t177 30t177 -30t130 -96.5t49 -175.5t-49 -175.5t-130 -96.5t-177 -30z" />
    <glyph glyph-name="ellipsis" unicode="&#x2026;" horiz-adv-x="2272" 
d="M150 0v422h518v-422h-518zM2122 0h-517v422h517v-422zM1395 422v-422h-517v422h517z" />
    <glyph glyph-name="guilsinglleft" unicode="&#x2039;" horiz-adv-x="885" 
d="M735 1071v-304l-340 -192l340 -194v-303l-585 345v303z" />
    <glyph glyph-name="guilsinglright" unicode="&#x203a;" horiz-adv-x="885" 
d="M150 381l340 194l-340 192v304l585 -345v-303l-585 -345v303z" />
    <glyph glyph-name="fraction" unicode="&#x2044;" horiz-adv-x="1938" 
d="M1493 1380h295l-1343 -1428h-295z" />
    <glyph glyph-name="fraction" unicode="&#x2215;" horiz-adv-x="1938" 
d="M1493 1380h295l-1343 -1428h-295z" />
    <glyph glyph-name="franc" unicode="&#x20a3;" horiz-adv-x="2435" 
d="M2193 407h-1316v-75h538v-202h-538v-130h-558v130h-169v202h169v1048h1966v-422h-1408v-146h1316v-405z" />
    <glyph glyph-name="lira" unicode="&#x20a4;" horiz-adv-x="2085" 
d="M1670 1323q122 -61 193 -176.5t71 -292.5h-587q0 132 -69.5 185t-196.5 53q-47 0 -109.5 -5.5t-109.5 -31.5t-47 -88q0 -37 14 -70h445v-173h-386q1 -35 -7 -68h393v-173h-504q-47 -43 -104 -77l7 -16q76 36 176 47.5t190 -7.5q18 -5 37 -9q129 -42 309 -38.5t424 161.5
l126 -443q-172 -79 -315.5 -113.5t-265.5 -34.5q-109 0 -222 21t-244 58q-120 38 -258 34t-317 -108l-151 346q11 12 25 27q63 60 118 152h-155v173h187q-3 11 -7 23q-7 22 -18 45h-162v173h86q-9 33 -9 70q0 54 15 117t62.5 123.5t143.5 110.5q114 56 276 83t357 27
q389 0 589 -105z" />
    <glyph glyph-name="peseta" unicode="&#x20a7;" horiz-adv-x="3717" 
d="M1588 777q-2 -51 -15.5 -114t-47 -127t-96.5 -118t-162.5 -87.5t-247.5 -33.5h-360v-297h-509v1391h869q136 0 231 -28.5t157.5 -75.5t99.5 -104.5t54 -116.5h64v325h509v-325h472q71 19 151 27t164 8q172 0 302 -33t205.5 -109.5t88.5 -206.5h-505q0 28 -31.5 51.5
t-75.5 23.5q-50 0 -64.5 -14.5t-14.5 -35.5q0 -15 12 -26t39 -17q98 -17 194 -33q130 -20 260 -45q92 -19 143.5 -61.5t72 -103t20.5 -132.5q0 -81 -25.5 -140.5t-71 -103t-104.5 -75.5q-62 -33 -134 -49t-146 -21t-138 -5q-104 0 -209 12t-206 58q-62 29 -111 74.5t-78 107
t-29 138.5h518q0 -44 33 -80t98 -36q30 0 62.5 14t38.5 48q2 22 -8 40t-34 25q-79 17 -189 32q-86 12 -170 27.5t-146 36.5q-105 39 -149 117t-36 184q0 7 1 14h-200v-377q1 -113 111 -113q21 0 42 2.5t30 3.5v-314q-148 -14 -263 -14h-9q-91 -1 -167.5 6t-133 38t-88 103
t-31.5 203v462h-37zM902 689q67 0 103 18t52 43.5t19.5 51.5t3.5 42t-3.5 42t-19.5 51.5t-52 43.5t-103 18h-243v-310h243z" />
    <glyph glyph-name="Euro" unicode="&#x20ac;" horiz-adv-x="2326" 
d="M752 1281q130 72 283 103t299 37.5t245 6.5q108 0 270 -8t327 -49l-216 -373q-53 18 -139 32.5t-242 14.5q-313 0 -454 -107q-25 -18 -43 -41h820l-100 -173h-781q-1 -18 -1 -34t1 -34h742l-100 -173h-581q18 -24 43 -42q141 -106 454 -106t454 106v-462
q-130 -19 -249.5 -23t-204.5 -4q-99 0 -245 6t-299 37.5t-283 102.5q-241 145 -302 385h-300l100 173h175v2q-1 16 -1 32t1 32v2h-275l100 173h200q61 240 302 384z" />
    <glyph glyph-name="uni2116" unicode="&#x2116;" horiz-adv-x="3819" 
d="M150 1380h690l523 -753v753h559v-1380h-691l-523 753v-753h-558v1380zM3263 453q-190 -29 -436 -29t-436 29t-298 130t-108 319t108 319t298 130t436 29t436 -29t298 -130t108 -319t-108 -319t-298 -130zM3598 304v-304h-1542v304h1542zM2624 772q68 -32 203 -32
t203 31.5t68 130.5q0 98 -68 130t-203 32t-203 -32t-68 -130q0 -99 68 -130z" />
    <glyph glyph-name="trademark" unicode="&#x2122;" horiz-adv-x="2564" 
d="M2129 1080l-183 -372h-251l-184 372l-13 37v-409h-272v672h389l205 -418l206 418h389v-672h-273v409zM1165 1380v-206h-371v-466h-273v466h-371v206h1015z" />
    <glyph glyph-name="partialdiff" unicode="&#x2202;" horiz-adv-x="2266" 
d="M1066 1123q-60 0 -154.5 -12t-197.5 -42.5t-193 -83.5l-205 296q103 58 233.5 90t266.5 44.5t250 12.5q86 0 226 -6q343 -15 541 -140q283 -193 283 -592t-283 -592q-193 -125 -501 -140q-126 -6 -212 -6q-240 0 -411 25q-243 34 -387 136q-172 122 -172 345
q0 199 167 304q137 86 363 111q137 15 321 15h38q158 0 285.5 -25.5t202.5 -56.5q-8 67 -42.5 135.5t-89.5 109.5q-106 72 -329 72zM1525 546q-113 35 -421 37q-186 -1 -276.5 -43.5t-90.5 -120.5q0 -51 49 -87.5t135.5 -55.5t198.5 -19q111 0 202 31.5t145 96t58 161.5z
" />
    <glyph glyph-name="Delta" unicode="&#x2206;" horiz-adv-x="2012" 
d="M1143 1380l719 -1380h-1712l718 1380h275zM1380 292l-374 720l-375 -720h749z" />
    <glyph glyph-name="product" unicode="&#x220f;" horiz-adv-x="1913" 
d="M150 1582h1613v-1988h-351v1639h-912v-1639h-350v1988z" />
    <glyph glyph-name="summation" unicode="&#x2211;" horiz-adv-x="1916" 
d="M632 -58h1134v-349h-1616v335l641 660l-641 660v335h1616v-349h-1134l626 -646z" />
    <glyph glyph-name="minus" unicode="&#x2212;" horiz-adv-x="1670" 
d="M150 758h1370v-376h-1370v376z" />
    <glyph glyph-name="radical" unicode="&#x221a;" horiz-adv-x="1642" 
d="M437 209l-163 -68l-124 294l458 192l219 -520l303 1475h362l-454 -1988h-342z" />
    <glyph glyph-name="infinity" unicode="&#x221e;" horiz-adv-x="1860" 
d="M551 117q-100 0 -191.5 41t-150.5 131.5t-59 238.5q0 149 59 239.5t150.5 131.5t191.5 41q136 0 225 -53.5t154 -136.5q65 83 154 136.5t225 53.5q100 0 191.5 -41t150.5 -131.5t59 -239.5q0 -148 -59 -238.5t-150.5 -131.5t-191.5 -41q-136 0 -225 53.5t-154 136.5
q-65 -83 -154 -136.5t-225 -53.5zM644 402q55 22 131 126q-76 105 -131 127.5t-88 17.5h-5q-61 0 -100 -42.5t-39 -102.5q0 -59 39 -101.5t100 -42.5h5q33 -5 88 18zM1309 673h-5q-33 5 -88 -17.5t-130 -127.5q75 -104 130 -126.5t88 -17.5h5q61 0 100 42.5t39 101.5
q0 60 -39 102.5t-100 42.5z" />
    <glyph glyph-name="integral" unicode="&#x222b;" horiz-adv-x="1346" 
d="M863 159q0 -284 -98 -425t-309 -141q-97 0 -158 20.5t-92.5 52.5t-39.5 69q-16 63 5 120.5t99 77.5q44 9 82 -1.5t62.5 -44.5t24.5 -96q0 -25 8.5 -51.5t42.5 -22.5q26 5 30 26.5t1 47.5l-38 418v808q0 284 98 425t309 141q97 0 157.5 -20t92.5 -52.5t40 -69.5
q16 -63 -5 -120.5t-99 -77.5q-44 -9 -82 2t-62.5 45t-24.5 95q0 25 -8 51.5t-44 22.5q-26 -5 -29.5 -26.5t-0.5 -47.5l38 -418v-808z" />
    <glyph glyph-name="approxequal" unicode="&#x2248;" horiz-adv-x="1794" 
d="M1359 1044h285q-3 -7 -5 -14q-36 -108 -80 -206t-108 -147q-153 -97 -371 -46l-443 85q-158 32 -202 -88h-285q3 7 5 13q36 108 80 206.5t108 146.5q154 98 372 47l442 -85q158 -32 202 88zM1359 524h285q-3 -7 -5 -14q-36 -108 -80 -206t-108 -147q-153 -96 -371 -46
l-249 49l-194 37q-158 32 -202 -89h-285q3 7 5 14q36 108 80 206t108 147q154 97 372 46l442 -85q158 -31 202 88z" />
    <glyph glyph-name="lessequal" unicode="&#x2264;" horiz-adv-x="1467" 
d="M1315 587v-319l-1165 328v288l1165 329v-319l-598 -153zM1317 224v-292h-1167v292h1167z" />
    <glyph glyph-name="greaterequal" unicode="&#x2265;" horiz-adv-x="1467" 
d="M151 587l599 154l-599 153v319l1166 -329v-288l-1166 -328v319zM1317 224v-292h-1167v292h1167z" />
    <glyph glyph-name="uniF001" unicode="&#xf001;" horiz-adv-x="1073" 
 />
    <glyph glyph-name="uniF001" unicode="&#xfb01;" horiz-adv-x="1073" 
 />
    <glyph glyph-name="uniF002" unicode="&#xf002;" horiz-adv-x="1081" 
 />
    <glyph glyph-name="uniF002" unicode="&#xfb02;" horiz-adv-x="1081" 
 />
    <glyph glyph-name="OE" unicode="&#x152;" horiz-adv-x="2995" 
d="M1500 1292v88h1329v-405h-770v-129h694v-304h-694v-138h786v-404h-1345v88q-97 -71 -226.5 -103.5t-285.5 -32.5q-242 0 -431 80t-298 243.5t-109 414.5t109 414.5t298 243.5t431 80q156 0 285.5 -32.5t226.5 -103.5zM854 439q108 -77 269 -77t269 77t108 251t-108 251
t-269 77t-269 -77t-108 -251t108 -251z" />
    <glyph glyph-name="oe" unicode="&#x153;" horiz-adv-x="3074" 
d="M1636 999q3 1 5 2t4 3h1l10 6q121 59 239 70.5t211 11.5q102 0 277.5 -15.5t313.5 -96.5q133 -87 185 -223q31 -82 36.5 -167.5t4.5 -144.5q-1 -13 -1 -24h-1119q29 -90 114.5 -121t188.5 -31t160.5 14.5t94.5 51.5h534q-48 -160 -198 -259q-138 -80 -313.5 -95.5
t-277.5 -15.5q-93 0 -211 11.5t-239 70.5l-3 2h-1l-6 4h-2l-12 7q-1 1 -3 2q-12 7 -23 14q-38 25 -70 53q-31 -28 -69 -53q-132 -80 -264.5 -95.5t-235.5 -15.5t-278 15.5t-313 95.5q-118 77 -172 193.5t-54 259.5q0 142 54 258t172 193q138 81 313 96.5t278 15.5
t235.5 -15.5t264.5 -96.5q38 -24 69 -53q32 29 70 53q15 10 30 19zM1240 355q49 51 49 174q0 122 -49.5 173.5t-123.5 62.5t-149 11t-149.5 -11t-124 -62.5t-49.5 -173.5q0 -123 49.5 -174.5t124 -62.5t149.5 -11t149 11t124 63zM2294 757q-85 31 -188 31t-188.5 -31
t-114.5 -121h606q-30 90 -115 121z" />
    <glyph glyph-name="Zcaron" unicode="&#x17d;" horiz-adv-x="2313" 
d="M170 1380h1967v-422l-1053 -536h1079v-422h-2013v422l1053 536h-1033v422zM1347 1809h596l-375 -276h-824l-374 276h596l191 -189z" />
    <glyph glyph-name="zcaron" unicode="&#x17e;" horiz-adv-x="1955" 
d="M199 714v343h1593v-301l-785 -413h798v-343h-1655v300l786 414h-737zM977 1284l191 190h596l-375 -276h-824l-374 276h596z" />
    <glyph glyph-name="Scaron" unicode="&#x160;" horiz-adv-x="2470" 
d="M963 1047q-85 -14 -85 -54t85 -46q186 -19 383 -33q291 -19 530 -52q149 -22 247.5 -65t147.5 -122t49 -211q0 -90 -35 -159.5t-92 -121.5t-125 -88.5t-136 -60.5q-157 -53 -349.5 -67.5t-349.5 -14.5q-99 0 -229 6t-266.5 30t-260.5 75.5t-215 141.5q-52 50 -82 106.5
t-30 146.5h659q0 -78 109 -108.5t315 -30.5q149 0 235 13t122 35t36 47q0 42 -77.5 59.5t-302.5 32.5q-6 1 -12 1q-266 20 -468 41.5t-310 56.5q-286 102 -254 384q20 141 123 231t237 131q142 44 306 60.5t328 16.5q163 0 319.5 -19t297.5 -63q201 -70 297.5 -178
t102.5 -192h-659q0 42 -105 63.5t-253 21.5q-149 0 -233 -14zM2022 1809l-375 -276h-824l-375 276h596l191 -189l191 189h596z" />
    <glyph glyph-name="scaron" unicode="&#x161;" horiz-adv-x="2147" 
d="M1179 791q-66 5 -139 5q-84 0 -151 -1.5t-105.5 -9.5t-38.5 -25q0 -23 60 -32q97 -13 436 -35q191 -12 333 -27.5t236.5 -47.5t140.5 -94t46 -168q0 -126 -107 -214q-88 -72 -223 -115q-160 -48 -400 -58q-106 -4 -195 -4q-84 0 -193 3.5t-224.5 21t-222 57.5t-187.5 111
q-44 38 -69.5 81.5t-25.5 111.5h627q0 -36 37.5 -55.5t104 -27t153.5 -7.5q94 0 170 4.5t120.5 19t44.5 43.5q0 24 -44 35q-73 13 -466 37q-165 9 -295.5 21.5t-215.5 37.5q-218 69 -218 261q0 97 60 163q91 100 266 150q209 58 546 58q326 0 547 -62q171 -54 258.5 -136
t94.5 -146h-613q0 17 -41.5 28t-106.5 16zM1860 1474l-374 -276h-824l-375 276h596l191 -190l190 190h596z" />
    <glyph glyph-name="Scircumflex" unicode="&#x15c;" horiz-adv-x="2470" 
d="M878 993q0 -40 85 -46q186 -19 383 -33q291 -19 530 -52q149 -22 247.5 -65t147.5 -122t49 -211q0 -90 -35 -159.5t-92 -121.5t-125 -88.5t-136 -60.5q-157 -53 -349.5 -67.5t-349.5 -14.5q-99 0 -229 6t-266.5 30t-260.5 75.5t-215 141.5q-52 50 -82 106.5t-30 146.5
h659q0 -78 109 -108.5t315 -30.5q149 0 235 13t122 35t36 47q0 42 -77.5 59.5t-302.5 32.5q-6 1 -12 1q-266 20 -468 41.5t-310 56.5q-286 102 -254 384q20 141 123 231t237 131q142 44 306 60.5t328 16.5q163 0 319.5 -19t297.5 -63q201 -70 297.5 -178t102.5 -192h-659
q0 42 -105 63.5t-253 21.5q-149 0 -233.5 -14t-84.5 -54zM1235 1723l-191 -190h-596l375 276h824l375 -276h-596z" />
    <glyph glyph-name="scircumflex" unicode="&#x15d;" horiz-adv-x="2147" 
d="M1574 666q142 -16 236.5 -48t140.5 -94t46 -168q0 -126 -107 -214q-88 -72 -223 -115q-160 -48 -400 -58q-106 -4 -195 -4q-84 0 -193 3.5t-224.5 21t-222 57.5t-187.5 111q-44 38 -69.5 81.5t-25.5 111.5h627q0 -36 37.5 -55.5t104 -27t153.5 -7.5q94 0 170 4.5
t120.5 19t44.5 43.5q0 24 -44 35q-73 13 -466 37q-165 9 -295.5 21.5t-215.5 37.5q-218 69 -218 261q0 97 60 163q91 100 266 150q209 58 546 58q326 0 547 -62q171 -54 258.5 -136t94.5 -146h-613q0 17 -41.5 28t-107 16t-138.5 5q-84 0 -151 -1.5t-105.5 -9.5t-38.5 -25
q0 -23 60 -32q97 -13 436 -35q191 -12 333 -27zM1264 1198l-190 189l-191 -189h-596l375 276h824l374 -276h-596z" />
    <glyph glyph-name="perthousand" unicode="&#x2030;" horiz-adv-x="4081" 
d="M1677 345q0 187 161 294q84 48 195.5 61.5t184.5 13.5q72 0 184 -13.5t195 -61.5q161 -107 161 -294t-161 -293q-83 -48 -195 -62t-184 -14q-73 0 -184.5 14t-195.5 62q-161 106 -161 293zM3206 -10q-112 14 -195 62q-161 106 -161 293t161 294q83 48 195 61.5t184 13.5
t184 -13.5t196 -61.5q161 -107 161 -294t-161 -293q-84 -48 -196 -62t-184 -14t-184 14zM150 1011q0 186 160 293q84 48 196 62t184 14t184 -14t195 -62q161 -107 161 -293q0 -188 -161 -294q-83 -48 -195 -61.5t-184 -13.5t-184 13.5t-196 61.5q-160 106 -160 294zM624 -48
l1343 1428h294l-1342 -1428h-295zM3304 503q-55 -8 -93 -31q-33 -22 -50 -56.5t-17 -70.5t17 -70.5t50 -56.5q38 -23 92.5 -30t86.5 -7q33 0 87 7t92 30q34 22 51 56.5t17 70.5t-17 70.5t-51 56.5q-38 23 -92 30.5t-87 7.5q-32 0 -86 -7zM1989 275q16 -35 49 -57
q39 -23 93 -30t87 -7t87 7t92 30q33 22 50 56.5t17 70.5t-17 70.5t-50 56.5q-38 23 -92 30.5t-87 7.5t-87 -7.5t-93 -30.5q-33 -22 -49.5 -56.5t-16.5 -70.5t17 -70zM920 1081q-17 34 -51 57q-39 22 -93 29.5t-86 7.5q-33 0 -87 -7.5t-92 -29.5q-34 -23 -51 -57.5t-17 -69.5
q0 -36 17 -70.5t51 -56.5q38 -23 92 -30.5t87 -7.5q32 0 86 7.5t93 30.5q34 22 50.5 56.5t16.5 70.5q0 35 -16 70z" />
    <glyph glyph-name="uni2031" unicode="&#x2031;" horiz-adv-x="5253" 
d="M1231 1010q0 -186 -161 -293q-84 -48 -195.5 -62t-184.5 -14q-72 0 -184 14t-195 62q-161 107 -161 293q0 188 161 295q83 48 195 61.5t184 13.5q73 0 184.5 -13.5t195.5 -61.5q161 -107 161 -295zM3207 701q111 14 183 14q73 0 184.5 -14t195.5 -62q161 -107 161 -293
q0 -188 -161 -295q-84 -48 -195.5 -61.5t-184.5 -13.5q-72 0 -183.5 13.5t-195.5 61.5q-161 107 -161 295q0 186 161 293q84 48 196 62zM4747 -11q-112 -13 -185 -13q-72 0 -183.5 13.5t-195.5 61.5q-161 107 -161 295q0 186 161 293q84 48 195.5 62t183.5 14
q73 0 184.5 -14t195.5 -62q161 -107 161 -293q0 -188 -161 -295q-84 -48 -195 -62zM1838 639q84 48 196 62t184 14t184 -14t196 -62q160 -107 160 -293q0 -188 -160 -295q-84 -48 -196 -61.5t-184 -13.5t-184 13.5t-196 61.5q-160 107 -160 295q0 186 160 293zM919 -48h-295
l1343 1428h294zM4562 510q-32 0 -86 -7.5t-93 -29.5q-67 -56 -67 -127q0 -72 67 -128q39 -22 93 -29.5t86 -7.5q33 0 87 7.5t93 29.5q67 56 67 128q0 71 -67 127q-39 22 -93 29.5t-87 7.5zM511 883q38 -22 92 -29t87 -7t87 7t93 29q66 56 66 127q0 72 -66 128
q-39 22 -93 29.5t-87 7.5t-87 -7.5t-92 -29.5q-67 -56 -67 -128q0 -71 67 -127zM2039 218q38 -22 92 -29.5t87 -7.5t87 7.5t92 29.5q34 23 50.5 57.5t16.5 70.5q0 35 -16.5 69.5t-50.5 57.5q-38 22 -92 29.5t-87 7.5t-87 -7.5t-92 -29.5q-67 -56 -67 -127q0 -72 67 -128z
M3144 346q0 -72 67 -128q38 -22 92 -29.5t87 -7.5t87 7.5t92 29.5q34 23 50.5 57.5t16.5 70.5q0 35 -16.5 69.5t-50.5 57.5q-38 22 -92 29.5t-87 7.5t-87 -7.5t-92 -29.5q-67 -56 -67 -127z" />
    <glyph glyph-name="uni2070" unicode="&#x2070;" horiz-adv-x="1254" 
d="M293 1602q47 29 108.5 43.5t122.5 19t103 4.5q43 0 104 -4.5t122.5 -19t108.5 -43.5q71 -45 106.5 -110.5t35.5 -148.5t-35.5 -149t-106.5 -110q-47 -29 -108.5 -43.5t-122.5 -19t-104 -4.5q-42 0 -103 4.5t-122.5 19t-108.5 43.5q-143 93 -143 259q0 83 36 148.5
t107 110.5zM830 1281q15 30 15 62t-15 62t-45 50q-33 20 -81 26.5t-77 6.5t-76.5 -6.5t-81.5 -26.5q-29 -20 -44 -50t-15 -62t15 -62.5t44 -50.5q34 -19 81.5 -25.5t76.5 -6.5t77 6.5t81 25.5q30 20 45 51z" />
    <glyph glyph-name="uni2074" unicode="&#x2074;" horiz-adv-x="1235" 
d="M1016 1648v-341h69v-179h-69v-90h-247v90h-619v209l503 311h363zM457 1307h312v196z" />
    <glyph glyph-name="uni2075" unicode="&#x2075;" horiz-adv-x="1246" 
d="M865 1413q45 -8 86.5 -21t74 -33t51.5 -49.5t19 -68.5q0 -30 -14 -59.5t-36 -52.5q-40 -40 -94 -62.5t-113.5 -33.5t-116.5 -13.5t-100 -2.5t-99.5 2.5t-116 13.5t-113.5 33.5t-94 62.5q-23 24 -36 53.5t-13 51.5h297q3 -34 48 -44.5t127 -10.5q88 0 131.5 14t43.5 48
t-43.5 47.5t-131.5 13.5q-54 0 -102.5 -6.5t-62.5 -20.5h-286l90 373h783v-179h-608l-15 -62q84 21 201 21q29 0 68.5 -1t84 -4t90.5 -10z" />
    <glyph glyph-name="uni2076" unicode="&#x2076;" horiz-adv-x="1243" 
d="M477 1472q-37 -23 -44 -78q80 36 202 36h14q53 1 126 -2.5t143.5 -20.5t119 -56.5t53.5 -109.5q2 -79 -44 -124.5t-119.5 -67t-154.5 -27t-146 -5.5q-41 0 -101 2.5t-123.5 16.5t-116.5 45q-71 45 -103.5 112t-32.5 149q0 83 32.5 150.5t103.5 111.5q53 32 116.5 45.5
t123.5 16.5t101 3t102 -3t125.5 -16.5t117.5 -45.5q57 -37 81.5 -77.5t28.5 -71.5h-295q-7 22 -36 33.5t-64.5 14.5t-59.5 3q-48 0 -86.5 -8t-63.5 -26zM494 1277q-44 -11 -44 -43q0 -30 34 -40q36 -10 75.5 -12.5t67.5 -2.5q89 0 133.5 10.5t44.5 44.5t-44.5 44t-133.5 10
t-133 -11z" />
    <glyph glyph-name="uni2077" unicode="&#x2077;" horiz-adv-x="1168" 
d="M731 1469h-581v179h868v-218q-162 -81 -241 -152.5t-107 -131t-37 -104.5q-1 -2 -1 -4h-341q14 81 56.5 152.5t133.5 139.5t250 139z" />
    <glyph glyph-name="uni2078" unicode="&#x2078;" horiz-adv-x="1245" 
d="M840 1656q101 -14 162 -53.5t60 -113.5q-3 -39 -22.5 -64.5t-42 -39.5t-34.5 -19q2 0 6 -1q16 -3 45.5 -14.5t54 -39.5t26.5 -81q0 -71 -40 -114t-108 -64.5t-152.5 -28t-172.5 -6.5t-172.5 6.5t-152 28t-107.5 64.5t-40 114q2 53 26.5 81t53.5 39.5t46 14.5q3 1 6 1
q-12 5 -34.5 19t-42.5 39.5t-23 64.5q0 74 61 113.5t162.5 53t216.5 13.5q116 0 218 -13zM751 1188q44 8 44 43q0 24 -20 34.5t-58.5 13.5t-94.5 3q-55 0 -94 -3t-59 -13.5t-20 -34.5q0 -35 45 -43.5t128 -8.5q84 0 129 9zM738 1498q-35 8 -116 8q-80 0 -114.5 -8.5
t-34.5 -39.5q0 -30 34.5 -36t114.5 -6q81 0 115.5 6t34.5 36q0 31 -34 40z" />
    <glyph glyph-name="uni2079" unicode="&#x2079;" horiz-adv-x="1243" 
d="M468 1258q-73 3 -144 20t-119 56.5t-53 110.5q-2 78 44 124t119.5 67.5t154.5 27t145 5.5q41 0 101.5 -3t124 -16.5t116.5 -45.5q71 -44 103.5 -111.5t32.5 -150.5q0 -82 -32.5 -149t-103.5 -112q-53 -31 -116.5 -45t-124 -16.5t-101.5 -2.5q-40 0 -101.5 2.5
t-125.5 16.5t-118 45q-57 38 -81.5 78t-27.5 71h294q8 -22 37 -33t64.5 -14.5t58.5 -3.5q49 0 87.5 8t63.5 26q36 24 45 78q-81 -36 -203 -36h-14q-54 -1 -126 3zM758 1492q-35 10 -74.5 12t-68.5 2q-88 1 -132.5 -9.5t-44.5 -44.5t44.5 -45t132.5 -10q89 0 133.5 11
t44.5 44q0 30 -35 40z" />
    <glyph glyph-name="uni2080" unicode="&#x2080;" horiz-adv-x="1254" 
d="M962 276q70 -44 106 -110t36 -149t-36 -149t-106 -111q-48 -28 -109.5 -42.5t-122.5 -19t-103 -4.5t-103 4.5t-122.5 19t-109.5 42.5q-142 95 -142 260q0 166 142 259q48 29 109.5 43.5t122.5 19t103 4.5t103 -4.5t122.5 -19t109.5 -43.5zM830 -46q14 31 14 63t-14.5 62
t-44.5 50q-34 20 -81.5 26.5t-76.5 6.5t-77 -6.5t-81 -26.5q-30 -20 -44.5 -50t-14.5 -62t14.5 -62.5t44.5 -49.5q33 -21 81 -27t77 -6t76.5 6t81.5 27q30 19 45 49z" />
    <glyph glyph-name="uni2081" unicode="&#x2081;" horiz-adv-x="824" 
d="M457 322h217v-610h-246v401h-278v109q276 0 307 100z" />
    <glyph glyph-name="uni2082" unicode="&#x2082;" horiz-adv-x="1251" 
d="M648 181q-98 0 -133 -18t-38 -55h-290q0 55 46 112.5t135 88.5q62 19 135 26.5t145 7.5t144.5 -7.5t135.5 -26.5q59 -17 104 -50t55 -95q14 -122 -112 -163q-53 -19 -133 -32.5t-216 -29.5q-132 -14 -170 -45q-2 -1 -3 -4h623v-178h-926q3 15 5 29q12 87 42 156
t119 116.5t277 69.5q89 10 132.5 19.5t55.5 20.5t7 25q-9 33 -140 33z" />
    <glyph glyph-name="uni2083" unicode="&#x2083;" horiz-adv-x="1253" 
d="M478 -46v138h153q84 0 117 6t33 34q0 30 -34.5 39.5t-115.5 9.5q-72 0 -107.5 -8t-40.5 -30h-308q0 42 29.5 83.5t67.5 62.5q63 32 158 43t201 11q116 0 217.5 -13.5t162.5 -53t60 -113.5q-3 -39 -23 -64.5t-42.5 -39.5t-33.5 -19q2 0 5 -1q17 -3 46 -14.5t54 -39.5
t27 -80q-1 -72 -40.5 -115t-107.5 -64.5t-152.5 -28t-172.5 -6.5q-97 0 -190 8.5t-162.5 36.5t-101.5 85q-25 45 -27 94h308v-6q0 -33 45 -44.5t128 -11.5q84 0 128.5 11.5t44.5 44.5q0 30 -34.5 37.5t-138.5 7.5h-153z" />
    <glyph glyph-name="uni2084" unicode="&#x2084;" horiz-adv-x="1235" 
d="M1016 322v-341h69v-179h-69v-90h-247v90h-619v209l503 311h363zM457 -19h312v196z" />
    <glyph glyph-name="uni2085" unicode="&#x2085;" horiz-adv-x="1245" 
d="M865 87q45 -8 86.5 -21t74 -33t51.5 -49.5t19 -68.5q0 -30 -14 -59.5t-37 -52.5q-39 -40 -93.5 -62.5t-114 -33.5t-116 -13.5t-99.5 -2.5t-99.5 2.5t-116 13.5t-114 33.5t-93.5 62.5q-23 24 -36 53.5t-13 51.5h297q3 -34 47.5 -44.5t127.5 -10.5q88 0 131.5 14t43.5 48
t-43.5 47.5t-131.5 13.5q-54 0 -103 -6.5t-62 -20.5h-286l89 373h784v-179h-608l-15 -62q84 21 201 21q29 0 68 -1t84 -4t91 -10z" />
    <glyph glyph-name="uni2086" unicode="&#x2086;" horiz-adv-x="1242" 
d="M477 146q-37 -23 -45 -78q81 37 203 37h14q53 0 126 -3.5t143.5 -20.5t119 -56t53.5 -110q2 -79 -44 -124.5t-119.5 -67t-154.5 -27t-146 -5.5q-41 0 -101 2.5t-123.5 16.5t-116.5 46q-71 44 -103.5 111t-32.5 150t32.5 150t103.5 111q53 32 116.5 46t123.5 16.5t101 2.5
t102 -2.5t125.5 -16.5t117.5 -46q57 -37 81.5 -77.5t28.5 -71.5h-295q-7 22 -36 33.5t-64.5 15t-59.5 3.5q-48 0 -86.5 -8.5t-63.5 -26.5zM484 -132q36 -10 75.5 -12.5t67.5 -2.5q89 0 133.5 10.5t44.5 44.5t-44.5 44t-133.5 10t-133 -10.5t-44 -43.5q0 -15 9 -25t25 -15z
" />
    <glyph glyph-name="uni2087" unicode="&#x2087;" horiz-adv-x="1169" 
d="M731 143h-581v179h869v-217q-163 -82 -242 -153t-107 -130.5t-37 -105.5q-1 -2 -1 -4h-341q14 82 56.5 153t133.5 139t250 139z" />
    <glyph glyph-name="uni2088" unicode="&#x2088;" horiz-adv-x="1245" 
d="M840 330q101 -14 162 -53.5t60 -113.5q-2 -39 -22 -64.5t-42.5 -39.5t-33.5 -19q2 0 5 -1q16 -3 45.5 -14.5t54 -39.5t26.5 -80q0 -72 -40 -115t-107.5 -64.5t-152 -28t-172.5 -6.5t-172.5 6.5t-152.5 28t-108 64.5t-40 115q2 51 26.5 79.5t54 40t45.5 14.5q3 1 6 1
q-12 5 -34.5 19t-42 39.5t-22.5 64.5q-1 74 60 113.5t162.5 53t217.5 13.5q115 0 217 -13zM751 -139q44 9 44 45q0 23 -20 33.5t-58.5 13.5t-93.5 3q-56 0 -94.5 -3t-58.5 -13.5t-20 -33.5q0 -36 44.5 -44.5t128.5 -8.5q83 0 128 8zM738 172q-35 9 -115 9q-81 0 -115.5 -9
t-34.5 -39q0 -31 34.5 -37t115.5 -6q80 0 114.5 6t34.5 37q0 30 -34 39z" />
    <glyph glyph-name="uni2089" unicode="&#x2089;" horiz-adv-x="1243" 
d="M468 -68q-73 4 -143.5 21t-119 56t-53.5 110q-2 79 44 124.5t119.5 67t154.5 27t146 5.5q41 0 101 -2.5t123.5 -16.5t116.5 -46q71 -44 103.5 -111t32.5 -150t-32.5 -150t-103.5 -111q-53 -32 -116.5 -46t-123.5 -16.5t-101 -2.5t-102.5 2.5t-125.5 16.5t-117 46
q-58 37 -82 77.5t-28 71.5h295q7 -23 36 -34t64.5 -14.5t59.5 -3.5q48 0 86.5 8t63.5 26q37 24 44 78q-80 -36 -202 -36h-14q-54 -1 -126 3zM759 166q-36 10 -75.5 12.5t-67.5 2.5q-89 0 -133.5 -10.5t-44.5 -44.5t44.5 -44.5t133.5 -10.5t133 11t44 44q0 30 -34 40z" />
    <glyph glyph-name="Amacron" unicode="&#x100;" horiz-adv-x="2685" 
d="M829 0h-679l838 1380h709l838 -1380h-679l-94 177h-839zM720 1552v239h1245v-239h-1245zM1549 582l-207 393l-207 -393h414z" />
    <glyph glyph-name="amacron" unicode="&#x101;" horiz-adv-x="2245" 
d="M2095 0h-573q-23 40 -23 88v38q-118 -79 -291 -120t-358 -41q-198 0 -356.5 20t-251 88t-92.5 213q0 124 65.5 185.5t193 87t313.5 36.5q15 1 31 2q286 19 498.5 43.5t212.5 72.5q0 31 -62 44t-141.5 16t-139.5 3h-8q-83 0 -178.5 -10.5t-115.5 -52.5h-587
q15 104 119.5 190.5t248.5 128.5q236 59 513 59q158 0 324 -13t306 -52t227 -114t87 -199v-594q0 -37 12.5 -70t25.5 -49zM1790 1217h-1245v238h1245v-238zM1249 416q-96 -10 -191 -18q-96 -8 -169 -16t-100 -20q-37 -19 -37 -47q0 -41 64.5 -52.5t149 -8t153.5 10.5
q5 0 10 1q47 3 133.5 22t161.5 59.5t75 109.5q-14 -8 -68.5 -17.5t-181.5 -23.5z" />
    <glyph glyph-name="Abreve" unicode="&#x102;" horiz-adv-x="2684" 
d="M2534 0h-679l-94 177h-839l-94 -177h-678l837 1380h710zM1447 1738q50 4 88 23q28 16 45.5 41t17.5 46h307q0 -153 -106 -244q-75 -61 -179 -85t-279 -24q-173 0 -277.5 24t-179.5 85q-106 91 -106 244h307q0 -21 17.5 -46t44.5 -41q39 -19 89.5 -23.5t104.5 -4.5
q55 0 106 5zM1135 582h413l-207 393z" />
    <glyph glyph-name="abreve" unicode="&#x103;" horiz-adv-x="2246" 
d="M2096 0h-574q-23 40 -23 88v38q-117 -79 -290 -120t-359 -41q-198 0 -356.5 20t-251 88t-92.5 213q0 124 65.5 185.5t193 87t313.5 36.5l32 2q286 20 498.5 44t212.5 72q0 31 -62.5 44t-142 16t-139.5 3h-8q-83 0 -178.5 -10.5t-115.5 -52.5h-587q15 104 119.5 190.5
t248.5 128.5q236 59 513 59q158 0 324 -13t306 -52t227 -114t87 -199v-594q0 -37 12.5 -70t26.5 -49zM890 1183q-105 24 -180 85q-106 91 -106 244h307q0 -21 18 -46t45 -40q38 -20 88.5 -24.5t105.5 -4.5t105.5 4.5t88.5 24.5q27 15 45 40t18 46h306q0 -153 -106 -244
q-109 -109 -457 -109q-174 0 -278 24zM789 362q-38 -19 -38 -47q0 -41 65 -52.5t150 -8t154 10.5q4 0 9 1q47 3 134 22t161.5 59.5t74.5 109.5q-14 -8 -68.5 -17.5t-181.5 -23.5q-96 -10 -191 -18q-97 -8 -169 -16t-100 -20z" />
    <glyph glyph-name="Aogonek" unicode="&#x104;" horiz-adv-x="2684" 
d="M2023 -421q-123 -17 -245 2q-71 12 -122.5 50t-51.5 117q0 55 44 102.5t102 85.5t105 64l-93 177h-840l-93 -177h-679l837 1380h710l837 -1380h-431q-15 -4 -56.5 -43t-80 -92t-38.5 -94q0 -39 28.5 -56.5t59.5 -13.5q25 4 61.5 11t104.5 23l35 -113q-72 -25 -194 -43z
M1135 582h414l-207 393z" />
    <glyph glyph-name="aogonek" unicode="&#x105;" horiz-adv-x="2246" 
d="M850 -35q-198 0 -356.5 20t-251 88t-92.5 213q0 124 66 185.5t193 87t313 36.5l32 2q286 20 498.5 44t212.5 72q0 31 -62 44t-142 16t-140 3h-8q-83 0 -178.5 -10.5t-115.5 -52.5h-587q15 104 119.5 190.5t248.5 128.5q236 59 513 59q158 0 324.5 -13t306 -52t227 -114
t87.5 -199v-594q0 -37 12 -70t26 -49h-327q-15 -4 -56 -43t-79.5 -92t-38.5 -94q0 -39 28 -56.5t59 -13.5q26 4 62 11t104 23l35 -113q-71 -25 -193.5 -42.5t-244.5 1.5q-71 12 -122.5 50t-51.5 117q0 55 44 102.5t101.5 85.5t105.5 64q-23 40 -23 88v38q-117 -79 -290 -120
t-359 -41zM889 382q-72 -8 -100 -20q-37 -19 -37 -47q0 -41 64.5 -52.5t149.5 -8t154 10.5q4 0 9 1q47 3 134 22t161.5 59.5t74.5 109.5q-14 -8 -68.5 -17.5t-181.5 -23.5q-96 -10 -191 -18q-96 -8 -169 -16z" />
    <glyph glyph-name="Cacute" unicode="&#x106;" horiz-adv-x="2601" 
d="M851 938q-62 -47 -83.5 -120t-21.5 -128q0 -56 21.5 -128.5t83.5 -120.5q58 -37 150.5 -54t180.5 -21t124 -4q35 0 117.5 4t169.5 21t145 54q63 49 85 120h628q-40 -294 -318 -463q-129 -72 -282.5 -103t-299.5 -37t-245 -6q-100 0 -246 6t-299 37t-282 103
q-172 101 -250.5 253t-78.5 339t78.5 339t250.5 253q129 71 282 102t299 37t246 6q99 0 245 -6t299.5 -37t282.5 -102q278 -169 318 -463h-628q-22 71 -85 119q-58 38 -145 55t-169.5 21t-117.5 4q-36 0 -124 -4t-180.5 -21t-150.5 -55zM1224 1809h638l-374 -276h-511z" />
    <glyph glyph-name="cacute" unicode="&#x107;" horiz-adv-x="2243" 
d="M1343 -31q-128 -4 -210 -4q-83 0 -210 4.5t-260.5 28.5t-240.5 79q-142 76 -207 192.5t-65 258.5q0 143 65 259.5t207 192.5q107 55 240.5 78.5t260.5 28t210 4.5q82 0 209.5 -4.5t260.5 -28t241 -78.5q231 -131 249 -342h-586q-20 64 -83 93.5t-144 37t-147 7.5
q-90 0 -185.5 -11t-160.5 -62.5t-65 -174.5q0 -122 65 -174t160.5 -62.5t185.5 -10.5q66 0 147 7.5t144 37t83 93.5h586q-18 -212 -249 -342q-108 -55 -241 -79t-260 -29zM1353 1198h-511l247 276h638z" />
    <glyph glyph-name="Ccircumflex" unicode="&#x108;" horiz-adv-x="2601" 
d="M1424 1014q-83 4 -119 4q-330 0 -454 -80q-105 -80 -105 -248q0 -169 105 -249q58 -37 150 -54q137 -25 304 -25q310 0 432 79q64 49 86 120h628q-40 -294 -319 -463q-129 -72 -282 -103t-299 -37t-246 -6q-99 0 -245 6q-356 15 -582 140q-328 193 -328 592
q0 398 328 592q226 124 582 139q146 6 245 6q100 0 246 -6t299 -37t282 -102q279 -169 319 -463h-628q-22 71 -86 119q-57 38 -144 55t-169 21zM1491 1533l-190 190l-191 -190h-596l374 276h825l374 -276h-596z" />
    <glyph glyph-name="ccircumflex" unicode="&#x109;" horiz-adv-x="2244" 
d="M1343 1087q314 -12 501 -107q230 -131 250 -342h-587q-19 64 -82.5 93.5t-144.5 37t-147 7.5q-90 0 -185.5 -11t-160.5 -62.5t-65 -174.5q0 -122 65 -174t160.5 -62.5t185.5 -10.5q66 0 147 7.5t144.5 37t82.5 93.5h587q-20 -212 -250 -342q-107 -55 -240.5 -79
t-261 -28.5t-209.5 -4.5t-210 5q-314 11 -501 107q-272 147 -272 451q0 305 272 452q187 95 501 107l210 4q82 0 210 -4zM1909 1198h-596l-191 189l-190 -189h-597l375 276h824z" />
    <glyph glyph-name="Cdotaccent" unicode="&#x10a;" horiz-adv-x="2602" 
d="M1738 441q63 49 85 120h629q-40 -294 -320 -463q-129 -72 -282 -103t-299 -37t-245 -6q-100 0 -246 6q-356 15 -582 140q-328 193 -328 592q0 398 328 592q226 124 582 139q146 6 246 6q99 0 245 -6t299 -37t282 -102q280 -169 320 -463h-629q-22 71 -85 119
q-58 38 -145 55t-169.5 21t-117.5 4q-330 0 -455 -80q-105 -80 -105 -248q0 -169 105 -249q58 -37 151 -54q137 -25 304 -25q309 0 432 79zM1560 1552h-518v239h518v-239z" />
    <glyph glyph-name="Ccaron" unicode="&#x10c;" horiz-adv-x="2601" 
d="M1423 1014q-82 4 -118 4q-330 0 -454 -80q-105 -80 -105 -248q0 -169 105 -249q57 -37 150 -54q137 -25 304 -25q309 0 432 79q63 49 86 120h628q-40 -294 -319 -463q-129 -72 -282.5 -103t-299.5 -37t-245 -6q-100 0 -245 6q-357 15 -582 140q-328 193 -328 592
q0 398 328 592q225 124 582 139q145 6 245 6q99 0 245 -6t299.5 -37t282.5 -102q279 -169 319 -463h-628q-23 71 -86 119q-57 38 -144.5 55t-169.5 21zM2087 1809l-375 -276h-824l-375 276h597l190 -189l191 189h596z" />
    <glyph glyph-name="ccaron" unicode="&#x10d;" horiz-adv-x="2243" 
d="M1343 1087q314 -12 501 -107q231 -131 249 -342h-586q-19 64 -82.5 93.5t-144.5 37t-147 7.5q-90 0 -185.5 -11t-160.5 -62.5t-65 -174.5q0 -122 65 -174t160.5 -62.5t185.5 -10.5q66 0 147 7.5t144.5 37t82.5 93.5h586q-18 -212 -249 -342q-107 -55 -240.5 -79
t-261 -28.5t-209.5 -4.5t-210 5q-314 11 -501 107q-272 147 -272 451q0 305 272 452q187 95 501 107l210 4q82 0 210 -4zM1534 1198h-824l-375 276h596l191 -190l190 190h596z" />
    <glyph glyph-name="emacron" unicode="&#x113;" horiz-adv-x="2267" 
d="M1351 1086q460 -18 642 -216q99 -109 116 -280q8 -80 8 -169h-1375q31 -68 94.5 -101t143 -42.5t153.5 -9.5q78 0 173.5 15t146.5 52h631q-59 -160 -239 -259q-107 -54 -240.5 -78t-261 -28.5t-210.5 -4.5q-82 0 -209 5q-315 11 -502 106q-272 147 -272 452
q0 304 272 451q184 95 494 107q126 5 217 5q92 0 218 -5zM1755 1217h-1245v238h1245v-238zM1133 788q-74 0 -153 -10q-183 -21 -238 -143h783q-55 122 -238 143q-79 10 -154 10z" />
    <glyph glyph-name="Ebreve" unicode="&#x114;" horiz-adv-x="2265" 
d="M2023 542h-1315v-138h1407v-404h-1965v1380h1950v-405h-1392v-129h1315v-304zM1132 1495q-173 0 -277.5 24t-179.5 85q-106 91 -106 244h307q0 -21 17.5 -46t44.5 -41q39 -19 89.5 -23.5t104.5 -4.5q55 0 105.5 4.5t88.5 23.5q28 16 45.5 41t17.5 46h307
q0 -153 -106 -244q-75 -61 -179 -85t-279 -24z" />
    <glyph glyph-name="ebreve" unicode="&#x115;" horiz-adv-x="2267" 
d="M742 421q31 -68 94.5 -101t143 -42.5t153.5 -9.5q78 0 173.5 15t146.5 52h631q-59 -160 -239 -259q-107 -54 -240.5 -78t-261 -28.5t-210.5 -4.5q-82 0 -209 5q-315 11 -502 106q-272 147 -272 452q0 304 272 451q184 95 494 107q126 5 217 5q92 0 218 -5
q460 -18 642 -216q99 -109 116 -280q8 -80 8 -169h-1375zM938 1426q39 -20 89.5 -24.5t105.5 -4.5q54 0 105 4.5t89 24.5q27 15 44.5 40t17.5 46h307q0 -153 -106 -244q-110 -109 -457 -109q-175 0 -279 24t-179 85q-106 91 -106 244h307q0 -21 17.5 -46t44.5 -40zM742 635
h783q-55 122 -238 143q-79 10 -154 10q-74 0 -153 -10q-183 -21 -238 -143z" />
    <glyph glyph-name="Edotaccent" unicode="&#x116;" horiz-adv-x="2265" 
d="M2023 542h-1315v-138h1407v-404h-1965v1380h1950v-405h-1392v-129h1315v-304zM1392 1791v-239h-518v239h518z" />
    <glyph glyph-name="Eogonek" unicode="&#x118;" horiz-adv-x="2286" 
d="M1886 -135q-39 -53 -39 -94q0 -39 28 -56q24 -15 49 -15l11 1q69 11 165 34l36 -113q-71 -25 -194 -43q-58 -8 -115 -8q-65 0 -129 10q-174 29 -174 167q0 55 43.5 102.5t101.5 85.5t105 64h-1624v1380h1950v-405h-1391v-129h1315v-304h-1315v-138h1407v-404h-94
q-15 -4 -56.5 -43t-79.5 -92z" />
    <glyph glyph-name="eogonek" unicode="&#x119;" horiz-adv-x="2267" 
d="M1150 -229q0 -39 28 -56q23 -15 48 -15q29 0 177 35l35 -113q-71 -25 -193 -42q-60 -9 -119 -9q-63 0 -125 10q-175 29 -175 167q0 67 61.5 122.5t130.5 95.5q-390 6 -596 110q-272 147 -272 452q0 304 272 451q184 95 494 107q126 5 217 5q92 0 218 -5q460 -18 642 -216
q99 -109 116 -280q8 -80 8 -169h-1375q31 -68 94.5 -101t143 -42.5t153.5 -9.5q78 0 173.5 15t146.5 52h631q-59 -160 -239 -259q-202 -102 -566 -109q-43 -39 -86 -95.5t-43 -100.5zM742 635h783q-55 122 -238 143q-79 10 -154 10q-74 0 -153 -10q-183 -21 -238 -143z" />
    <glyph glyph-name="ecaron" unicode="&#x11b;" horiz-adv-x="2268" 
d="M1453 335h631q-59 -160 -239 -259q-107 -54 -240.5 -78t-261 -28.5t-210.5 -4.5q-82 0 -209 5q-315 11 -502 106q-272 147 -272 452q0 304 272 451q184 95 494 107q126 5 217 5q92 0 218 -5q460 -18 642 -216q99 -109 116 -280q8 -80 8 -169h-1375q31 -68 94.5 -101
t143 -42.5t153.5 -9.5q78 0 173.5 15t146.5 52zM1920 1474l-375 -276h-824l-375 276h596l191 -190l190 190h597zM1525 635q-55 122 -238 143q-79 10 -154 10q-74 0 -153 -10q-183 -21 -238 -143h783z" />
    <glyph glyph-name="Gcircumflex" unicode="&#x11c;" horiz-adv-x="2560" 
d="M851 938q-62 -47 -83.5 -120t-21.5 -128q0 -56 21.5 -128.5t83.5 -120.5q58 -37 150.5 -54t180.5 -21t124 -4q396 0 494 116h-363v304h973v-782h-359l-61 164q-165 -126 -383 -177q-152 -35 -301 -35q-100 0 -245 6q-357 15 -582 140q-329 193 -329 592q0 398 329 592
q225 124 582 139q145 6 245 6q99 0 245 -6t299.5 -37t282.5 -102q118 -72 187 -174t82 -192h-659q-37 58 -190 84q-150 18 -247 18q-330 0 -455 -80zM868 1809h824l375 -276h-596l-191 190l-190 -190h-596z" />
    <glyph glyph-name="gcircumflex" unicode="&#x11d;" horiz-adv-x="2264" 
d="M860 -386q-183 14 -303 46q-145 42 -249 128.5t-119 191.5h629q14 -37 77 -52q87 -22 245 -22h79q67 0 143 6.5t134.5 40.5t58.5 116v89q-16 -11 -34 -19q-134 -66 -269 -86t-259 -20q-123 0 -268.5 15t-303.5 91q-271 138 -271 424t271 424q158 75 303.5 89.5
t268.5 14.5q124 0 259 -19.5t269 -84.5q34 -17 61 -39v109h532v-910q0 -252 -158 -374q-254 -173 -776 -173q-138 0 -320 14zM1323 769q-78 8 -148 8h-42q-79 0 -175 -9t-166 -54t-70 -151q0 -80 42 -124q74 -78 241 -87q61 -3 170 -4q70 0 156 9t155 53.5t69 152.5
q0 107 -69 151.5t-163 54.5zM1323 1198l-191 189l-190 -189h-597l375 276h824l375 -276h-596z" />
    <glyph glyph-name="Gbreve" unicode="&#x11e;" horiz-adv-x="2560" 
d="M1060 -42q-356 15 -582 140q-328 193 -328 592q0 398 328 592q226 124 582 139q146 6 245 6q100 0 246 -6t299 -37t283 -102q117 -72 186 -174t83 -192h-660q-37 58 -190 84q-150 18 -247 18q-330 0 -454 -80q-105 -80 -105 -248q0 -169 105 -249q58 -37 150 -54
q137 -25 304 -25q397 0 494 116h-362v304h973v-782h-359l-61 164q-165 -126 -383 -177q-152 -35 -302 -35q-99 0 -245 6zM1002 1519q-105 24 -180 85q-106 91 -106 244h307q0 -21 18 -46t45 -41q38 -19 88.5 -23.5t105.5 -4.5q54 0 105 4.5t89 23.5q27 16 45 41t18 46h306
q0 -153 -106 -244q-74 -61 -178.5 -85t-278.5 -24t-278 24z" />
    <glyph glyph-name="gbreve" unicode="&#x11f;" horiz-adv-x="2263" 
d="M1599 -364q-210 -36 -419 -36q-139 0 -321 14t-303 46q-144 42 -248.5 128.5t-119.5 191.5h630q14 -37 76 -52.5t139.5 -19t137.5 -2.5h15q82 -2 166.5 5.5t143.5 41.5t59 116v89q-16 -11 -34 -19q-134 -66 -269.5 -86t-258.5 -20q-124 0 -269.5 15t-302.5 91
q-142 72 -206.5 181t-64.5 243t64.5 243t206.5 181q157 75 302.5 89.5t269.5 14.5q123 0 258.5 -19.5t269.5 -84.5q33 -17 60 -39v109h532v-910q0 -252 -158 -374q-147 -100 -356 -137zM870 376q64 -20 134.5 -24t127.5 -4h14q83 -2 177 8t163 54.5t69 152.5
q0 107 -69.5 151.5t-163.5 54.5t-175 8h-15q-78 0 -174.5 -9t-166.5 -54t-70 -151q0 -80 42 -124t107 -63zM892 1466q18 -25 45 -40q38 -20 89 -24.5t105 -4.5q55 0 105.5 4.5t88.5 24.5q28 15 45.5 40t17.5 46h307q0 -153 -106 -244q-75 -61 -179 -85t-279 -24
q-347 0 -457 109q-106 91 -106 244h306q0 -21 18 -46z" />
    <glyph glyph-name="Gdotaccent" unicode="&#x120;" horiz-adv-x="2560" 
d="M2410 782v-782h-359l-61 164q-48 -36 -102 -68q-129 -73 -281 -108.5t-301 -35.5q-100 0 -245.5 6t-299 37t-282.5 103q-172 101 -250.5 253t-78.5 339t78.5 339t250.5 253q129 71 282.5 102t299 37t245.5 6q99 0 245 -6t299.5 -37t282.5 -102q117 -72 186.5 -174
t82.5 -192h-659q-20 31 -73 52t-118 32q-149 18 -246 18q-36 0 -124 -4t-180.5 -21t-150.5 -55q-62 -47 -83 -120t-21 -128q0 -56 21 -128.5t83 -120.5q58 -37 150.5 -54t180.5 -21t124 -4q35 0 123 4t180.5 21t150.5 54q22 17 39 37h-362v304h973zM1539 1552h-518v239h518
v-239z" />
    <glyph glyph-name="gdotaccent" unicode="&#x121;" horiz-adv-x="2264" 
d="M895 -73q62 -15 139.5 -18.5t137.5 -2.5h15q82 -2 166.5 5.5t143.5 41.5t59 116v89q-17 -11 -34 -19q-135 -66 -270 -86t-259 -20q-123 0 -268.5 15t-302.5 91q-142 72 -207 181t-65 243t65 243t207 181q157 75 302.5 89.5t268.5 14.5q124 0 259 -19.5t270 -84.5
q33 -17 60 -39v109h532v-910q0 -252 -158 -374q-147 -100 -357 -136.5t-419 -36.5q-139 0 -321 14t-302 46q-144 42 -248.5 128.5t-119.5 191.5h629q14 -37 77 -53zM792 714q-71 -45 -71 -151q0 -80 42 -124t106.5 -63.5t135.5 -23.5t128 -4h14q83 -2 176.5 8t163 54.5
t69.5 152.5q0 107 -69.5 151.5t-163.5 54.5t-175 8h-15q-78 0 -174.5 -9t-166.5 -54zM1391 1217h-518v238h518v-238z" />
    <glyph glyph-name="uni0122" unicode="&#x122;" horiz-adv-x="2560" 
d="M1060 -42q-146 6 -299.5 37t-282.5 103q-171 101 -249.5 253t-78.5 339t78.5 339t249.5 253q129 71 282.5 102t299.5 37t246 6q99 0 244.5 -6t299 -37t282.5 -102q118 -72 187 -174t82 -192h-658q-20 31 -73.5 52t-117.5 32q-150 18 -246 18q-36 0 -124 -4t-180.5 -21
t-150.5 -55q-63 -47 -84 -120t-21 -128q0 -56 21 -128.5t84 -120.5q58 -37 150.5 -54t180.5 -21t124 -4q35 0 123 4t180.5 21t150.5 54q22 17 39 37h-362v304h973v-782h-359l-61 164q-48 -36 -102 -68q-129 -73 -281 -108.5t-301 -35.5q-100 0 -246 6zM1539 -86v-159
q0 -107 -46 -161t-137.5 -73t-229.5 -19v112h11q43 2 80 12.5t54 48.5h-250v239h518z" />
    <glyph glyph-name="uni0123" unicode="&#x123;" horiz-adv-x="2263" 
d="M859 -386q-182 14 -303 46q-144 42 -248.5 128.5t-119.5 191.5h630q14 -37 76 -52.5t139.5 -19t137.5 -2.5h15q82 -2 166.5 5.5t143.5 41.5t59 116v89q-16 -11 -34 -19q-134 -66 -269.5 -86t-258.5 -20q-124 0 -269.5 15t-302.5 91q-142 72 -206.5 181t-64.5 243
t64.5 243t206.5 181q157 75 302.5 89.5t269.5 14.5q123 0 258.5 -19.5t269.5 -84.5q33 -17 60 -39v109h532v-910q0 -252 -158 -374q-147 -100 -356.5 -136.5t-418.5 -36.5q-139 0 -321 14zM958 768q-97 -9 -167 -54t-70 -151q0 -80 42 -124t106.5 -63.5t135 -23.5t127.5 -4
h14q83 -2 177 8t163 54.5t69 152.5q0 107 -69.5 151.5t-163.5 54.5t-175 8h-15q-78 0 -174 -9zM919 1560q45 54 136.5 72.5t229.5 18.5v-111q-6 -1 -13 -1q-41 -1 -78 -11.5t-53 -48.5h249v-239h-517v159q0 107 46 161z" />
    <glyph glyph-name="Hcircumflex" unicode="&#x124;" horiz-adv-x="2357" 
d="M1649 0v483h-940v-483h-559v1380h559v-475h940v475h558v-1380h-558zM392 1533l375 276h824l374 -276h-596l-190 190l-191 -190h-596z" />
    <glyph glyph-name="hcircumflex" unicode="&#x125;" horiz-adv-x="2157" 
d="M1252 753q-74 7 -127 5h-18q-185 0 -292 -55.5t-107 -174.5v-528h-558v1427h558v-470q109 65 266 99.5t273 34.5q125 0 258.5 -12t247 -55.5t184 -131.5t70.5 -240v-652h-558v571q0 51 -23.5 85t-49.5 54q-51 36 -124 43zM1269 1533l-191 190l-190 -190h-596l374 276h825
l374 -276h-596z" />
    <glyph glyph-name="Itilde" unicode="&#x128;" horiz-adv-x="1592" 
d="M517 0v1380h559v-1380h-559zM1442 1834q-6 -19 -11 -37q-27 -92 -56 -157t-83 -107q-136 -93 -330 -37l-393 96q-141 36 -179 -83h-240q6 18 11 35q27 93 56.5 159t83.5 107q136 94 329 37l394 -96q141 -36 179 83h239z" />
    <glyph glyph-name="itilde" unicode="&#x129;" horiz-adv-x="1592" 
d="M1075 0h-558v1057h558v-1057zM1442 1498q-5 -18 -11 -34q-27 -94 -56 -159.5t-83 -107.5q-136 -93 -331 -37l-393 96q-141 36 -179 -83h-239q6 20 12 38q27 92 56 157t82 107q136 93 331 36l393 -96q141 -36 179 83h239z" />
    <glyph glyph-name="Imacron" unicode="&#x12a;" horiz-adv-x="1545" 
d="M493 0v1380h559v-1380h-559zM150 1791h1245v-239h-1245v239z" />
    <glyph glyph-name="imacron" unicode="&#x12b;" horiz-adv-x="1546" 
d="M1052 1057v-1057h-558v1057h558zM1396 1455v-238h-1246v238h1246z" />
    <glyph glyph-name="Ibreve" unicode="&#x12c;" horiz-adv-x="1427" 
d="M992 0h-558v1380h558v-1380zM970 1848h307q0 -153 -106 -244q-75 -61 -179.5 -85t-278.5 -24t-278.5 24t-178.5 85q-106 91 -106 244h306q0 -21 18 -46t45 -41q38 -19 88.5 -23.5t105.5 -4.5t105.5 4.5t88.5 23.5q27 16 45 41t18 46z" />
    <glyph glyph-name="ibreve" unicode="&#x12d;" horiz-adv-x="1427" 
d="M993 0h-558v1057h558v-1057zM953 1466q18 25 18 46h306q0 -153 -106 -244q-109 -109 -457 -109q-174 0 -278.5 24t-178.5 85q-107 91 -107 244h307q0 -21 18 -46t45 -40q38 -20 88.5 -24.5t105.5 -4.5t105.5 4.5t88.5 24.5q27 15 45 40z" />
    <glyph glyph-name="Iogonek" unicode="&#x12e;" horiz-adv-x="912" 
d="M727 -265l35 -113q-71 -25 -193.5 -42.5t-244.5 1.5q-72 12 -123 50t-51 117q0 55 43.5 102.5t101.5 85.5t106 64h-207v1380h559v-1380h-105q-15 -4 -56.5 -43t-80 -92t-38.5 -94q0 -39 28.5 -56.5t59.5 -13.5q26 4 62 11t104 23z" />
    <glyph glyph-name="iogonek" unicode="&#x12f;" horiz-adv-x="912" 
d="M512 -135q-39 -53 -39 -94q0 -39 28.5 -56.5t60.5 -13.5q25 4 61 11t104 23l35 -113q-71 -25 -193.5 -42.5t-244.5 1.5q-71 12 -122.5 50t-51.5 117q0 55 44 102.5t101.5 85.5t105.5 64h-207v1057h559v-1057h-104q-15 -4 -56.5 -43t-80.5 -92zM753 1156h-559v271h559
v-271z" />
    <glyph glyph-name="Idotaccent" unicode="&#x130;" horiz-adv-x="859" 
d="M709 1380v-1380h-559v1380h559zM170 1552v239h518v-239h-518z" />
    <glyph glyph-name="Jcircumflex" unicode="&#x134;" horiz-adv-x="2594" 
d="M1913 229q-76 -122 -205.5 -182t-295 -77.5t-343.5 -17.5t-343 17.5t-294.5 77.5t-205.5 182t-76 331h603q0 -102 45 -149t119.5 -60.5t161.5 -13.5q96 0 175.5 17t127 78t48.5 188v760h559v-820q0 -209 -76 -331zM1848 1533l-190 190l-191 -190h-596l374 276h825
l374 -276h-596z" />
    <glyph glyph-name="jcircumflex" unicode="&#x135;" horiz-adv-x="1874" 
d="M1095 -302q-52 -33 -107 -51q-89 -28 -254.5 -27.5t-305.5 7.5q-26 1 -49 2v255h125q95 0 124 31t29 85v1057h559v-1057q0 -129 -34.5 -198.5t-86.5 -103.5zM1127 1198l-190 189l-191 -189h-596l375 276h824l375 -276h-597z" />
    <glyph glyph-name="uni0136" unicode="&#x136;" horiz-adv-x="2587" 
d="M1489 769l948 -769h-883l-514 461l-331 -227v-234h-559v1380h559v-564l768 564h903zM1369 -479q-92 -19 -230 -19v112h12q42 2 79 12.5t54 48.5h-250v239h518v-159q0 -107 -45.5 -161t-137.5 -73z" />
    <glyph glyph-name="uni0137" unicode="&#x137;" horiz-adv-x="2391" 
d="M2193 1057l-718 -397l766 -660h-857l-392 395l-284 -157v-238h-558v1427h558v-735l518 365h967zM1409 -406q-46 -54 -138 -73t-230 -19v112h12q42 2 79 12.5t54 48.5h-249v239h518v-159q0 -107 -46 -161z" />
    <glyph glyph-name="Lacute" unicode="&#x139;" horiz-adv-x="2177" 
d="M150 1378h558v-957h1319v-421h-1877v1378zM171 1531l247 276h637l-374 -276h-510z" />
    <glyph glyph-name="lacute" unicode="&#x13a;" horiz-adv-x="1205" 
d="M708 1425v-1425h-558v1425h558zM172 1531l246 276h637l-374 -276h-509z" />
    <glyph glyph-name="uni013B" unicode="&#x13b;" horiz-adv-x="2181" 
d="M2031 0h-1881v1380h559v-958h1322v-422zM948 -386q42 2 79 12.5t54 48.5h-250v239h518v-159q0 -107 -45.5 -161t-137.5 -73t-230 -19v112h12z" />
    <glyph glyph-name="uni013C" unicode="&#x13c;" horiz-adv-x="859" 
d="M709 0h-559v1427h559v-1427zM689 -86v-159q0 -107 -46 -161t-137.5 -73t-230.5 -19v112h12q42 2 79.5 12.5t53.5 48.5h-249v239h518z" />
    <glyph glyph-name="lcaron" unicode="&#x13e;" horiz-adv-x="1653" 
d="M707 1425v-1425h-557v1425h557zM795 1109l118 316h590l-246 -316h-462z" />
    <glyph glyph-name="Nacute" unicode="&#x143;" horiz-adv-x="2354" 
d="M1646 564v814h558v-1378h-690l-807 813v-813h-557v1378h690zM1394 1531h-510l247 276h637z" />
    <glyph glyph-name="nacute" unicode="&#x144;" horiz-adv-x="2155" 
d="M1505 1078q133 -13 246 -56t183.5 -131.5t70.5 -240.5v-650h-557v570q0 51 -23.5 85t-49.5 54q-51 36 -124 43t-126 5h-19q-184 0 -291 -55.5t-107 -173.5v-528h-558v1056h531v-119q1 1 5 3.5t9 6t9 6.5l4 2q109 66 265.5 100.5t272.5 34.5q125 0 259 -12zM1686 1472
l-374 -276h-511l247 276h638z" />
    <glyph glyph-name="uni0145" unicode="&#x145;" horiz-adv-x="2358" 
d="M1516 0l-807 815v-815h-559v1380h691l808 -814v814h559v-1380h-692zM1438 -245q0 -107 -46 -161t-137.5 -73t-230.5 -19v112h12q42 2 79.5 12.5t53.5 48.5h-249v239h518v-159z" />
    <glyph glyph-name="uni0146" unicode="&#x146;" horiz-adv-x="2157" 
d="M1836 982q78 -48 124.5 -128.5t46.5 -201.5v-652h-558v571q0 79 -73 139q-51 36 -125 43q-60 5 -106 5q-160 0 -251 -25q-186 -51 -186 -205v-528h-558v1057h532v-119q2 2 21 16l5 3q110 65 266.5 99.5t272.5 34.5q100 0 207 -6.5t205 -30.5t177 -72zM1292 -406
q-46 -54 -138 -73t-230 -19v112h12q42 2 79 12.5t54 48.5h-250v239h518v-159q0 -107 -45 -161z" />
    <glyph glyph-name="Ncaron" unicode="&#x147;" horiz-adv-x="2358" 
d="M709 815v-815h-559v1380h691l808 -814v814h559v-1380h-692zM1369 1809h596l-374 -276h-824l-375 276h596l191 -189z" />
    <glyph glyph-name="ncaron" unicode="&#x148;" horiz-adv-x="2157" 
d="M1251 753q-60 5 -106 5q-160 0 -251 -25q-186 -51 -186 -205v-528h-558v1057h532v-119q2 2 21 16l5 3q110 65 266.5 99.5t272.5 34.5q100 0 207 -6.5t205 -30.5t176.5 -72t125 -128.5t46.5 -201.5v-652h-558v571q0 79 -73 139q-51 36 -125 43zM1269 1474h596l-375 -276
h-824l-374 276h596l191 -190z" />
    <glyph glyph-name="Omacron" unicode="&#x14c;" horiz-adv-x="2612" 
d="M1306 -48q-99 0 -245 6q-357 15 -582 140q-329 193 -329 592t329 592q225 125 582 140q146 6 245 6q100 0 245 -6q357 -15 582 -140q329 -193 329 -592t-329 -592q-225 -125 -582 -140q-145 -6 -245 -6zM1858 774q-9 46 -32 90t-65 74q-58 38 -150.5 55t-180.5 21.5
t-124 4.5q-330 0 -454 -81q-43 -30 -66 -74q-40 -76 -40 -174q0 -37 8.5 -83.5t31.5 -90t66 -74.5q57 -38 149.5 -55t180.5 -21t124 -4q331 0 455 80q42 31 65 74q40 76 40 174q0 37 -8 84zM1929 1552h-1245v239h1245v-239z" />
    <glyph glyph-name="obreve" unicode="&#x14f;" horiz-adv-x="2266" 
d="M1844 980q272 -148 272 -452t-272 -451q-187 -96 -502 -107q-127 -5 -209 -5q-83 0 -210 5q-314 11 -501 107q-272 147 -272 451t272 452q187 95 501 107q127 5 210 5q82 0 209 -5q315 -12 502 -107zM1133 281q54 0 111.5 2.5t110.5 14t95.5 38t68 73t25.5 119.5
q0 190 -189 231q-75 17 -222 17q-54 0 -111.5 -2.5t-111 -14t-96 -38t-68 -73t-25.5 -120.5q0 -190 189 -231q76 -16 223 -16zM1390 1512h306q0 -153 -106 -244q-109 -109 -457 -109q-174 0 -278.5 24t-178.5 85q-107 91 -107 244h307q0 -21 18 -46t45 -40
q38 -20 88.5 -24.5t105.5 -4.5t105.5 4.5t88.5 24.5q27 15 45 40t18 46z" />
    <glyph glyph-name="Ohungarumlaut" unicode="&#x150;" horiz-adv-x="2608" 
d="M1550 -42q-146 -6 -246 -6q-99 0 -244.5 6t-299 37t-282.5 103q-171 100 -249.5 252t-78.5 339t78.5 338.5t249.5 252.5q129 71 282.5 102t299 37t244.5 6q100 0 245.5 -6t298.5 -37t282 -102q171 -101 249.5 -252.5t78.5 -338.5t-78.5 -339t-249.5 -252
q-129 -72 -282 -103t-298 -37zM1428 1013q-88 4 -124 4t-123.5 -4.5t-180 -21.5t-149.5 -54q-63 -48 -84 -120.5t-21 -127.5q0 -56 21 -128t84 -120q57 -37 149.5 -54.5t180 -21.5t123.5 -4t123.5 4t180 21.5t150.5 54.5q62 48 83.5 120t21.5 128q0 55 -21.5 127.5
t-83.5 120.5q-58 37 -150.5 54t-179.5 22zM620 1531l246 276h638l-374 -276h-510zM1378 1531l247 276h637l-374 -276h-510z" />
    <glyph glyph-name="ohungarumlaut" unicode="&#x151;" horiz-adv-x="2263" 
d="M1341 -31q-127 -4 -210 -4q-82 0 -209 4.5t-260.5 28.5t-240.5 78q-141 77 -206 193t-65 259q0 142 65 258t206 193q107 54 240.5 78t260.5 28.5t209 4.5q83 0 210 -4.5t260 -28.5t240 -78q142 -77 207 -193t65 -258q0 -143 -65 -259t-207 -193q-107 -54 -240 -78
t-260 -29zM1404 313q61 22 99.5 72.5t38.5 142.5q0 91 -38.5 142t-99.5 73t-133 27t-140 5q-67 0 -139 -5t-133.5 -27t-99.5 -73t-38 -142q0 -92 38 -142.5t99.5 -73t133.5 -27.5t139 -5q68 0 140 5t133 28zM465 1196l247 276h637l-374 -276h-510zM2107 1472l-374 -276h-510
l247 276h637z" />
    <glyph glyph-name="Racute" unicode="&#x154;" horiz-adv-x="2423" 
d="M1588 163q0 51 -8 100q-12 71 -73.5 90t-190.5 17h-608v-370h-558v1378h1485q188 0 301.5 -43t171.5 -111.5t75 -148.5t11 -156q-6 -94 -60 -174t-162 -131q192 -73 200 -259q6 -180 32.5 -253.5t68.5 -101.5h-641q-28 24 -35.5 67.5t-8.5 95.5zM1627 915q-9 23 -49.5 41
t-137.5 18h-732v-200h732q79 0 121 18t58 41.5t16 40.5t-8 41zM1700 1807l-374 -276h-511l247 276h638z" />
    <glyph glyph-name="racute" unicode="&#x155;" horiz-adv-x="1593" 
d="M1276 707q-102 4 -194 4q-102 0 -187 -13t-136 -58t-51 -141v-499h-558v1056h532v-184q48 50 118 94q90 56 218 90t252 34q36 0 89.5 -1.5t83.5 -3.5v-390q-66 7 -167 12zM172 1196l246 276h638l-374 -276h-510z" />
    <glyph glyph-name="uni0156" unicode="&#x156;" horiz-adv-x="2423" 
d="M2108 1224q58 -69 75.5 -149t10.5 -156q-6 -94 -60 -174t-162 -131q192 -73 200 -259q6 -180 32.5 -253.5t68.5 -101.5h-640q-29 24 -36.5 67.5t-7.5 95.5q-1 51 -9 100q-12 71 -73.5 90t-190.5 17h-608v-370h-558v1378h1485q188 0 301.5 -43t171.5 -111zM1635 874
q0 17 -8 40.5t-48.5 41.5t-138.5 18h-732v-200h732q79 0 121 18t58 41.5t16 40.5zM1085 -374q37 11 53 49h-248v238h517v-158q0 -107 -45.5 -161t-137.5 -72.5t-230 -18.5v111q6 1 12 1q42 1 79 11z" />
    <glyph glyph-name="uni0157" unicode="&#x157;" horiz-adv-x="1593" 
d="M708 0h-558v1056h531v-184q49 50 118 94q91 56 219 90t252 34q35 0 88.5 -1.5t84.5 -3.5v-390q-67 7 -168 11.5t-194 4.5q-101 0 -186 -13t-136 -58t-51 -141v-499zM688 -87v-158q0 -107 -46 -161t-137.5 -72.5t-229.5 -18.5v111q6 1 12 1q42 1 79 11.5t54 48.5h-250v238
h518z" />
    <glyph glyph-name="Rcaron" unicode="&#x158;" horiz-adv-x="2423" 
d="M1632 0q-28 24 -35.5 67t-7.5 94q-1 53 -9 102q-12 71 -73.5 90t-190.5 17h-608v-370h-558v1378h1484q189 0 302.5 -43t171.5 -111.5t75 -148.5t11 -156q-6 -94 -60 -174t-162 -131q192 -73 200 -259q6 -180 32.5 -253.5t68.5 -101.5h-641zM1623 1531h-823l-374 276h595
l190 -189l191 189h595zM1626 915q-8 23 -48.5 41t-136.5 18h-733v-200h733q78 0 120 18t57.5 41.5t15.5 40.5t-8 41z" />
    <glyph glyph-name="rcaron" unicode="&#x159;" horiz-adv-x="1871" 
d="M1034 698q-85 -13 -136 -58t-51 -141v-499h-558v1056h532v-184q48 50 117 94q91 56 219 90t252 34q35 0 88.5 -1.5t84.5 -3.5v-390q-66 7 -167.5 11.5t-194.5 4.5q-101 0 -186 -13zM1721 1472l-374 -276h-822l-375 276h595l191 -190l190 190h595z" />
    <glyph glyph-name="Sacute" unicode="&#x15a;" horiz-adv-x="2465" 
d="M960 946q189 -20 388 -34q288 -19 524 -52q223 -30 333 -114.5t110 -281.5q0 -120 -59.5 -204t-147.5 -139t-180 -87q-157 -52 -349 -67t-349 -15q-132 0 -313.5 13t-357 67.5t-298.5 172.5q-52 50 -81.5 106t-29.5 147h657q0 -78 108.5 -108.5t314.5 -30.5
q223 0 307.5 28.5t84.5 66.5q0 42 -77.5 59t-302.5 33q-268 19 -473 41t-315 57q-285 102 -253 384q20 140 123 230t236 131q142 44 306 60t327 16q164 0 319.5 -18.5t296.5 -62.5q200 -70 296.5 -178t102.5 -192h-657q0 42 -104.5 63.5t-253.5 21.5q-148 0 -232.5 -13.5
t-84.5 -53.5t84 -46zM1414 1531h-510l247 276h637z" />
    <glyph glyph-name="sacute" unicode="&#x15b;" horiz-adv-x="2151" 
d="M1590 1028q172 -54 259 -136t93 -146h-612q0 27 -88 38t-197 11q-126 0 -210.5 -5t-84.5 -31q0 -8 11.5 -17t47.5 -15q77 -10 316 -26l22 -2q51 -3 99 -7q254 -15 421.5 -40t250.5 -90t83 -207q0 -91 -51 -155t-126 -106.5t-153 -65.5q-134 -40 -297.5 -51.5
t-297.5 -11.5q-112 0 -264.5 8t-302 49t-258.5 136q-45 38 -70.5 81t-25.5 112h626q0 -55 83 -72.5t212 -17.5q141 0 238 12t97 54q0 8 -10 18.5t-35 16.5q-60 12 -279 26q-97 6 -186 11q-335 14 -510 59q-241 83 -216 298q17 107 113 176t211 100q121 33 264 45.5t282 12.5
t281.5 -14t263.5 -48zM1001 1472h637l-374 -276h-510z" />
    <glyph glyph-name="Scedilla" unicode="&#x15e;" horiz-adv-x="2465" 
d="M951 -278q84 -17 150.5 -22t95.5 6q37 12 37 47t-32 46q-23 8 -63 6t-80 -12l-70 66l93 95q-207 3 -436 54t-385 197q-52 50 -81.5 106t-29.5 147h657q0 -78 109 -108.5t314 -30.5q223 0 308 28.5t85 66.5q0 42 -77.5 59t-302.5 33q-269 19 -474 41t-314 57
q-285 102 -253 384q20 140 122.5 230t236.5 131q141 44 305 60t328 16q163 0 319 -18.5t296 -62.5q201 -70 297 -178t102 -192h-657q0 42 -104.5 63.5t-252.5 21.5q-149 0 -233.5 -13.5t-84.5 -53.5t85 -46q188 -20 387 -34q288 -19 524 -52q223 -30 333 -114.5t110 -281.5
q0 -120 -59.5 -204t-147.5 -139t-180 -87q-157 -52 -349 -67t-349 -15h-15l-50 -50q46 10 106 12t99 1q103 -4 147 -49t44 -118q0 -64 -51 -108t-113 -59q-57 -13 -193 -10.5t-300 42.5z" />
    <glyph glyph-name="uni0162" unicode="&#x162;" horiz-adv-x="2380" 
d="M2230 957h-761v-957h-558v957h-761v421h2080v-421zM1449 -245q0 -107 -46 -161t-137.5 -72.5t-229.5 -18.5v111q6 1 12 1q42 1 79 11.5t54 48.5h-250v238h518v-158z" />
    <glyph glyph-name="uni0163" unicode="&#x163;" horiz-adv-x="1562" 
d="M1011 1056h401v-310h-401v-350q0 -114 122 -112q136 4 279 9v-314q-10 -1 -21 -1q-227 -13 -467 -13h-10q-134 -3 -237.5 13t-163 88t-59.5 246v434h-304v310h304v345h557v-345zM907 -325h-249v238h517v-158q0 -107 -45.5 -161t-137.5 -72.5t-229 -18.5v111q6 1 12 1
q41 1 78 11.5t54 48.5z" />
    <glyph glyph-name="Tcaron" unicode="&#x164;" horiz-adv-x="2379" 
d="M1469 0h-558v957h-761v421h2079v-421h-760v-957zM778 1531l-374 276h595l190 -189l191 189h595l-374 -276h-823z" />
    <glyph glyph-name="tcaron" unicode="&#x165;" horiz-adv-x="2229" 
d="M1134 284q136 4 279 9v-314q-10 -1 -21 -1q-228 -13 -467 -13h-10q-134 -3 -237.5 13t-163.5 88t-60 246v434h-304v310h304v345h558v-345h401v-310h-401v-350q0 -114 122 -112zM1371 1109l118 316h590l-246 -316h-462z" />
    <glyph glyph-name="Utilde" unicode="&#x168;" horiz-adv-x="2358" 
d="M1428 379q61 11 111 38.5t80 76.5t30 126v760h559v-820q0 -439 -462 -554q-213 -54 -567 -54q-143 0 -289 10q-327 23 -515 143q-225 145 -225 455v820h559v-759q0 -200 221 -243q86 -16 249 -16q57 0 122 2.5t127 14.5zM1345 1496l-394 96q-140 36 -178 -83h-240
q6 18 11 35q27 93 56.5 159t83.5 107q136 94 329 37l394 -96q141 -36 179 83h239q-6 -19 -12 -37q-26 -92 -55 -157t-83 -107q-136 -93 -330 -37z" />
    <glyph glyph-name="utilde" unicode="&#x169;" horiz-adv-x="2158" 
d="M1450 1057h558v-1057h-532v119q-5 -5 -14 -10l-12 -9q-110 -65 -266.5 -100t-272.5 -35q-101 0 -207 7q-240 16 -382 103q-172 105 -172 330v652h559v-572q0 -60 39 -106q57 -66 159 -75q56 -6 101 -6q164 0 255 25q187 51 187 205v529zM1725 1498q-6 -18 -11 -34
q-27 -94 -56.5 -159.5t-83.5 -107.5q-136 -93 -330 -37l-393 96q-141 36 -179 -83h-239q6 20 12 38q26 92 55 157t83 107q136 93 330 36l394 -96q140 -36 179 83h239z" />
    <glyph glyph-name="Umacron" unicode="&#x16a;" horiz-adv-x="2358" 
d="M2208 1380v-820q0 -439 -462 -554q-213 -54 -567 -54q-143 0 -289 10q-327 23 -515 143q-225 145 -225 455v820h559v-759q0 -200 221 -243q86 -16 249 -16q57 0 122 2.5t126.5 14t111.5 39t80 76.5t30 126v760h559zM1802 1552h-1245v239h1245v-239z" />
    <glyph glyph-name="umacron" unicode="&#x16b;" horiz-adv-x="2158" 
d="M1450 100q-110 -65 -266.5 -100t-272.5 -35q-101 0 -207 7q-240 16 -382 103q-172 105 -172 330v652h559v-572q0 -60 39 -106q57 -66 159 -75q56 -6 101 -6q164 0 255 25q187 51 187 205v529h558v-1057h-532v119q-5 -5 -14 -10zM1701 1217h-1245v238h1245v-238z" />
    <glyph glyph-name="Ubreve" unicode="&#x16c;" horiz-adv-x="2358" 
d="M1649 1380h559v-820q0 -439 -462 -554q-213 -54 -567 -54q-143 0 -289 10q-327 23 -515 143q-225 145 -225 455v820h559v-759q0 -200 221 -243q86 -16 249 -16q57 0 122 2.5t126.5 14t111.5 39t80 76.5t30 126v760zM1373 1761q27 16 45 41t18 46h307q0 -153 -107 -244
q-74 -61 -178.5 -85t-278.5 -24t-278.5 24t-178.5 85q-106 91 -106 244h306q0 -21 18 -46t45 -41q38 -19 88.5 -23.5t105.5 -4.5t105.5 4.5t88.5 23.5z" />
    <glyph glyph-name="ubreve" unicode="&#x16d;" horiz-adv-x="2158" 
d="M1450 100q-110 -65 -266.5 -100t-272.5 -35q-101 0 -207 7q-240 16 -382 103q-172 105 -172 330v652h559v-572q0 -60 39 -106q57 -66 159 -75q56 -6 101 -6q164 0 255 25q187 51 187 205v529h558v-1057h-532v119q-5 -5 -14 -10zM1336 1512h306q0 -153 -106 -244
q-109 -109 -457 -109q-174 0 -278.5 24t-178.5 85q-107 91 -107 244h307q0 -21 18 -46t45 -40q38 -20 88.5 -24.5t105.5 -4.5t105.5 4.5t88.5 24.5q27 15 45 40t18 46z" />
    <glyph glyph-name="Uring" unicode="&#x16e;" horiz-adv-x="2358" 
d="M1428 379q61 11 111 38.5t80 76.5t30 126v760h559v-820q0 -439 -462 -554q-213 -54 -567 -54q-143 0 -289 10q-327 23 -515 143q-225 145 -225 455v820h559v-759q0 -200 221 -243q86 -16 249 -16q57 0 122 2.5t127 14.5zM1397 1529q-93 -61 -218 -61t-217.5 60.5
t-92.5 202.5q0 143 92.5 203t217.5 60t217.5 -60t92.5 -203q0 -142 -92 -202zM1087 1640q41 -26 92 -26t92.5 25.5t41.5 91.5t-41.5 91.5t-92.5 25.5t-92.5 -25.5t-41.5 -91.5t42 -91z" />
    <glyph glyph-name="uring" unicode="&#x16f;" horiz-adv-x="2158" 
d="M1184 0q-157 -35 -273 -35q-101 0 -207 7q-240 16 -382 103q-172 105 -172 330v652h559v-572q0 -60 39 -106q57 -66 159 -75q56 -6 101 -6q164 0 255 25q187 51 187 205v529h558v-1057h-532v119q-5 -5 -14 -10l-12 -9q-110 -65 -266 -100zM1297 1193q-93 -61 -218 -61
t-217.5 60.5t-92.5 202.5q0 143 92.5 203t217.5 60t217.5 -60t92.5 -203q0 -142 -92 -202zM1172 1487q-42 25 -93 25t-92.5 -25.5t-41.5 -91.5t41.5 -91.5t92.5 -25.5t92.5 25.5t41.5 91.5t-41 92z" />
    <glyph glyph-name="Uhungarumlaut" unicode="&#x170;" horiz-adv-x="2354" 
d="M1177 -48q-178 0 -359.5 17.5t-332 77.5t-243 182t-92.5 330v819h558v-759q0 -97 45.5 -150t117 -76t153 -27.5t153.5 -4.5t153.5 4.5t153 27.5t117 76t45.5 150v759h558v-819q0 -208 -92.5 -330t-243 -182t-332 -77.5t-359.5 -17.5zM739 1807h638l-375 -276h-509z
M1498 1807h637l-374 -276h-510z" />
    <glyph glyph-name="uhungarumlaut" unicode="&#x171;" horiz-adv-x="2204" 
d="M1448 100q-109 -66 -266 -100.5t-272 -34.5q-126 0 -259.5 12.5t-246.5 55.5t-183.5 131.5t-70.5 240.5v651h558v-571q0 -51 23.5 -85t49.5 -54q51 -36 124 -43t126 -5h19q184 0 291 55.5t107 174.5v528h558v-1056h-532v118q-1 -1 -6 -4.5t-11 -6.5q-4 -3 -6 -5z
M658 1472h638l-374 -276h-510zM1680 1196h-510l247 276h637z" />
    <glyph glyph-name="Uogonek" unicode="&#x172;" horiz-adv-x="2354" 
d="M1282 -298q26 3 62 10t104 23l35 -113q-71 -25 -193.5 -42.5t-244.5 1.5q-71 12 -122.5 50.5t-51.5 116.5q0 62 54 114.5t119 91.5q-167 3 -325 28.5t-286.5 89.5t-205.5 181t-77 306v819h558v-759q0 -97 45.5 -150t117 -76t153 -27.5t153.5 -4.5t153.5 4.5t153 27.5
t117.5 76t46 150v759h557v-819q0 -189 -77 -306.5t-205.5 -181t-287 -89t-324.5 -28.5q-41 -39 -78.5 -91t-37.5 -92q0 -39 28.5 -56.5t59.5 -12.5z" />
    <glyph glyph-name="uogonek" unicode="&#x173;" horiz-adv-x="2155" 
d="M905 303q73 -7 126 -5h18q185 0 291.5 55.5t106.5 174.5v528h558v-1056h-284q-15 -4 -56.5 -43t-80 -92t-38.5 -94q0 -39 28.5 -56.5t59.5 -12.5q26 3 62 10t103 23l36 -113q-71 -25 -193.5 -42.5t-244.5 1.5q-71 12 -122.5 50.5t-51.5 116.5q0 55 44 102.5t101.5 85.5
t105.5 64v118q-1 0 -5 -3t-9 -6.5t-8.5 -6t-4.5 -2.5q-109 -66 -265.5 -100.5t-271.5 -34.5q-126 0 -259.5 12.5t-246.5 55.5t-183.5 131.5t-70.5 240.5v651h558v-571q0 -51 23 -85t50 -54q50 -36 124 -43z" />
    <glyph glyph-name="Wcircumflex" unicode="&#x174;" horiz-adv-x="3224" 
d="M2464 1380h610l-561 -1380h-669l-232 789l-233 -789h-669l-560 1380h609l309 -886l271 886h546l271 -886zM2398 1533h-596l-190 190l-191 -190h-596l375 276h824z" />
    <glyph glyph-name="wcircumflex" unicode="&#x175;" horiz-adv-x="3111" 
d="M2346 1057h615l-553 -1057h-602l-250 579l-251 -579h-601l-554 1057h615l278 -639l276 639h473l276 -639zM2342 1198h-596l-190 189l-191 -189h-596l375 276h824z" />
    <glyph glyph-name="Ycircumflex" unicode="&#x176;" horiz-adv-x="2844" 
d="M1701 0h-558v448l-993 932h762l510 -506l510 506h762l-993 -932v-448zM1422 1723l-191 -190h-596l375 276h824l375 -276h-596z" />
    <glyph glyph-name="ycircumflex" unicode="&#x177;" horiz-adv-x="2255" 
d="M1109 -336q-115 -39 -262 -44q-48 -1 -99 -1q-111 0 -305 8l-44 2v255q131 0 137 -1q85 0 121 11q1 0 2 1q49 13 77 58l78 113l-664 991h596l382 -628l382 628h595l-819 -1261q-63 -93 -177 -132zM937 1198h-596l374 276h825l374 -276h-596l-190 189z" />
    <glyph glyph-name="Zacute" unicode="&#x179;" horiz-adv-x="2309" 
d="M170 1378h1964v-421l-1051 -536h1076v-421h-2009v421l1051 536h-1031v421zM1119 1807h637l-374 -276h-510z" />
    <glyph glyph-name="zacute" unicode="&#x17a;" horiz-adv-x="1953" 
d="M199 1056h1591v-301l-784 -412h797v-343h-1653v299l786 413h-737v344zM1574 1472l-374 -276h-510l246 276h638z" />
    <glyph glyph-name="zdotaccent" unicode="&#x17c;" horiz-adv-x="1955" 
d="M199 1057h1593v-301l-785 -413h798v-343h-1655v300l786 414h-737v343zM718 1455h518v-238h-518v238z" />
    <glyph glyph-name="Emacron" unicode="&#x112;" horiz-adv-x="2266" 
d="M709 542v-138h1407v-404h-1966v1380h1950v-405h-1391v-129h1315v-304h-1315zM1756 1552h-1246v239h1246v-239z" />
    <glyph glyph-name="edotaccent" unicode="&#x117;" horiz-adv-x="2268" 
d="M1351 1086q460 -18 642 -216q99 -109 116 -280q8 -80 8 -169h-1375q31 -68 94.5 -101t143 -42.5t153.5 -9.5q78 0 173.5 15t146.5 52h631q-59 -160 -239 -259q-107 -54 -240.5 -78t-261 -28.5t-210.5 -4.5q-82 0 -209 5q-315 11 -502 106q-272 147 -272 452
q0 304 272 451q184 95 494 107q126 5 217 5q92 0 218 -5zM1392 1217h-518v238h518v-238zM1133 788q-74 0 -153 -10q-183 -21 -238 -143h783q-55 122 -238 143q-79 10 -154 10z" />
    <glyph glyph-name="Ecaron" unicode="&#x11a;" horiz-adv-x="2265" 
d="M2023 542h-1315v-138h1407v-404h-1965v1380h1949v-405h-1391v-129h1315v-304zM346 1809h596l190 -189l191 189h596l-374 -276h-825z" />
    <glyph glyph-name="cdotaccent" unicode="&#x10b;" horiz-adv-x="2243" 
d="M1342 -31q-127 -4 -210 -4q-82 0 -209.5 4.5t-260.5 28.5t-241 79q-142 76 -206.5 192.5t-64.5 258.5q0 143 64.5 259.5t206.5 192.5q108 55 241 78.5t260.5 28t209.5 4.5q83 0 210 -4.5t260.5 -28t241.5 -78.5q230 -131 249 -342h-586q-20 64 -83.5 93.5t-144.5 37
t-147 7.5q-90 0 -185 -11t-160.5 -62.5t-65.5 -174.5q0 -122 65.5 -174t160.5 -62.5t185 -10.5q66 0 147 7.5t144.5 37t83.5 93.5h586q-19 -212 -249 -342q-108 -55 -241.5 -79t-260.5 -29zM1380 1217h-518v238h518v-238z" />
    <glyph glyph-name="Dcaron" unicode="&#x10e;" horiz-adv-x="2413" 
d="M2034 1197q229 -214 229 -507q0 -294 -229 -507q-93 -84 -240 -133.5t-300 -49.5l-1 -5l-1343 5v1380h1344q153 0 300 -49.5t240 -133.5zM1703 690q0 111 -44 168.5t-103.5 78.5t-106.5 21h-741v-536h741q47 0 106.5 20.5t103.5 78.5t44 169zM341 1809h597l190 -189
l191 189h596l-375 -276h-824z" />
    <glyph glyph-name="dcaron" unicode="&#x10f;" horiz-adv-x="3061" 
d="M1253 -14q-136 -21 -260 -21q-123 0 -268.5 15.5t-302.5 96.5q-142 76 -207 192.5t-65 258.5q0 143 65 259.5t207 192.5q157 80 302.5 95.5t268.5 15.5q124 0 259.5 -21t269.5 -90q18 -9 34 -21v468h558v-1427h-532v119q-27 -25 -60 -42q-134 -70 -269 -91zM1437 709
q-119 49 -304 49q-72 0 -168.5 -14.5t-170 -63t-73.5 -152.5q0 -103 73.5 -152t170 -63t168.5 -14q185 0 304 49.5t119 179.5q0 131 -119 181zM2202 1111l119 316h590l-246 -316h-463z" />
    <glyph glyph-name="omacron" unicode="&#x14d;" horiz-adv-x="2266" 
d="M1844 980q272 -148 272 -452t-272 -451q-187 -96 -502 -107q-127 -5 -209 -5q-83 0 -210 5q-314 11 -501 107q-272 147 -272 451t272 452q187 95 501 107q127 5 210 5q82 0 209 -5q315 -12 502 -107zM1245 284q57 2 110 13.5t95.5 38t68 73t25.5 119.5q0 190 -189 231
q-75 17 -222 17q-54 0 -111.5 -2.5t-111 -14t-96 -38t-68 -73t-25.5 -120.5q0 -190 189 -231q76 -16 223 -16q54 0 112 3zM1755 1217h-1245v238h1245v-238z" />
    <glyph glyph-name="Obreve" unicode="&#x14e;" horiz-adv-x="2612" 
d="M2133 1282q329 -193 329 -592t-329 -592q-225 -125 -582 -140q-146 -6 -245 -6q-100 0 -245 6q-357 15 -582 140q-329 193 -329 592t329 592q225 125 582 140q145 6 245 6q99 0 245 -6q357 -15 582 -140zM1002 387q92 -17 180 -21t124 -4q331 0 455 80q42 31 65 74
q40 76 40 174q0 37 -8.5 83.5t-31.5 90.5t-65 74q-58 38 -150.5 55t-180.5 21.5t-124 4.5q-330 0 -454 -81q-43 -30 -66 -74q-40 -76 -40 -174q0 -37 8.5 -83.5t31.5 -90t66 -74.5q57 -38 150 -55zM1545 1802q18 25 18 46h306q0 -153 -106 -244q-74 -61 -178.5 -85
t-278.5 -24t-278.5 24t-178.5 85q-107 91 -107 244h307q0 -21 18 -46t45 -41q38 -19 88.5 -23.5t105.5 -4.5t105.5 4.5t88.5 23.5q27 16 45 41z" />
    <glyph glyph-name="dcroat" unicode="&#x111;" horiz-adv-x="2460" 
d="M1521 77q-135 -70 -270 -91t-259 -21q-123 0 -268.5 15.5t-302.5 96.5q-142 76 -206.5 192.5t-64.5 258.5q0 143 64.5 259.5t206.5 192.5q157 80 302.5 95.5t268.5 15.5q124 0 259 -21t270 -90q17 -9 34 -21v162h-222v202h222v104h558v-104h197v-202h-197v-1121h-532v119
q-27 -25 -60 -42zM794 376q73 -49 169.5 -63t168.5 -14q185 0 304 49.5t119 179.5q0 131 -119 180.5t-304 49.5q-72 0 -168.5 -14.5t-169.5 -63t-73 -152.5q0 -103 73 -152z" />
    <glyph glyph-name="Hbar" unicode="&#x126;" horiz-adv-x="2356" 
d="M1648 483h-940v-483h-558v1380h558v-137h940v137h558v-1380h-558v483zM1648 1041h-940v-136h940v136z" />
    <glyph glyph-name="hbar" unicode="&#x127;" horiz-adv-x="2354" 
d="M1322 758h-18q-185 0 -292 -55.5t-107 -174.5v-528h-559v1121h-196v202h196v104h559v-104h221v-202h-221v-164q109 65 266 99.5t273 34.5q125 0 259 -12t247 -55.5t183.5 -131.5t70.5 -240v-652h-558v571q0 51 -23.5 85t-49.5 54q-51 36 -124.5 43t-126.5 5z" />
    <glyph glyph-name="IJ" unicode="&#x132;" horiz-adv-x="2815" 
d="M2665 1380v-820q0 -209 -76 -331t-205.5 -182t-294.5 -77.5t-343 -17.5t-343 17.5t-294.5 77.5t-205.5 182t-76 331h602q0 -102 45 -149t119.5 -60.5t162.5 -13.5q96 0 175.5 17t127.5 77t48 189v760h558zM150 0v1380h559v-1380h-559z" />
    <glyph glyph-name="ij" unicode="&#x133;" horiz-adv-x="1696" 
d="M1317 -353q-88 -28 -253.5 -27.5t-306.5 7.5q-26 1 -49 2v255h125q95 0 124.5 31t29.5 85v1057h559v-1057q0 -129 -34.5 -198.5t-86.5 -103t-108 -51.5zM708 1057v-1057h-558v1057h558zM987 1156v271h559v-271h-559zM150 1156v271h558v-271h-558z" />
    <glyph glyph-name="Dcroat" unicode="&#x110;" horiz-adv-x="2692" 
d="M2074 1330q147 -50 239 -134q229 -212 229 -506t-229 -507q-92 -84 -239 -133.5t-299 -49.5l-3 -5l-1342 5v584h-280v244h280v552h1345q152 0 299 -50zM1836 938q-60 20 -107 20h-741v-130h533v-244h-533v-162h741q47 0 106.5 20.5t103.5 78.5t44 169t-44 169t-103 79z
" />
    <glyph glyph-name="Ydieresis" unicode="&#x178;" horiz-adv-x="2840" 
d="M1419 873l510 505h761l-991 -931v-447h-558v447l-991 931h761zM1524 1550v239h518v-239h-518zM798 1550v239h517v-239h-517z" />
    <glyph glyph-name="Zdotaccent" unicode="&#x17b;" horiz-adv-x="2313" 
d="M170 1380h1967v-422l-1053 -536h1079v-422h-2013v422l1053 536h-1033v422zM897 1791h518v-239h-518v239z" />
    <glyph glyph-name="Tbar" unicode="&#x166;" horiz-adv-x="2380" 
d="M1469 0h-558v577h-413v202h413v179h-761v422h2080v-422h-761v-179h413v-202h-413v-577z" />
    <glyph glyph-name="tbar" unicode="&#x167;" horiz-adv-x="1563" 
d="M1134 285q28 1 57 2q109 3 222 7v-315q-239 -13 -489 -13h-9q-100 -2 -184 5t-146 38t-96.5 102t-34.5 201v114h-304v202h304v118h-304v311h304v345h558v-345h401v-311h-401v-118h401v-202h-401v-29q0 -114 122 -112z" />
    <glyph glyph-name="lslash" unicode="&#x142;" horiz-adv-x="1098" 
d="M827 1425v-400l121 77v-296l-121 -76v-730h-557v375l-120 -77v296l120 76v755h557z" />
    <glyph glyph-name="Lslash" unicode="&#x141;" horiz-adv-x="2297" 
d="M270 364l-120 -66v325l120 65v690h558v-384l383 209v-324l-383 -210v-248h1319v-421h-1877v364z" />
    <glyph glyph-name="ldot" unicode="&#x140;" horiz-adv-x="1399" 
d="M709 1425v-1425h-559v1425h559zM876 1094h373v-389h-373v389z" />
    <glyph glyph-name="Lcaron" unicode="&#x13d;" horiz-adv-x="2177" 
d="M707 1378v-957h1320v-421h-1877v1378h557zM1257 1109h-462l118 316h590z" />
    <glyph glyph-name="Ldot" unicode="&#x13f;" horiz-adv-x="2177" 
d="M708 1378v-957h1319v-421h-1877v1378h558zM1457 705h-388v389h388v-389z" />
    <glyph glyph-name="kgreenlandic" unicode="&#x138;" horiz-adv-x="2097" 
d="M708 150v-150h-558v1057h558v-325l365 325h830l-560 -425l604 -632h-805l-240 297z" />
    <glyph glyph-name="scedilla" unicode="&#x15f;" horiz-adv-x="2152" 
d="M948 -300q66 -5 95 6q37 12 37 47t-32 46q-22 8 -62.5 6t-79.5 -12l-71 66l105 107q-173 1 -363 39t-326 153q-44 38 -69.5 81t-25.5 112h626q0 -55 82.5 -72.5t212.5 -17.5q141 0 238 12t97 54q0 8 -10 18.5t-35 16.5q-60 12 -279 26q-97 6 -186 11q-336 14 -511 59
q-241 83 -215 298q17 107 113 176t210 100q121 33 264 45.5t283 12.5q139 0 281.5 -14t263.5 -48q171 -54 258.5 -136t93.5 -146h-611q0 27 -88.5 38t-197.5 11q-127 0 -211 -5t-84 -31q0 -8 11.5 -17t47.5 -15q76 -10 309 -26l28 -2q51 -3 99 -7q254 -15 422 -40t251 -90
t83 -207q0 -91 -51 -155t-126 -106.5t-153 -65.5q-134 -40 -297.5 -51.5t-297.5 -11.5h-3l-62 -63q46 10 106 12t98 1q103 -4 147 -49t44 -118q0 -64 -50.5 -108t-113.5 -59q-56 -13 -192.5 -10.5t-300.5 42.5l47 109q84 -17 151 -22z" />
    <glyph glyph-name="napostrophe" unicode="&#x149;" horiz-adv-x="2388" 
d="M1338 757q-184 0 -291 -55.5t-107 -173.5v-528h-558v1056h532v-119q1 1 6 4.5t11 6.5q3 3 6 5l3 2q109 66 266 100.5t272 34.5q126 0 259.5 -12.5t246.5 -55.5t183.5 -131.5t70.5 -240.5v-650h-558v570q0 51 -23.5 85t-49.5 54q-50 36 -123.5 43t-126.5 5h-19zM150 1616
h518v-158q0 -107 -46 -161t-137.5 -72.5t-229.5 -18.5v111q6 1 12 1q42 1 79 11.5t54 48.5h-250v238z" />
    <glyph glyph-name="notequal" unicode="&#x2260;" horiz-adv-x="1275" 
d="M1125 967v-332h-315l-79 -168h394v-333h-553l-146 -304l-216 104l96 200h-156v333h315l80 168h-395v332h554l145 304l216 -103l-96 -201h156z" />
    <glyph glyph-name="onethird" unicode="&#x2153;" horiz-adv-x="2558" 
d="M1874 714q131 0 246 -15t184 -59.5t68 -128.5q-3 -45 -25.5 -74t-48 -44.5t-38.5 -20.5q2 -1 5 -2q19 -3 52.5 -16t61.5 -45t30 -91q-2 -108 -79 -160t-200.5 -67t-255.5 -15q-111 0 -216 9.5t-184 41t-115 96.5q-28 51 -31 106h350v-7q0 -37 50.5 -49.5t145.5 -12.5
q94 0 144.5 12.5t50.5 49.5q0 35 -38.5 43.5t-156.5 8.5h-174v156h174q94 0 131.5 7t37.5 39q0 33 -39 44t-130 11q-83 0 -122.5 -9t-45.5 -34h-350q0 47 33.5 94t76.5 71q72 36 179.5 48.5t228.5 12.5zM1917 1380l-1342 -1428h-295l1343 1428h294zM465 1120h-315v123
q313 0 348 113h246v-691h-279v455z" />
    <glyph glyph-name="twothirds" unicode="&#x2154;" horiz-adv-x="2928" 
d="M1150 1285q51 -38 61 -107q17 -139 -126 -186q-60 -21 -151 -36.5t-244 -33.5q-151 -16 -193 -50q-1 -2 -2 -2q-1 -1 -2 -3h707v-202h-1050q3 18 6 35q14 97 48 175.5t134.5 132t313.5 77.5q101 11 150 22t62.5 23.5t8.5 27.5q-11 38 -159 38q-110 0 -150 -20.5
t-44 -61.5h-329q0 62 52.5 127.5t153.5 100.5q71 21 153 29.5t164 8.5t164 -8.5t153 -29.5q67 -20 119 -57zM2699 58q-78 -52 -201 -67t-256 -15q-110 0 -215 9.5t-184 41t-115 96.5q-29 51 -31 106h349v-7q0 -37 50.5 -49.5t145.5 -12.5t145.5 12.5t50.5 49.5
q0 35 -39 43.5t-157 8.5h-174v156h174q95 0 132.5 7t37.5 39q0 33 -39.5 44t-130.5 11q-82 0 -122 -9t-46 -34h-349q0 47 33.5 94t76.5 71q71 36 179 48.5t228 12.5q131 0 246 -15t184 -59.5t68 -128.5q-3 -45 -25.5 -74t-48 -44.5t-38.5 -20.5l6 -2q18 -3 51.5 -16
t61.5 -45t31 -91q-2 -108 -79 -160zM1991 1380h295l-1343 -1428h-295z" />
    <glyph glyph-name="uni2155" unicode="&#x2155;" horiz-adv-x="2560" 
d="M1987 -21q-64 -3 -113 -3t-113 3t-131.5 15t-129 38t-106.5 71q-25 27 -40 60.5t-15 57.5h336q4 -38 54.5 -50t144.5 -11q100 0 149 15.5t49 53.5q0 39 -49 54.5t-149 15.5q-61 0 -116.5 -7.5t-70.5 -23.5h-324l101 423h888v-203h-689l-17 -70q95 23 228 23q32 0 77 -0.5
t95.5 -4t102 -12t98.5 -23t84 -37.5t58.5 -56t21.5 -79q0 -33 -15.5 -66.5t-41.5 -59.5q-45 -45 -106.5 -71t-129 -38t-131.5 -15zM1622 1380h295l-1343 -1428h-294zM150 1243q313 0 347 113h247v-691h-280v455h-314v123z" />
    <glyph glyph-name="uni2156" unicode="&#x2156;" horiz-adv-x="2929" 
d="M802 1107q49 11 63 23.5t8 27.5q-11 38 -159 38q-110 0 -150 -20.5t-44 -61.5h-329q0 62 52.5 127.5t153.5 100.5q71 21 153 29.5t164 8.5t164.5 -8.5t152.5 -29.5q67 -20 118.5 -57.5t61.5 -106.5q17 -139 -126 -186q-60 -21 -151 -36.5t-244 -33.5q-151 -16 -193 -50
q-1 -2 -2 -2q-1 -1 -2 -3h707v-202h-1050q3 18 6 35q14 97 48 175.5t134.5 132t313.5 77.5q101 11 150 22zM1707 221h336q4 -38 54.5 -50t144.5 -11q100 0 149 15.5t49 53.5q0 39 -49 54.5t-149 15.5q-61 0 -116.5 -7.5t-70.5 -23.5h-325l102 423h888v-203h-689l-17 -70
q95 23 228 23q32 0 77 -0.5t95.5 -4t102 -12t98.5 -23t84 -37.5t58.5 -56t21.5 -79q0 -33 -16 -66.5t-42 -59.5q-44 -45 -105.5 -71t-129 -38t-131.5 -15t-113 -3t-113 3t-131.5 15t-129 38t-106.5 71q-25 27 -40 60.5t-15 57.5zM2286 1380l-1343 -1428h-295l1343 1428h295z
" />
    <glyph glyph-name="uni2157" unicode="&#x2157;" horiz-adv-x="2910" 
d="M2739 308q21 -33 21 -79q0 -33 -16 -66.5t-42 -59.5q-44 -45 -105.5 -71t-129 -38t-131.5 -15t-113 -3t-113 3t-131.5 15t-129 38t-106.5 71q-25 27 -40 60.5t-15 57.5h336q4 -38 54.5 -50t144.5 -11q100 0 149 15.5t49 53.5q0 39 -49 54.5t-149 15.5q-61 0 -116.5 -7.5
t-70.5 -23.5h-325l102 423h888v-203h-689l-17 -70q95 23 228 23q32 0 77 -0.5t95.5 -4t102 -12t98.5 -23t84 -37.5t59 -56zM211 1248q33 47 77 70q71 36 178.5 49t228.5 13q131 0 245.5 -15.5t184 -59.5t68.5 -129q-3 -44 -25.5 -73t-48 -45t-38.5 -21q2 0 6 -1
q18 -3 51.5 -16.5t61.5 -45t30 -90.5q-1 -108 -78.5 -160t-201 -67t-255.5 -15q-111 0 -216 9.5t-184 41t-114 95.5q-30 52 -31 107h349v-7q0 -37 50.5 -50t145.5 -13q94 0 145 13t51 50q0 34 -39 42.5t-157 8.5h-174v157h174q94 0 131.5 7t37.5 38q0 33 -39 44t-130 11
q-82 0 -122 -9t-46 -34h-350q0 48 34 95zM1971 1380h296l-1343 -1428h-296z" />
    <glyph glyph-name="uni2158" unicode="&#x2158;" horiz-adv-x="2967" 
d="M2081 221q3 -38 53.5 -50t144.5 -11q100 0 149 15.5t49 53.5q0 39 -49 54.5t-149 15.5q-61 0 -116.5 -7.5t-70.5 -23.5h-324l101 423h888v-203h-689l-17 -70q96 23 228 23q32 0 77 -0.5t95.5 -4t102.5 -12t98.5 -23t83.5 -37.5t58.5 -56t21.5 -79q0 -33 -15.5 -66.5
t-41.5 -59.5q-45 -45 -106.5 -71t-129 -38t-131.5 -15t-113 -3t-113 3t-131.5 15t-129 38t-105.5 71q-26 27 -41 60.5t-15 57.5h337zM1209 768h-79v-103h-279v103h-701v236l569 352h411v-386h79v-202zM2029 1380h294l-1342 -1428h-295zM851 1192l-354 -222h354v222z" />
    <glyph glyph-name="uni2159" unicode="&#x2159;" horiz-adv-x="2551" 
d="M1882 444h16q84 3 198 -7t203.5 -56t99.5 -152q2 -89 -50 -140.5t-135 -75.5t-175 -30.5t-165 -6.5q-47 0 -115 3t-140 18.5t-132 51.5q-80 50 -117 126t-37 170t37 170t117 126q60 36 132 51.5t140 18.5t115 3q46 0 115.5 -3t142 -18.5t132.5 -51.5q65 -42 93 -87.5
t32 -81.5h-334q-9 26 -41.5 38.5t-73 16.5t-66.5 4q-110 0 -171 -39q-41 -27 -50 -89q91 41 229 41zM1917 1380l-1343 -1428h-294l1342 1428h295zM464 665v455h-314v123q313 0 348 113h246v-691h-280zM1874 283q-101 0 -151 -12t-50 -49q0 -35 38 -45q41 -12 86 -14.5
t77 -2.5q101 -1 151 11t50 51q0 38 -50 49.5t-151 11.5z" />
    <glyph glyph-name="oneeighth" unicode="&#x215b;" horiz-adv-x="2559" 
d="M1628 699q115 15 246 15t246 -15t184 -59.5t68 -128.5q-3 -45 -25.5 -74t-48 -44.5t-38.5 -20.5q2 -1 6 -2q18 -3 51.5 -16t61.5 -45t30 -91q-1 -108 -78.5 -160t-201 -67t-255.5 -15q-133 0 -256 15t-200.5 67t-79.5 160q3 59 31 91t61.5 45t51.5 16l6 2q-13 5 -39 20.5
t-48 44.5t-25 74q-1 84 68 128.5t184 59.5zM1917 1380l-1343 -1428h-295l1343 1428h295zM464 1120h-314v123q312 0 347 113h246v-691h-279v455zM1874 276q-95 0 -145.5 -8.5t-50.5 -48.5t50.5 -49.5t145.5 -9.5q94 0 145 9.5t51 49.5t-51 48.5t-145 8.5zM1874 531
q-92 0 -131 -10t-39 -45t39 -41.5t131 -6.5q91 0 130 6.5t39 41.5t-39 45t-130 10z" />
    <glyph glyph-name="threeeighths" unicode="&#x215c;" horiz-adv-x="2908" 
d="M2468 699q115 -15 184.5 -59.5t67.5 -128.5q-3 -45 -25 -74t-48 -44.5t-39 -20.5l6 -2q19 -3 52 -16t61 -45t31 -91q-2 -108 -79.5 -160t-200.5 -67t-255 -15q-133 0 -256.5 15t-201 67t-78.5 160q2 59 30 91t61.5 45t51.5 16q4 1 6 2q-13 5 -38.5 20.5t-48 44.5
t-25.5 74q-1 84 68 128.5t184 59.5t247 15q130 0 245 -15zM211 1248q33 47 76 70q72 36 179.5 49t227.5 13q131 0 246 -15.5t184 -59.5t68 -129q-3 -44 -25 -73t-47.5 -45t-38.5 -21q2 0 6 -1q18 -3 51 -16.5t61 -45t31 -90.5q-2 -108 -79 -160t-200.5 -67t-256.5 -15
q-110 0 -215 9.5t-184 41t-115 95.5q-29 52 -30 107h349q0 -2 -1 -3v-4q0 -37 51 -50t145 -13q95 0 145.5 13t50.5 50q0 34 -38.5 42.5t-157.5 8.5h-173v157h173q95 0 132.5 7t37.5 38q0 33 -39 44t-131 11q-82 0 -122 -9t-46 -34h-349q0 48 34 95zM1971 1380h295
l-1343 -1428h-294zM2077 170q51 -10 146 -10q94 0 144.5 9.5t50.5 49.5t-50.5 48.5t-144.5 8.5q-95 0 -146 -8.5t-51 -48.5t51 -49zM2092 435q39 -7 131 -7q91 0 130 6.5t39 41.5t-39 45t-130 10q-92 0 -131 -10t-39 -45t39 -41z" />
    <glyph glyph-name="fiveeighths" unicode="&#x215d;" horiz-adv-x="2899" 
d="M2644 640q69 -45 68 -129q-3 -45 -25.5 -74t-48 -44.5t-38.5 -20.5q2 -1 6 -2q18 -3 51.5 -16t61.5 -45t30 -91q-2 -108 -79 -160t-200.5 -67t-256.5 -15q-132 0 -255.5 15t-200.5 67t-79 160q2 59 30 91t61.5 45t52.5 16l6 2q-13 5 -39 20.5t-48.5 44.5t-25.5 74
q-1 84 68.5 128.5t184 59.5t245.5 15q132 0 247 -15t184 -59zM960 1090q51 -9 98 -23.5t84 -37.5t58.5 -56t21.5 -79q0 -33 -16 -66.5t-42 -59.5q-44 -45 -105.5 -71t-129 -38t-131.5 -15t-113 -3t-113 3t-131.5 15t-129 38t-106.5 71q-25 27 -40 60.5t-15 57.5h336
q4 -38 54.5 -50t144.5 -11q100 0 149 15.5t49 53.5q0 39 -49 54.5t-149 15.5q-61 0 -116.5 -7.5t-70.5 -23.5h-325l102 423h888v-203h-689l-17 -70q95 23 228 23q32 0 77 -0.5t95.5 -4t102.5 -11.5zM1962 1380h296l-1343 -1428h-296zM2409 219q0 40 -50.5 48.5t-145.5 8.5
q-94 0 -144.5 -8.5t-50.5 -48.5t50.5 -49.5t144.5 -9.5q95 0 145.5 9.5t50.5 49.5zM2213 428q92 0 131 6.5t39 41.5t-39 45t-131 10q-91 0 -130 -10t-39 -45t39 -41.5t130 -6.5z" />
    <glyph glyph-name="seveneighths" unicode="&#x215e;" horiz-adv-x="2651" 
d="M1536 640q69 44 184 59t245 15q131 0 246.5 -15t184.5 -59.5t68 -128.5q-3 -45 -25.5 -74t-48 -44.5t-38.5 -20.5q2 -1 6 -2q18 -3 51.5 -16t61.5 -45t30 -91q-1 -108 -78.5 -160t-201 -67t-256.5 -15q-132 0 -255 15t-200.5 67t-79.5 160q3 59 31 91t61 45t52 16l6 2
q-13 5 -39 20.5t-48 44.5t-25 74q-2 84 68 129zM2009 1380l-1343 -1428h-294l1342 1428h295zM696 665h-386q20 138 126 253.5t372 234.5h-658v203h984v-246q-184 -92 -273.5 -173t-121.5 -148.5t-42 -118.5q-1 -2 -1 -5zM1821 268q-51 -9 -51 -49t50.5 -49.5t144.5 -9.5
q95 0 146 9.5t51 49.5t-51 48.5t-146 8.5q-94 0 -144 -8zM1835 521q-39 -10 -39 -45t39 -41.5t130 -6.5q92 0 131 6.5t39 41.5t-39 45t-131 10q-91 0 -130 -10z" />
    <glyph glyph-name="uni2460" unicode="&#x2460;" horiz-adv-x="2040" 
d="M1453 1356q198 -74 318 -236.5t120 -429.5q0 -266 -120 -428.5t-318 -236t-433 -73.5q-234 0 -432 73.5t-318 236t-120 428.5q0 267 120 429.5t318 236t432 73.5q235 0 433 -73zM1756 690q0 224 -100 356.5t-267 190t-369 57.5t-369 -57.5t-266.5 -190t-99.5 -356.5
t99.5 -356t266.5 -190t369 -58t369 58t267 190t100 356zM1203 375h-253v411h-284v111q103 0 198 21t116 81h223v-624z" />
    <glyph glyph-name="uni2461" unicode="&#x2461;" horiz-adv-x="2040" 
d="M1020 -48q-234 0 -432 73.5t-318 236t-120 428.5q0 267 120 429.5t318 236t432 73.5q235 0 433 -73.5t318 -236t120 -429.5q0 -266 -120 -428.5t-318 -236t-433 -73.5zM651 1237q-167 -58 -266.5 -190.5t-99.5 -356.5t99.5 -356t266.5 -190t369 -58t369 58t267 190
t100 356t-100 356.5t-267 190t-369 57.5t-369 -57zM994 755q91 10 135.5 19.5t57 21t7.5 25.5q-10 33 -144 33q-100 0 -136 -18t-39 -56h-297q0 56 47 115.5t138 90.5q65 20 139 27t148 7t148 -7t138 -27q60 -18 106.5 -51.5t56.5 -96.5q15 -125 -115 -168q-54 -18 -136 -32
t-221 -31q-135 -14 -174 -45q-1 -2 -3 -4h638v-183h-948q3 16 6 31q13 89 43.5 159.5t121.5 119t283 70.5z" />
    <glyph glyph-name="uni2463" unicode="&#x2463;" horiz-adv-x="2040" 
d="M588 26q-199 73 -318.5 235.5t-119.5 428.5q0 267 119.5 429.5t318 236t432.5 73.5q235 0 433 -73.5t317.5 -236t119.5 -429.5q0 -266 -119.5 -428.5t-317.5 -236t-433 -73.5q-234 0 -432 74zM651 1237q-167 -58 -266.5 -190.5t-99.5 -356.5t99.5 -356t266.5 -190
t369 -58t369 58t267 190t100 356t-100 356.5t-267 190t-369 57.5t-369 -57zM521 681l514 318h371v-348h71v-183h-71v-93h-253v93h-632v213zM835 651h318v200z" />
    <glyph glyph-name="uni2464" unicode="&#x2464;" horiz-adv-x="2039" 
d="M1890 690q0 -266 -119.5 -428.5t-317.5 -236t-433 -73.5t-432.5 73.5t-317.5 236t-120 428.5q0 267 120 429.5t317.5 236t432.5 73.5t433 -73.5t317.5 -236t119.5 -429.5zM1020 86q202 0 369 58t267 190t100 356t-100 356.5t-267 190t-369 57.5t-369 -57.5t-266.5 -190
t-99.5 -356.5t99.5 -356t266.5 -190t369 -58zM1450 999v-183h-622l-15 -63q86 21 206 21q51 0 132 -3.5t161.5 -21t136 -56.5t55.5 -111q0 -59 -52 -114q-55 -53 -133.5 -77.5t-159.5 -30.5t-140 -6t-140 6t-159.5 30.5t-133.5 77.5q-23 25 -36.5 55t-13.5 52h304
q3 -34 49 -44.5t130 -10.5q180 0 179 62q0 35 -44.5 49t-134.5 14q-55 0 -105 -6.5t-63 -20.5h-294l92 381h801z" />
    <glyph glyph-name="uni2465" unicode="&#x2465;" horiz-adv-x="2040" 
d="M1891 690q0 -266 -120 -428.5t-318 -236t-433 -73.5q-234 0 -432 73.5t-318 236t-120 428.5q0 267 120 429.5t318 236t432 73.5q235 0 433 -73.5t318 -236t120 -429.5zM1756 690q0 224 -100 356.5t-267 190t-369 57.5t-368.5 -57.5t-266.5 -190t-100 -356.5t100 -356
t266.5 -190t368.5 -58t369 58t267 190t100 356zM827 740q83 37 208 37h14q75 2 178.5 -7t184.5 -50.5t89 -137.5q2 -106 -78.5 -155t-194 -61t-201.5 -12q-63 0 -164 9t-185 57q-73 45 -106 114t-33 153q0 85 33 153.5t106 114.5q84 47 185 56t164 9t166 -9t187 -56
q59 -38 84 -79.5t28 -73.5h-301q-8 23 -37.5 34.5t-66 14.5t-60.5 3q-98 0 -154 -34q-37 -24 -46 -80zM846 576q0 -32 35 -41q36 -10 76.5 -12.5t69.5 -2.5q91 0 136.5 10.5t45.5 45.5q0 34 -45.5 45t-136.5 11t-136 -11.5t-45 -44.5z" />
    <glyph glyph-name="uni2466" unicode="&#x2466;" horiz-adv-x="2041" 
d="M588 1356q198 73 433 73q234 0 432 -73.5t318 -236t120 -429.5q0 -266 -120 -428.5t-318 -236t-432 -73.5q-235 0 -433 73.5t-318 236t-120 428.5q0 267 120 429.5t318 236.5zM1390 144q167 58 266.5 190t99.5 356t-99.5 356.5t-266.5 190t-369 57.5t-369 -57.5
t-267 -190t-100 -356.5t100 -356t267 -190t369 -58t369 58zM1150 551q-71 -101 -80 -172q0 -2 -1 -4h-348q18 124 113.5 228.5t336.5 212.5h-594v183h888v-222q-244 -125 -315 -226z" />
    <glyph glyph-name="uni2467" unicode="&#x2467;" horiz-adv-x="2041" 
d="M1453 26q-198 -74 -433 -74q-234 0 -432 73.5t-318 236t-120 428.5q0 267 120 429.5t318 236t432 73.5q235 0 433 -73.5t318 -236t120 -429.5q0 -266 -120 -428.5t-318 -235.5zM1020 86q202 0 369 58t267 190t100 356t-100 356.5t-267 190t-369 57.5t-369 -57.5
t-266.5 -190t-99.5 -356.5t99.5 -356t266.5 -190t369 -58zM637 730q-23 14 -43.5 40.5t-23.5 66.5q0 76 62.5 116t166 53.5t221.5 13.5q119 0 222.5 -13.5t166 -53.5t61.5 -116q-2 -40 -22.5 -66.5t-43.5 -40.5t-35 -19q2 0 6 -1q16 -3 46.5 -14.5t55.5 -40.5t27 -82
q-1 -98 -71 -145t-181.5 -60.5t-231.5 -13.5q-119 0 -230.5 13.5t-181.5 60.5t-71 145q2 53 27 82t55.5 40.5t46.5 14.5q4 1 6 1q-12 5 -35 19zM1152 529q45 8 45 44q0 37 -45.5 44.5t-131.5 7.5q-85 0 -130.5 -7.5t-45.5 -44.5q0 -36 45.5 -44.5t130.5 -8.5q86 0 132 9z
M1173 806q0 31 -35 39.5t-118 8.5q-82 0 -117 -8.5t-35 -39.5q0 -32 35 -38t117 -6q83 0 118 6t35 38z" />
    <glyph glyph-name="uni2468" unicode="&#x2468;" horiz-adv-x="2040" 
d="M1890 690q0 -266 -119.5 -428.5t-317.5 -236t-432 -73.5q-235 0 -433 73.5t-318 236t-120 428.5q0 267 120 429.5t318 236t433 73.5q234 0 432 -73.5t317.5 -236t119.5 -429.5zM652 1237q-168 -58 -267.5 -190.5t-99.5 -356.5t99.5 -356t267 -190t369.5 -58q201 0 368 58
t267 190t100 356t-100 356.5t-267 190t-368 57.5q-202 0 -369 -57zM1014 1020q63 0 164 -9t185 -56q73 -46 106 -114.5t33 -153.5q0 -84 -33 -153t-106 -114q-84 -48 -185 -57t-164 -9t-166 9t-187 57q-59 38 -84 79.5t-28 73.5h301q8 -23 37.5 -34.5t66 -15t60.5 -3.5
q99 0 154 35q37 24 45 79q-82 -36 -207 -36h-14q-75 -2 -178.5 6.5t-184.5 50t-90 137.5q-1 106 79.5 155t194 61t201.5 12zM833 799q0 -35 45 -46t136 -10q91 -1 136 10.5t45 45.5q0 31 -35 40q-36 10 -76.5 12.5t-69.5 2.5q-91 1 -136 -9.5t-45 -45.5z" />
    <glyph glyph-name="uni262E" unicode="&#x262e;" 
d="M1260 52q-168 -100 -372 -100t-371.5 99.5t-267 267t-99.5 371.5t99.5 371.5t267 267t371.5 99.5t371.5 -99.5t267 -267t99.5 -371.5t-99.5 -371.5t-266.5 -266.5zM821 717v573q-232 -30 -384.5 -198.5t-152.5 -401.5q0 -214 132 -377zM955 717l405 -404q132 163 132 377
q0 233 -152.5 401.5t-384.5 198.5v-573zM955 90q178 21 310 128l-310 310v-438zM511 218q133 -107 310 -128v438z" />
    <glyph glyph-name="smileface" unicode="&#x263a;" horiz-adv-x="1777" 
d="M1260 1329q167 -100 267 -267.5t100 -371.5t-100 -371.5t-267.5 -267t-370.5 -99.5q-204 0 -372 99.5t-267.5 267t-99.5 371.5t99.5 371.5t267.5 267t372 99.5q203 0 371 -99zM558 1259q-150 -89 -238.5 -238.5t-88.5 -330.5q0 -182 88.5 -331t238 -237.5t331.5 -88.5
q181 0 330 88.5t238 237.5t89 331q0 181 -89 330.5t-238 238t-330 88.5q-182 0 -331 -88zM586 292q-118 90 -169 231q-25 -7 -27 -7q-10 0 -21 7q-18 11 -18 34q0 30 30 39l106 28l11 1q10 0 22 -6q17 -11 17 -35q0 -29 -30 -38q-6 -1 -12 -3q44 -113 139 -186
q112 -86 255 -86q142 0 253 86q96 73 139 186q-5 2 -11 3q-30 9 -30 38l1 11q9 30 39 30q6 0 116 -29q30 -9 30 -39q0 -23 -20 -35q-9 -6 -19 -6q-2 0 -27 6q-51 -140 -167 -229q-135 -103 -304 -103q-170 0 -303 102zM652 1120q21 73 52 73q30 0 51.5 -73.5t21.5 -177.5
t-21.5 -178t-51.5 -74q-31 0 -52.5 74t-21.5 178t22 178zM1022 1120q21 73 51 73t52 -73.5t22 -177.5t-22 -178t-52 -74t-51.5 74t-21.5 178t22 178z" />
    <glyph glyph-name="uni2639" unicode="&#x2639;" horiz-adv-x="1777" 
d="M517 1329q168 99 372 99q203 0 371 -99.5t267.5 -267t99.5 -371.5t-99.5 -371.5t-267.5 -267t-371 -99.5q-204 0 -372 99.5t-267.5 267t-99.5 371.5t99.5 371.5t267.5 267.5zM320 359q88 -149 237.5 -237.5t331.5 -88.5q181 0 330 88.5t238 237.5t89 331q0 181 -89 330.5
t-238 238t-330 88.5q-182 0 -331.5 -88.5t-238 -238t-88.5 -330.5q0 -182 89 -331zM445 385q12 20 34 20q12 0 35 -13q59 83 145 133q108 62 230 62t228 -62q87 -50 147 -133q23 13 34 13q23 0 35 -20q5 -9 5 -19q0 -23 -21.5 -36t-43.5 -26q-1 0 -1 -1h-1q-2 -1 -2 -2
l-46 -26q-10 -5 -21 -5q-21 0 -34 20q-5 10 -5 21q0 5 2.5 15.5t28.5 24.5q-48 65 -117 105q-87 50 -188 50t-189 -50q-68 -40 -116 -105l11 -6q20 -13 20 -35q0 -10 -6 -20q-11 -20 -35 -20q-10 0 -20 5l-95 55q-20 13 -20 34q0 11 6 21zM1022 1120q21 73 51 73
q31 0 52.5 -73.5t21.5 -177.5q0 -105 -21.5 -178.5t-52.5 -73.5q-30 0 -51.5 73.5t-21.5 178.5q0 104 22 178zM630 942q0 104 21.5 177.5t51.5 73.5q31 0 52.5 -73.5t21.5 -177.5q0 -105 -21.5 -178.5t-52.5 -73.5q-30 0 -51.5 73.5t-21.5 178.5z" />
    <glyph glyph-name="uni2623" unicode="&#x2623;" horiz-adv-x="1921" 
d="M205 582q55 164 213 261q35 20 72 33q-7 39 -7 79q0 182 117.5 314t296.5 159v-17q-118 -25 -194.5 -115.5t-76.5 -213.5q0 -133 90.5 -228t226.5 -105v-50q-34 -8 -56 -33.5t-22 -60.5q0 -17 5 -32l-43 -25q-77 112 -202 142.5t-246 -35.5q-106 -64 -146 -173.5
t-3 -224.5l-15 -9q-65 169 -10 334zM1437 955q0 -40 -6 -79q36 -13 71 -33q159 -97 214 -261.5t-11 -333.5l-14 9q37 115 -3 224.5t-147 173.5q-120 66 -245 35.5t-202 -142.5l-43 25q5 15 5 32q0 35 -22 60.5t-56 33.5v50q136 10 226.5 105t90.5 228q0 123 -76.5 213.5
t-194.5 115.5v17q179 -27 296 -159t117 -314zM279 138l15 9q81 -90 196 -110.5t224 39.5q117 72 153.5 195.5t-22.5 245.5l43 25q29 -33 73 -33q42 0 72 33l43 -25q-59 -122 -22.5 -245.5t153.5 -195.5q109 -60 224 -39.5t195 110.5l16 -9q-113 -141 -283.5 -176t-332.5 54
q-36 21 -65 45q-31 -24 -66 -45q-162 -89 -332.5 -54t-283.5 176zM696 943q115 91 265 91q149 0 264 -91q-27 -50 -69 -87q-85 67 -195 67q-111 0 -196 -67q-42 37 -69 87zM799 206q-120 50 -194 156.5t-74 242.5q0 30 4 60q56 1 110 -17q-3 -21 -3 -43q0 -100 54.5 -179
t143.5 -116q-10 -55 -41 -104zM1276 648q53 18 110 17q4 -30 4 -60q0 -136 -74.5 -242.5t-194.5 -156.5q-30 49 -40 104q89 37 143.5 116t54.5 179q0 22 -3 43z" />
    <glyph glyph-name="uni2622" unicode="&#x2622;" 
d="M1527 1062q99 -168 99 -372t-99.5 -371t-267 -267t-371.5 -100q-203 0 -371 100t-267.5 267t-99.5 371t99.5 371.5t267.5 267t371 99.5q204 0 371.5 -99.5t267.5 -266.5zM591 1216l-5 -3l176 -304q57 34 126 34t127 -34l175 304q-137 81 -302 81q-162 0 -297 -78z
M635 690h-351q0 -167 82.5 -305t219.5 -218l176 304q-127 79 -127 219zM1190 167l1 1q137 80 219 217.5t82 304.5h-351q0 -140 -126 -219zM1007 690q0 49 -35 84t-84 35t-84 -35t-35 -84t35 -84t84 -35t84 35t35 84z" />
    <glyph glyph-name="uni2776" unicode="&#x2776;" horiz-adv-x="2040" 
d="M1453 26q-198 -74 -433 -74q-234 0 -432 73.5t-318 236t-120 428.5q0 267 120 429.5t318 236t432 73.5q235 0 433 -73.5t318 -236t120 -429.5q0 -266 -120 -428.5t-318 -235.5zM1203 999h-223q-21 -60 -116 -81t-198 -21v-111h284v-411h253v624z" />
    <glyph glyph-name="uni2777" unicode="&#x2777;" horiz-adv-x="2040" 
d="M1020 1429q235 0 433 -73.5t318 -236t120 -429.5q0 -266 -120 -428.5t-318 -236t-433 -73.5q-234 0 -432 73.5t-318 236t-120 428.5q0 267 120 429.5t318 236t432 73.5zM763 986q-91 -31 -138 -90.5t-47 -115.5h297q3 38 39 56t136 18q134 0 144 -33q5 -14 -7.5 -25.5
t-57 -21t-135.5 -19.5q-192 -22 -283 -70.5t-121.5 -119t-43.5 -159.5q-3 -15 -6 -31h948v183h-638q2 2 3 4q39 31 174 45q139 17 221 31t136 32q130 43 115 168q-10 63 -56.5 96.5t-106.5 51.5q-64 20 -138 27t-148 7t-148 -7t-139 -27z" />
    <glyph glyph-name="uni2778" unicode="&#x2778;" horiz-adv-x="2038" 
d="M1888 690q0 -266 -119.5 -428.5t-317.5 -236t-432 -73.5t-432 73.5t-317.5 236t-119.5 428.5q0 267 119.5 429.5t317.5 236t432 73.5t432 -73.5t317.5 -236t119.5 -429.5zM866 622h157q107 0 142 -7t35 -39q0 -33 -45.5 -44.5t-131.5 -11.5q-85 0 -131 11.5t-46 44.5
q0 2 1 4v3h-315q2 -50 27 -97q52 -85 183.5 -108.5t280.5 -23.5q120 0 231 13.5t180.5 60.5t71.5 145q-2 53 -27 81.5t-55 40.5t-47 15q-3 1 -6 1q12 5 35 19t43.5 40.5t22.5 66.5q1 76 -61 116t-166 53.5t-222 13.5q-109 0 -205.5 -11t-161.5 -44q-39 -21 -69 -63.5
t-30 -85.5h315q3 38 151 38q83 0 118 -9.5t35 -39.5q0 -29 -33.5 -35t-119.5 -6h-157v-142z" />
    <glyph glyph-name="uni2779" unicode="&#x2779;" horiz-adv-x="2040" 
d="M1771 1120q119 -163 119 -430q0 -266 -119.5 -428.5t-317.5 -236t-433 -73.5q-234 0 -432.5 73.5t-318 236t-119.5 428.5q0 267 119.5 429.5t318 236t432.5 73.5q235 0 433 -73.5t318 -235.5zM1406 999h-371l-514 -318v-213h632v-93h253v93h71v183h-71v348zM1153 851
v-200h-318z" />
    <glyph glyph-name="uni277A" unicode="&#x277a;" horiz-adv-x="2040" 
d="M1771 1120q119 -163 119 -430q0 -266 -119.5 -428.5t-317.5 -236t-433 -73.5t-432.5 73.5t-317.5 236t-120 428.5q0 267 120 429.5t317.5 236t432.5 73.5t433 -73.5t318 -235.5zM813 753l16 63h621v183h-801l-92 -381h294q13 14 63 20.5t105 6.5q90 0 134.5 -14t44.5 -49
q1 -62 -179 -62q-84 0 -130 10.5t-49 44.5h-304q0 -22 13.5 -52t36.5 -55q55 -53 133.5 -77.5t160 -30.5t139.5 -6q59 0 140 6t159.5 30.5t133.5 77.5q52 55 52 114q0 72 -55.5 111t-136 56.5t-161.5 21t-132 3.5q-120 0 -206 -21z" />
    <glyph glyph-name="uni277B" unicode="&#x277b;" horiz-adv-x="2040" 
d="M1891 690q0 -266 -120 -428.5t-318 -236t-433 -73.5q-234 0 -432 73.5t-318 236t-120 428.5q0 267 120 429.5t318 236t432 73.5q235 0 433 -73.5t318 -236t120 -429.5zM1035 777q-125 0 -208 -37q9 56 46 80q56 34 154 34q24 0 60.5 -3t66 -14.5t37.5 -34.5h301
q-3 32 -28 73.5t-84 79.5q-84 47 -187 56t-166 9t-164 -9t-185 -56q-73 -46 -106 -114.5t-33 -153.5q0 -84 33 -153t106 -114q84 -48 185 -57t164 -9q88 0 201.5 12t194 61t78.5 155q-8 96 -89 137.5t-184.5 50.5t-178.5 7h-14zM1164 531q-46 -11 -137 -11q-29 0 -69.5 2.5
t-76.5 12.5q-35 9 -35 41q0 33 45 44.5t136 11.5t136.5 -11t45.5 -45q0 -35 -45 -45z" />
    <glyph glyph-name="uni277C" unicode="&#x277c;" horiz-adv-x="2041" 
d="M1771 262q-120 -163 -318 -236.5t-433 -73.5t-433 73.5t-317.5 236t-119.5 428.5q0 267 119.5 429.5t317.5 236t433 73.5t433 -73.5t317.5 -236t119.5 -429.5q0 -266 -119 -428zM1150 551q71 101 314 226v222h-888v-183h595q-241 -108 -337 -212.5t-114 -228.5h349
q0 2 1 4q8 71 80 172z" />
    <glyph glyph-name="uni277D" unicode="&#x277d;" horiz-adv-x="2041" 
d="M1771 262q-120 -163 -318 -236.5t-432 -73.5q-235 0 -433 73.5t-318 236t-120 428.5q0 267 120 429.5t318 236t433 73.5q234 0 432 -73.5t318 -236t120 -429.5q0 -266 -120 -428zM799 1007q-104 -14 -166.5 -54t-61.5 -116q2 -40 22.5 -66.5t43.5 -40.5t35 -19
q-2 0 -6 -1q-16 -3 -46.5 -14.5t-55.5 -40.5t-27 -82q1 -98 71 -145t181.5 -60.5t231.5 -13.5q119 0 230.5 13.5t181.5 60.5t71 145q-2 53 -27 82t-55.5 40.5t-46.5 14.5q-4 1 -6 1q12 5 35 19t43.5 40.5t23.5 66.5q0 76 -62.5 116t-166 53.5t-221.5 13.5q-119 0 -222 -13z
M890 618q45 7 131 7q85 0 130.5 -7.5t45.5 -44.5q0 -36 -45.5 -44.5t-130.5 -8.5q-86 0 -131.5 8.5t-45.5 44.5q0 37 46 45zM903 846q35 8 118 8q82 0 117 -8.5t35 -39.5q0 -32 -35 -38t-117 -6q-83 0 -118 6t-35 38q0 31 35 40z" />
    <glyph glyph-name="uni277E" unicode="&#x277e;" horiz-adv-x="2040" 
d="M1771 262q-120 -163 -318 -236.5t-432 -73.5q-235 0 -433 73.5t-318 236t-120 428.5q0 267 120 429.5t318 236t433 73.5q234 0 432 -73.5t317.5 -236t119.5 -429.5q0 -266 -119 -428zM1502 687q0 85 -33 153.5t-106 114.5q-84 47 -185 56t-164 9q-88 0 -201.5 -12
t-194 -61t-79.5 -155q9 -96 90 -137.5t184.5 -50t178.5 -6.5h14q125 0 207 36q-8 -55 -45 -79q-55 -35 -154 -35q-24 0 -60.5 3.5t-66 15t-37.5 34.5h-301q3 -32 28 -73.5t84 -79.5q84 -48 187 -57t166 -9t164 9t185 57q73 45 106 114t33 153zM1150 754q-45 -12 -136 -11
q-91 -1 -136 10t-45 46t45 45.5t136 9.5q29 0 69.5 -2.5t76.5 -12.5q35 -9 35 -40q0 -34 -45 -45z" />
    <glyph glyph-name="invsmileface" unicode="&#x263b;" horiz-adv-x="1777" 
d="M1528 1062q99 -168 99 -372t-99.5 -371.5t-267.5 -267t-372 -99.5q-203 0 -370.5 99.5t-267.5 267t-100 371.5t100 371.5t267.5 267t370.5 99.5q204 0 372 -99.5t268 -266.5zM889 190q170 0 304 103q115 88 167 229q23 -6 27 -6q10 0 21 7q18 11 18 34q0 30 -30 39
q-110 29 -116 29q-11 0 -22 -6q-18 -10 -18 -35q0 -30 42 -41q-44 -114 -138 -186q-112 -86 -255 -86t-256 86q-93 72 -137 186l12 3q29 9 29 38l-1 11q-9 30 -39 30q-5 0 -116 -29q-30 -9 -30 -40q0 -22 20 -34q9 -6 19 -6q5 0 28 6q51 -141 166 -229q135 -103 305 -103z
M630 942q0 -105 21.5 -178.5t52.5 -73.5q30 0 51.5 73.5t21.5 178.5q0 104 -21.5 177.5t-51.5 73.5q-31 0 -52.5 -73.5t-21.5 -177.5zM1000 942q0 -105 21.5 -178.5t51.5 -73.5q31 0 52.5 73.5t21.5 178.5q0 104 -21.5 177.5t-52.5 73.5q-30 0 -51.5 -73.5t-21.5 -177.5z
" />
    <glyph glyph-name="uni2462" unicode="&#x2462;" horiz-adv-x="2038" 
d="M1769 262q-120 -163 -318 -236.5t-432 -73.5t-432 73.5t-317.5 236t-119.5 428.5q0 267 119.5 429.5t317.5 236t432 73.5t432 -73.5t317.5 -236t119.5 -429.5q0 -266 -119 -428zM651 1237q-167 -58 -267 -190.5t-100 -356.5t100 -356t266.5 -190t368.5 -58q201 0 368 58
t266.5 190t99.5 356t-99.5 356.5t-266.5 190t-368 57.5q-202 0 -368 -57zM818 1009q96 11 205 11q118 0 222 -13.5t166 -53.5t61 -116q-2 -40 -22.5 -66.5t-43.5 -40.5t-35 -19q3 0 6 -1q17 -3 47 -15t55 -40.5t27 -81.5q-2 -98 -71.5 -145t-180.5 -60.5t-231 -13.5
q-149 0 -280.5 23.5t-183.5 108.5q-25 47 -27 97h315v-3q-1 -2 -1 -4q0 -33 46 -44.5t131 -11.5q86 0 131.5 11.5t45.5 44.5q0 32 -35 39t-142 7h-157v142h157q86 0 119.5 6t33.5 35q0 30 -35 39.5t-118 9.5q-148 0 -151 -38h-315q0 43 30 85.5t69 63.5q65 33 162 44z" />
    <glyph glyph-name="uni215A" unicode="&#x215a;" horiz-adv-x="2891" 
d="M2554 13q-84 -24 -176 -30.5t-165 -6.5q-46 0 -114.5 3t-140 18.5t-132.5 51.5q-80 50 -116.5 126t-36.5 170t36.5 170t116.5 126q61 36 132.5 51.5t140 18.5t114.5 3q47 0 116 -3t142 -18.5t133 -51.5q65 -42 92.5 -87.5t31.5 -81.5h-333q-9 26 -42 38.5t-73 16.5t-67 4
q-109 0 -171 -39q-40 -27 -50 -89q92 41 230 41h16q83 3 197.5 -7t204 -56t99.5 -152q2 -89 -50 -140.5t-135 -75.5zM165 829q-15 33 -15 57h336q4 -38 54.5 -50t144.5 -11q100 0 149 15.5t49 53.5q0 39 -49 54.5t-149 15.5q-61 0 -116.5 -7.5t-70.5 -23.5h-325l102 423h888
v-203h-689l-17 -70q95 23 228 23q32 0 77 -0.5t95.5 -4t102 -12t98.5 -23t84 -37.5t58.5 -56t21.5 -79q0 -33 -16 -66.5t-42 -59.5q-44 -45 -105.5 -71t-129 -38t-131.5 -15t-113 -3t-113 3t-131.5 15t-129 38t-106.5 71q-25 27 -40 61zM619 -48l1343 1428h296l-1343 -1428
h-296zM2012 222q0 -35 39 -45q41 -12 85.5 -14.5t76.5 -2.5q101 -1 151 11t50 51q0 38 -50 49.5t-151 11.5q-100 0 -150.5 -12t-50.5 -49z" />
    <glyph glyph-name="uni215F" unicode="&#x215f;" horiz-adv-x="2067" 
d="M574 -48h-295l1343 1428h295zM150 1243q312 0 347 113h246v-691h-279v455h-314v123z" />
    <glyph glyph-name="uni262F" unicode="&#x262f;" 
d="M1260 1329q167 -100 266.5 -267.5t99.5 -371.5t-99.5 -371t-267 -267t-371.5 -100t-371.5 100t-267 267t-99.5 371t99.5 371.5t267 267t371.5 99.5t372 -99zM1102 779q88 88 88 213t-88.5 213.5t-213.5 88.5h-8q-167 -4 -301 -85t-214.5 -217.5t-80.5 -301.5t80.5 -301.5
t214.5 -217.5t301 -85q-125 7 -209.5 93t-84.5 209q0 125 88.5 213.5t213.5 88.5t214 89zM972 304q35 35 35 84t-35 84t-84 35t-84 -35t-35 -84t35 -84t84 -35t84 35zM888 873q-49 0 -84 35t-35 84t35 84t84 35t84 -35t35 -84t-35 -84t-84 -35z" />
    <glyph glyph-name="uni24EA" unicode="&#x24ea;" horiz-adv-x="2041" 
d="M1020 -48q-234 0 -432 73.5t-318 236t-120 428.5q0 267 120 429.5t318 236t432 73.5q235 0 433 -73.5t317.5 -236t119.5 -429.5q0 -266 -119.5 -428.5t-317.5 -236t-433 -73.5zM1389 144q167 58 267 190t100 356t-100 356.5t-267 190t-369 57.5t-369 -57.5t-266.5 -190
t-99.5 -356.5t99.5 -356t266.5 -190t369 -58t369 58zM854 367q-101 12 -177 55q-145 97 -145 265q0 169 145 266q76 43 177 55t166 12q66 0 166.5 -12t176.5 -55q145 -97 145 -266q0 -168 -145 -265q-76 -43 -176.5 -55.5t-166.5 -12.5q-65 0 -166 13zM1099 829q-49 6 -79 6
q-29 0 -78 -6.5t-83 -26.5q-61 -50 -61 -115q0 -64 61 -114q34 -21 83 -27.5t78 -6.5q30 0 78.5 6.5t83.5 27.5q30 20 45 51t15 63q0 65 -60 115q-35 20 -83 27z" />
    <glyph glyph-name="uni24FF" unicode="&#x24ff;" horiz-adv-x="2040" 
d="M588 1356q198 73 432 73q235 0 433 -73.5t317.5 -236t119.5 -429.5q0 -266 -119.5 -428.5t-317.5 -236t-433 -73.5q-234 0 -432.5 73.5t-318 236t-119.5 428.5q0 267 119.5 429.5t318.5 236.5zM677 422q76 -43 177 -55.5t166 -12.5t166 12.5t177 55.5q145 97 145 265
q0 169 -145 266q-76 43 -177 55t-166 12t-166 -12t-177 -55q-145 -97 -145 -266q0 -168 145 -265zM1099 546q-49 -7 -79 -7q-29 0 -78 6.5t-84 27.5q-60 50 -60 114q0 65 60 115q35 20 84 26.5t78 6.5q30 0 78.5 -6.5t83.5 -26.5q60 -50 60 -115q0 -32 -15 -63t-45 -51
q-35 -21 -83 -27z" />
    <glyph glyph-name="uni2150" unicode="&#x2150;" horiz-adv-x="2511" 
d="M1622 1380h295l-1344 -1428h-295zM2035 488h-659v203h985v-246q-319 -161 -395 -322q-26 -54 -43 -124h-387q21 138 127 253.5t372 235.5zM150 1120v123q313 0 348 113h246v-691h-280v455h-314z" />
    <glyph glyph-name="uni2151" unicode="&#x2151;" horiz-adv-x="2563" 
d="M1651 701q125 13 223 13q46 0 114.5 -3t140.5 -18.5t132 -51.5q80 -50 117 -126.5t37 -169.5q0 -94 -37 -170t-117 -127q-60 -35 -132 -50.5t-140.5 -18.5t-114.5 -3q-47 0 -116 3t-142 18.5t-133 50.5q-66 43 -93.5 88.5t-30.5 81.5h333q9 -26 42 -38.5t73 -16t67 -3.5
q109 0 171 38q41 26 50 89q-91 -41 -229 -41h-17q-83 -2 -197.5 7.5t-204 55.5t-99.5 152q-1 118 88 172.5t215 67.5zM1622 1380h295l-1344 -1428h-295zM464 1120h-314v123q313 0 348 113h246v-691h-280v455zM1951 528q-45 2 -77 2q-101 1 -151.5 -11t-50.5 -51
q0 -38 50.5 -50t151.5 -12t151 13t50 49q0 35 -39 46q-41 11 -85 14z" />
    <glyph glyph-name="uni2152" unicode="&#x2152;" horiz-adv-x="3409" 
d="M2792 701q112 -14 196 -62q161 -107 161 -294q0 -188 -161 -294q-84 -48 -196 -61.5t-184 -13.5q-73 0 -185 13.5t-195 61.5q-161 106 -161 294q0 187 161 294q83 48 195 61.5t185 13.5q72 0 184 -13zM1622 1380h295l-1344 -1428h-295zM1734 691h247v-692h-280v455h-314
v124q308 0 347 113zM497 1356h247v-691h-280v455h-314v123q313 0 347 113zM2608 509q-33 0 -87 -7t-93 -30q-33 -22 -50 -56.5t-17 -70.5t17 -70.5t50 -56.5q39 -23 93 -30t87 -7t87 7t92 30q34 22 50.5 56.5t16.5 70.5t-16.5 70.5t-50.5 56.5q-38 23 -92 30t-87 7z" />
    <glyph glyph-name="uni2071" unicode="&#x2071;" horiz-adv-x="824" 
d="M457 1648q-31 -100 -307 -100v-109h278v-401h246v610h-217z" />
    <glyph glyph-name="uni2072" unicode="&#x2072;" horiz-adv-x="1251" 
d="M648 1507q-98 0 -133 -18t-38 -55h-290q0 55 46 112.5t135 88.5q62 19 135 26.5t145 7.5t144.5 -7.5t135.5 -26.5q59 -17 104 -50t55 -95q14 -122 -112 -163q-53 -19 -133 -32.5t-216 -29.5q-132 -14 -170 -45q-2 -1 -3 -4h623v-178h-926q3 15 5 29q12 87 42 156
t119 116.5t277 69.5q89 10 132.5 19.5t55.5 20.5t7 25q-9 33 -140 33z" />
    <glyph glyph-name="uni2073" unicode="&#x2073;" horiz-adv-x="1254" 
d="M478 1280v138h153q84 0 117 6t33 34q0 30 -34.5 39.5t-115.5 9.5q-72 0 -107.5 -8t-40.5 -30h-308q0 42 29.5 83.5t67.5 62.5q63 32 158 43t201 11q116 0 217.5 -13.5t162.5 -53t60 -113.5q-3 -39 -23 -64.5t-42.5 -39.5t-33.5 -19q2 0 5 -1q17 -3 46 -14.5t54 -39.5
t27 -80q-1 -72 -40.5 -115t-107.5 -64.5t-152.5 -28t-172.5 -6.5q-97 0 -190 8.5t-162.5 36.5t-101.5 85q-25 45 -27 94h308v-6q0 -33 45 -44.5t128 -11.5q84 0 128.5 11.5t44.5 44.5q0 30 -34.5 37.5t-138.5 7.5h-153z" />
    <glyph glyph-name="uniE000" unicode="&#xe000;" horiz-adv-x="2465" 
d="M961 1046q-85 -14 -85 -54t85 -46q188 -20 387 -34q288 -19 524 -52q223 -30 333 -114.5t110 -281.5q0 -120 -59.5 -204t-147.5 -139t-180 -87q-157 -52 -349 -67t-349 -15q-131 0 -313 13t-357.5 67.5t-298.5 172.5q-52 50 -81.5 106t-29.5 147h657q0 -78 108.5 -108.5
t314.5 -30.5q223 0 308 28.5t85 66.5q0 42 -77.5 59t-302.5 33q-269 19 -474 41t-315 57q-285 102 -253 384q21 140 123.5 230t236.5 131q141 44 305 60t328 16q163 0 318.5 -18.5t296.5 -62.5q200 -70 296.5 -178t102.5 -192h-657q0 42 -104.5 63.5t-252.5 21.5
q-149 0 -233 -13zM1446 -406q-46 -54 -138 -72.5t-230 -18.5v111q6 1 12 1q42 1 79 11.5t54 48.5h-249v238h517v-158q0 -107 -45 -161z" />
    <glyph glyph-name="uniE001" unicode="&#xe001;" horiz-adv-x="2151" 
d="M812 -27q-153 8 -302.5 49t-258.5 136q-44 38 -69.5 81t-25.5 112h626q0 -55 82.5 -72.5t212.5 -17.5q141 0 237.5 12t96.5 54q0 8 -9.5 18.5t-34.5 16.5q-60 12 -280 26q-96 6 -185 11q-336 14 -511 59q-241 83 -215 298q16 107 112 176t212 100q121 33 264 45.5
t281 12.5q140 0 282.5 -14t263.5 -48q171 -54 258.5 -136t93.5 -146h-612q0 27 -88.5 38t-197.5 11q-126 0 -210.5 -5t-84.5 -31q0 -8 12 -17t48 -15q77 -10 312 -26q13 -1 25 -2q51 -3 99 -7q254 -15 422 -40t250.5 -90t82.5 -207q0 -91 -50.5 -155t-125.5 -106.5
t-153 -65.5q-134 -40 -297.5 -51.5t-297.5 -11.5q-112 0 -265 8zM1337 -87v-158q0 -107 -45.5 -161t-137 -72.5t-229.5 -18.5v111q6 1 12 1q42 1 79 11.5t53 48.5h-249v238h517z" />
    <glyph glyph-name="uniE026" unicode="&#xe026;" horiz-adv-x="2321" 
d="M1882 -229q0 -39 29 -56q23 -15 48 -15q29 0 177 35l35 -113q-71 -25 -194 -43q-58 -8 -115 -8q-65 0 -129 10q-174 29 -174 167q0 116 251 252h-207v747h-591v-747h-559v747h-303v310h303v120q0 175 163 233q104 28 791 28q527 0 755 -11v-243h-996q-64 0 -97 -17
q-57 -29 -57 -110h1150v-1057h-103q-12 0 -57 -43q-42 -39 -81 -92t-39 -94z" />
    <glyph glyph-name="uniE027" unicode="&#xe027;" horiz-adv-x="2321" 
d="M1883 -229q0 -39 28.5 -56.5t59.5 -12.5q25 3 61.5 10t103.5 23l35 -113q-71 -25 -193 -42.5t-244 1.5q-71 12 -122.5 50t-51.5 117q0 55 43.5 103t101.5 85.5t106 63.5h-207v747h-592v-349q0 -114 122 -113q50 2 79 3t64 2l54 2v-315q-30 -2 -57 -3q-95 -4 -167 -6
t-182 -2h-10q-100 -1 -184 5.5t-146 37.5t-96.5 102.5t-34.5 201.5v434h-304v311h304v345h558v-345h1150v-1058h-104q-15 -4 -56.5 -43t-80 -92t-38.5 -94zM2162 1156h-558v272h558v-272z" />
    <glyph glyph-name="uniE028" unicode="&#xe028;" 
 />
    <glyph glyph-name="uniE029" unicode="&#xe029;" horiz-adv-x="2143" 
 />
    <glyph glyph-name="uniE02A" unicode="&#xe02a;" horiz-adv-x="7084" 
d="M7084 1358v-1403q-50 0 -97 18.5t-86 55.5q-49 52 -66 117.5t0 130.5t66 117q4 2 7 5q6 6 12 11l4 4q1 0 2 1t4 2l2 2q81 62 99 168q1 6 2 13v6v100v7q-1 6 -2 13q-18 106 -99 167l-2 2q-3 1 -4 2l-2 2l-4 4q-6 4 -12 10q-3 3 -7 6q-49 51 -66 116.5t0 130.5t66 117
q39 37 86 56t97 19zM0 1358v-1403q49 0 96.5 18.5t85.5 55.5q50 52 66.5 117.5t0 130.5t-66.5 117l-18 16l-4 4q-1 0 -3 1q-1 1 -3 2l-2 2q-81 62 -100 168q-1 9 -1 19v100q0 10 1 20q19 106 100 167l2 2q2 1 3 2q2 1 3 2l4 4q9 7 18 16q50 51 66.5 116.5t0 130.5t-66.5 117
q-38 37 -85.5 56t-96.5 19zM2770 2204q-51 52 -67.5 117t0 130t67.5 117q51 50 116.5 66.5t130.5 0t116 -66.5q50 -52 67 -117t0 -130t-67 -117l-16 -16q-1 0 -2 -1q-1 0 -2 -1l-2 -2l-2 -2q-2 -1 -3 -2q-1 0 -1 -1q-1 -1 -2 -1q-81 -61 -99 -167q-1 -7 -1 -13q-1 -3 -1 -6
v-703q-25 22 -51 43q-25 22 -50 43v617q0 9 -2 17v2q-19 105 -99 167q-1 0 -2 1l-2 2l-2 2t-2 1l-2 2t-2 1q-2 3 -5 5q-7 5 -13 12zM2901 910q50 -31 101 -60v-1530q0 -3 1 -6q0 -6 1 -12q18 -106 99 -167l1 -1l2 -2t3 -2l2 -2q1 0 2 -1l2 -2t2 -1q8 -7 16 -16
q50 -51 67 -116.5t0 -130.5t-67 -116q-51 -51 -116 -67.5t-130.5 0t-116.5 67.5t-67.5 116t0 130.5t67.5 116.5q6 7 13 13q3 2 5 4l2 2t2 1l2 2t2 1l2 2l2 2q80 61 99 167q2 10 2 18v1590zM2311 1549l60 -48l40 -32q0 -1 1 -1v-30q-51 27 -101 53v58zM2311 1241
q25 -13 50 -27q25 -13 51 -27v-1609q0 -10 1 -19q19 -107 99 -168q1 0 2 -1h0.5t1.5 -1q2 -2 5 -4q1 0 2 -1l2 -2q5 -4 9 -8q5 -4 9 -9q50 -51 67 -116.5t0 -130.5t-67 -117q-51 -50 -116.5 -67t-130.5 0t-116 67q-51 52 -67.5 117t0 130.5t67.5 116.5q4 4 8 9q5 4 9 8
q1 1 2.5 2l1.5 1q1 1 3 2l2 2q1 0 2 1l2 2q80 60 99 167q2 9 2 19v1663zM2417 1772q-126 98 -254 193q-63 80 -59 176t76 170q51 50 116 67t130.5 0t116.5 -67q50 -51 67 -116.5t0 -131t-67 -116.5q-4 -4 -9 -8q-4 -5 -9 -9q-2 -1 -4 -3q-3 -2 -5 -4q-1 0 -1.5 -0.5
l-0.5 -0.5q-1 0 -2 -1q-72 -56 -95 -149zM1642 1568l22 -10l40 -18q66 -29 131 -60l4 -2q-11 -28 -16 -58v-1q-1 -9 -1 -19v-1488q0 -9 1 -19v0q19 -106 99 -167l2 -2q1 0 1 -1q2 0 3 -1l2 -2l2 -2l2 -2q10 -8 19 -16q50 -52 67 -117t0 -130.5t-67 -116.5
q-52 -51 -117 -67.5t-130.5 0t-116.5 67.5q-50 51 -66.5 116.5t0 130.5t66.5 117l18 16l2 2l2 2v0q3 1 5 3q1 1 4 3q80 61 98 167q1 6 2 13v6v1488v7q-1 6 -2 13q-14 89 -76 148zM1986 1654q-168 79 -338 151q-63 27 -127 52q17 67 68 120q30 30 66 48q190 -123 372 -259
q-7 -60 -41 -112zM998 1279q-50 51 -66.5 116.5t0 130.5t66.5 116q52 51 117.5 67.5t130.5 0t117 -67.5q50 -51 66.5 -116t0 -130.5t-66.5 -116.5q-5 -4 -10 -9q-4 -4 -9 -8l-2 -2t-2 -1l-2 -2t-3 -2t-3 -3q-80 -60 -99 -167q0 -5 -1 -9q-1 -5 -1 -9v-821q0 -5 1 -10
q1 -4 1 -9q19 -106 99 -167q1 -1 3 -2q2 -2 3 -2l2 -2l2 -2l2 -2q1 0 2 -1q8 -7 17 -16q50 -51 66.5 -116t0 -130.5t-66.5 -116.5q-52 -50 -117 -67t-130.5 0t-117.5 67q-50 51 -66.5 116.5t0 130.5t66.5 116q9 9 18 16q0 1 1 1l2 2l2 2q1 0 2 1l2 2v0q1 0 2 1l2 2
q81 61 99 167q1 5 1 9q1 5 1 10v821q0 4 -1 9q0 4 -1 9q-18 106 -99 167l-2 2l-2 2v0q-1 0 -2 1l-2 2q-1 0 -2 1l-2 2q-5 4 -9 8q-5 5 -10 9zM408 1022q-50 51 -66.5 116.5t0 130.5t66.5 117q52 50 117 67t130.5 0t117.5 -67q50 -52 66.5 -117t0 -130.5t-66.5 -116.5
q-5 -5 -10 -9q-4 -4 -9 -8q-1 -1 -2 -1.5t-2 -1.5v-1q-1 0 -3 -2q-1 0 -3 -2h-0.5t-1.5 -1v0q-81 -61 -99 -168l-2 -12v-7v-306v-6q1 -7 2 -12q18 -107 99 -168v-1q1 0 1.5 -0.5l0.5 -0.5q2 -1 3 -2q2 -1 3 -2l2 -2t2 -1l9 -9l10 -8q50 -52 66.5 -117t0 -130.5t-66.5 -116.5
q-52 -51 -117.5 -67.5t-130.5 0t-117 67.5q-50 51 -66.5 116.5t0 130.5t66.5 117q9 8 19 17l1 1q1 0 3 2q1 1 2 1l2 2t2 1l2 2q80 61 99 168q1 7 2 16v2v306v2q-1 9 -2 17q-19 107 -99 168q-1 0 -2 1t-2 1v0q-1 2 -2 2.5t-2 0.5l-3 3q-1 0 -1 1h-1q-9 8 -18 17zM3724 2307
q50 52 67 117t0 130t-67 117q-51 50 -116.5 66.5t-131 0t-116.5 -66.5q-50 -52 -67 -117t0 -130t67 -117q8 -9 18 -17l4 -3q2 -1 3 -2l2 -2l3 -2q81 -62 99 -168q1 -9 3 -18v-1233l100 -90v1323q1 9 3 18q17 106 98 168l4 3v0q2 1 4 3l4 3q10 7 19 17v0zM3592 451l-100 89
v-1323q-2 -8 -3 -18q-18 -106 -99 -167l-3 -3l-2 -2t-3 -2l-4 -3q-10 -7 -18 -17q-50 -51 -67 -116.5t0 -130.5t67 -116q51 -50 116.5 -67t131 0t116.5 67q50 51 67 116t0 130.5t-67 116.5q-9 10 -19 17l-4 3q-2 2 -4 3v1l-4 3q-81 61 -98 167q-2 10 -3 18v1234zM4314 2204
q50 52 67 117t0 130t-67 117q-51 50 -116.5 66.5t-131 0t-116.5 -66.5q-50 -52 -67 -117t0 -130t67 -117q8 -8 16 -15l2 -2q2 0 2 -1l2 -2q2 -1 4 -3q1 0 2 -1l1 -1q1 0 1 -1q82 -61 99 -167l2 -10q0 -4 1 -9v-1530q36 -21 71 -42q15 -9 29 -17v1589l2 10q0 4 1 9
q18 105 99 167l1 1t3 2l2 2q0 1 2 1l2 2t2 1q2 3 5 5q7 5 13 12zM4182 -63q-24 21 -49 42q-25 22 -51 44v-703q-1 -8 -3 -18q-17 -106 -99 -167q-1 -2 -2 -3q-1 0 -2 -1q-2 -1 -4 -3q-1 0 -2 -1q0 -1 -2 -2l-2 -2q-8 -7 -16 -15q-50 -51 -67 -116.5t0 -130.5t67 -116
q51 -51 116.5 -67.5t131 0t116.5 67.5q50 51 67 116t0 130.5t-67 116.5q-6 7 -13 13q-3 2 -5 4l-2 2t-2 1q-2 1 -2.5 2t-1.5 1q-2 1 -3 2t-1 2q-81 61 -99 167v0q-2 10 -3 18v617zM4904 1947q51 51 67.5 116.5t0 131t-67.5 116.5q-51 50 -116 67t-130.5 0t-116.5 -67
q-50 -51 -67 -116.5t0 -131t67 -116.5q4 -4 9 -8q4 -5 9 -9q1 0 2 -1l2 -2t2.5 -2t2.5 -2l1 -1q1 0 2 -1q81 -61 99 -168q2 -9 2 -18v-1610q26 -13 52 -27q24 -14 49 -27v1664q0 9 2 18q19 107 99 168q1 1 2 1l2 2q1 0 2 1t3 2q1 2 2 2q0 1 1 1v1q10 8 18 16zM4773 -179
q-25 14 -51 27l-50 26v-29q0 -1 1 -1q20 -17 40 -32l42 -34q9 -7 18 -15v58zM4921 -653q-129 95 -255 194q-22 -94 -95 -150q-1 0 -2 -1l-1 -1t-2.5 -2t-2.5 -2q-1 0 -2 -1l-2 -2q-5 -4 -9 -8q-5 -4 -9 -9q-50 -51 -67 -116.5t0 -130.5t67 -117q51 -50 116.5 -67t130.5 0
t116 67q71 75 75.5 171t-58.5 175zM5494 1613q51 51 67.5 116.5t0 130.5t-67.5 117q-51 50 -116 66.5t-130.5 0t-116.5 -66.5q-50 -52 -67 -117t0 -130.5t67 -116.5q9 -9 18 -17l2 -2q1 0 2 -2q2 0 3 -2q1 0 2 -1t4 -2q80 -62 98 -167q2 -10 2 -20v-1488q0 -10 -2 -19
q-5 -31 -16 -59q68 -31 135 -62q16 -6 31 -13q16 -7 31 -14q-61 59 -76 148v0q-2 10 -2 19v1488q0 10 2 19v1q19 105 99 167l4 2q2 2 5 3q1 2 2 3t2 1q9 8 17 17zM5563 -545l-4 2q-62 24 -123 50q-170 72 -338 152q-34 -53 -41 -113q182 -135 371 -259q36 18 66 49
q52 52 69 119zM6085 1279q51 51 67.5 116.5t0 130.5t-67.5 116t-116.5 67.5t-130.5 0t-117 -67.5q-50 -51 -67 -116t0 -130.5t67 -116.5q9 -9 19 -17q0 -1 1 -2t3 -1l2 -2l2 -2t2 -1l2 -2q80 -60 99 -167q0 -4 1 -9q0 -4 1 -9v-821q-1 -5 -1 -10q-1 -4 -1 -9
q-19 -106 -99 -167q-1 -1 -2 -1q-1 -1 -2 -1q-1 -2 -2 -2l-2 -2q-2 -1 -3 -2t-1 -2q-3 -2 -5 -4q-8 -6 -14 -13q-50 -51 -67 -116t0 -130.5t67 -116.5q52 -50 117 -67t130.5 0t116.5 67q51 51 67.5 116.5t0 130.5t-67.5 116q-8 9 -17 16q0 1 -1 1l-2 2l-2 2q-1 0 -3 1l-2 2
q-1 0 -2 1t-1 2q-82 61 -99 167q-2 7 -2 13q0 3 -1 6v821q1 3 1 6q0 6 2 12q17 106 99 167q0 1 1 1q1 2 2 3q1 0 2 1q2 1 3 2q1 0 2 1l2 2q4 4 9 8q4 5 9 9zM6675 1022q51 51 67.5 116.5t0 130.5t-67.5 117q-51 50 -116.5 67t-130.5 0t-117 -67q-50 -52 -67 -117t0 -130.5
t67 -116.5q5 -5 10 -9q4 -4 9 -8l1.5 -1.5t2.5 -1.5v-1q2 -1 5 -4h1.5t1.5 -1v0q81 -61 99 -168q1 -9 2 -19v-306q-1 -10 -2 -18q-18 -107 -99 -168l-1.5 -1.5t-1.5 -0.5v0q-3 -3 -5 -4v0l-2 -2t-2 -1l-9 -9l-10 -8q-50 -52 -67 -117t0 -130.5t67 -116.5q52 -51 117 -67.5
t130.5 0t116.5 67.5t67.5 116.5t0 130.5t-67.5 117q-4 4 -9 8l-9 9q-1 0 -2 1l-2 2v0q-1 1 -2 1.5t-2 1.5q-3 1 -4 3q-81 61 -99 168q-1 8 -2 17v1v306q1 10 2 19q18 107 99 168q1 1 4 2l2 2t2 1v1q1 1 2 1.5t2 1.5q5 4 9 8q5 4 9 9zM7084 2706v80q-298 0 -596 -81.5
t-595 -228t-594 -344.5q62 2 121 -17q278 180 555.5 312t554.5 205.5t554 73.5zM4975 1805q3 61 26 119l-25 -18l-8 -8q-3 -4 -7 -8q-11 -11 -23 -21v0q-1 -1 -3 -2l-3 -4l-4 -2q0 -1 -1 -1.5t-2 -0.5l-1 -1q-1 0 -1 -1q-57 -44 -69 -115v-10v-19q60 47 121 92zM4592 1506
v103q-164 -132 -329 -271v-105q165 140 329 273zM4001 1007v106q-164 -142 -328 -288v-125q41 25 82 49q124 74 246 146v70q-74 -43 -148 -87q74 65 148 129zM4263 1118v-69q165 94 329 185v68q-164 -89 -329 -184zM4854 1442v-68q136 71 273 137l-1 1q-7 6 -14 10v1l-2 2
q-1 0 -2 1q0 1 -1 1l-7 5q-1 1 -1 2q-1 0 -1 0.5v0.5q-11 9 -22 19q-111 -55 -222 -112zM5650 1805q2 -33 -4 -66q359 142 718.5 223.5t719.5 81.5v61q-359 0 -717.5 -80t-716.5 -220zM3411 487v125q-72 -42 -144 -85q-92 -56 -185 -110v-70q20 12 40 23q54 32 108 65
q-74 -66 -148 -130v-106q115 99 229 200zM2820 -26v105q-164 -140 -328 -273v-103q164 132 328 271zM2108 -594q4 5 7 8q4 4 7 8q12 12 23 21v0q1 0 2 1l2 2l6 5l1.5 1.5t2.5 0.5l2 2q57 45 68 115q0 3 1 6v5v18q-60 -47 -122 -92q-2 -61 -25 -118zM1784 -820
q-61 -2 -120 17q-278 -179 -555.5 -311.5t-555 -206t-553.5 -73.5v-80q298 0 596 81.5t595 228.5t593 344zM2820 194v69q-164 -94 -328 -184v-69q164 90 328 184zM2230 -130v69q-136 -72 -273 -138q7 -6 14 -11l1.5 -1.5l0.5 -0.5q1 -1 2 -1.5t2 -1.5l6 -5q2 0 2 -1l2 -2
l20 -18q112 54 223 111zM1433 -493q-1 34 5 67q-360 -142 -719.5 -224t-718.5 -82v-60q359 0 717 79.5t716 219.5zM7084 -1394v-80q-299 0 -597 82t-596 229t-595 345t-594 432.5t-593.5 491t-593.5 520.5l-38 34q-348 210 -696 411.5t-696 377t-696 309t-695 210t-694 76.5
v61q324 0 647.5 -66t646.5 -182t646 -271t645.5 -335t644.5 -373q-324 286 -647.5 554.5t-647 499t-646.5 404.5t-645.5 272t-643.5 98v80q299 0 597 -82t595.5 -229t595 -345t594 -432.5t593.5 -491t593 -520.5l39 -33q348 -211 696 -412t696 -377t695.5 -309.5t695 -210
t694.5 -76.5v-60q-324 0 -647.5 65.5t-646.5 182t-646 271t-645.5 335t-645.5 373.5q324 -287 648 -555t647.5 -499t646.5 -404.5t645 -272t644 -98.5z" />
    </font>
</defs>
</svg>
